<svg width="96" height="96" viewBox="0 0 96 96" fill="none" xmlns="http://www.w3.org/2000/svg">
<g filter="url(#filter0_d)">
<circle cx="48" cy="43" r="38" fill="url(#paint0_linear)"/>
</g>
<g filter="url(#filter1_d)">
<path d="M40.9655 41H37.9569L33.5086 33.1897V41H30.4828V28.4483H33.5086L37.9483 36.2586V28.4483H40.9655V41ZM50.6638 35.681H45.9052V38.6724H51.5259V41H42.8793V28.4483H51.5431V30.7845H45.9052V33.431H50.6638V35.681ZM62.4828 36.319L63.9224 28.4483H66.9224L64.2586 41H61.1207L59.4397 33.8448L57.7931 41H54.6638L51.9914 28.4483H55L56.4397 36.319L58.1638 28.4483H60.7328L62.4828 36.319ZM24.1121 52.569H22.4741V57H19.4483V44.4483H24.3879C25.8764 44.4483 27.0402 44.7787 27.8793 45.4397C28.7184 46.1006 29.1379 47.0345 29.1379 48.2414C29.1379 49.1149 28.9598 49.8391 28.6035 50.4138C28.2529 50.9885 27.7012 51.454 26.9483 51.8103L29.569 56.8707V57H26.3276L24.1121 52.569ZM22.4741 50.2328H24.3879C24.9626 50.2328 25.3937 50.0833 25.681 49.7845C25.9741 49.4799 26.1207 49.0575 26.1207 48.5172C26.1207 47.977 25.9741 47.5546 25.681 47.25C25.3879 46.9397 24.9569 46.7845 24.3879 46.7845H22.4741V50.2328ZM38.75 51.681H33.9914V54.6724H39.6121V57H30.9655V44.4483H39.6293V46.7845H33.9914V49.431H38.75V51.681ZM51 52.75C50.9598 53.6236 50.7241 54.3966 50.2931 55.069C49.8621 55.7356 49.2558 56.2529 48.4741 56.6207C47.6983 56.9885 46.8103 57.1724 45.8103 57.1724C44.1609 57.1724 42.8621 56.6351 41.9138 55.5603C40.9655 54.4856 40.4914 52.9684 40.4914 51.0086V50.3879C40.4914 49.158 40.704 48.0833 41.1293 47.1638C41.5603 46.2385 42.1782 45.5259 42.9828 45.0259C43.7874 44.5201 44.7184 44.2672 45.7759 44.2672C47.2989 44.2672 48.523 44.6695 49.4483 45.4741C50.3736 46.273 50.8994 47.3764 51.0259 48.7845H48.0086C47.9856 48.0201 47.7931 47.4713 47.431 47.1379C47.069 46.8046 46.5172 46.6379 45.7759 46.6379C45.023 46.6379 44.4713 46.9195 44.1207 47.4828C43.7701 48.046 43.5862 48.9454 43.569 50.181V51.069C43.569 52.408 43.7356 53.3649 44.069 53.9397C44.408 54.5144 44.9885 54.8017 45.8103 54.8017C46.5058 54.8017 47.0374 54.6379 47.4052 54.3103C47.773 53.9828 47.9684 53.4626 47.9914 52.75H51ZM55.6552 57H52.6379V44.4483H55.6552V57ZM60.7845 52.7414V57H57.7586V44.4483H62.7672C63.727 44.4483 64.5747 44.6264 65.3103 44.9828C66.0517 45.3333 66.6236 45.8362 67.0259 46.4914C67.4339 47.1408 67.6379 47.8793 67.6379 48.7069C67.6379 49.931 67.1983 50.9109 66.319 51.6466C65.4454 52.3764 64.2443 52.7414 62.7155 52.7414H60.7845ZM60.7845 50.4052H62.7672C63.3535 50.4052 63.7989 50.2586 64.1035 49.9655C64.4138 49.6724 64.569 49.2586 64.569 48.7241C64.569 48.1379 64.4109 47.6695 64.0948 47.319C63.7787 46.9684 63.3477 46.7902 62.8017 46.7845H60.7845V50.4052ZM77.0431 51.681H72.2845V54.6724H77.9052V57H69.2586V44.4483H77.9224V46.7845H72.2845V49.431H77.0431V51.681Z" fill="white"/>
</g>
<defs>
<filter id="filter0_d" x="0" y="0" width="96" height="96" filterUnits="userSpaceOnUse" color-interpolation-filters="sRGB">
<feFlood flood-opacity="0" result="BackgroundImageFix"/>
<feColorMatrix in="SourceAlpha" type="matrix" values="0 0 0 0 0 0 0 0 0 0 0 0 0 0 0 0 0 0 127 0"/>
<feOffset dy="5"/>
<feGaussianBlur stdDeviation="5"/>
<feColorMatrix type="matrix" values="0 0 0 0 0 0 0 0 0 0 0 0 0 0 0 0 0 0 0.25 0"/>
<feBlend mode="normal" in2="BackgroundImageFix" result="effect1_dropShadow"/>
<feBlend mode="normal" in="SourceGraphic" in2="effect1_dropShadow" result="shape"/>
</filter>
<filter id="filter1_d" x="18.3448" y="27.8965" width="60.681" height="30.931" filterUnits="userSpaceOnUse" color-interpolation-filters="sRGB">
<feFlood flood-opacity="0" result="BackgroundImageFix"/>
<feColorMatrix in="SourceAlpha" type="matrix" values="0 0 0 0 0 0 0 0 0 0 0 0 0 0 0 0 0 0 127 0"/>
<feOffset dy="0.551724"/>
<feGaussianBlur stdDeviation="0.551724"/>
<feColorMatrix type="matrix" values="0 0 0 0 0 0 0 0 0 0 0 0 0 0 0 0 0 0 0.2 0"/>
<feBlend mode="normal" in2="BackgroundImageFix" result="effect1_dropShadow"/>
<feBlend mode="normal" in="SourceGraphic" in2="effect1_dropShadow" result="shape"/>
</filter>
<linearGradient id="paint0_linear" x1="48" y1="5" x2="48" y2="81" gradientUnits="userSpaceOnUse">
<stop stop-color="#EBA129"/>
<stop offset="1" stop-color="#DC9117"/>
</linearGradient>
</defs>
</svg>
