<svg width="96" height="96" viewBox="0 0 96 96" fill="none" xmlns="http://www.w3.org/2000/svg">
<g filter="url(#filter0_d)">
<circle cx="48" cy="43" r="38" fill="url(#paint0_linear)"/>
</g>
<g filter="url(#filter1_d)">
<path d="M21.0499 39H19.0025V30.4828H21.0499V39ZM25.174 30.4828L27.0751 36.4086L28.9704 30.4828H31.673V39H29.6139V37.0111L29.8128 32.9397L27.7537 39H26.3966L24.3316 32.9338L24.5305 37.0111V39H22.4772V30.4828H25.174ZM35.0366 36.1102V39H32.9834V30.4828H36.3821C37.0334 30.4828 37.6086 30.6037 38.1078 30.8454C38.6108 31.0833 38.9989 31.4246 39.2719 31.8691C39.5487 32.3098 39.6872 32.811 39.6872 33.3725C39.6872 34.2032 39.3889 34.8681 38.7922 35.3673C38.1994 35.8626 37.3843 36.1102 36.347 36.1102H35.0366ZM35.0366 34.5249H36.3821C36.7799 34.5249 37.0821 34.4255 37.2888 34.2266C37.4994 34.0277 37.6047 33.7469 37.6047 33.3842C37.6047 32.9865 37.4974 32.6686 37.2829 32.4307C37.0685 32.1928 36.776 32.0719 36.4055 32.068H35.0366V34.5249ZM43.9517 35.9932H42.8402V39H40.7869V30.4828H44.1389C45.1489 30.4828 45.9386 30.707 46.508 31.1555C47.0774 31.604 47.3621 32.2377 47.3621 33.0566C47.3621 33.6494 47.2412 34.1408 46.9994 34.5308C46.7615 34.9208 46.3871 35.2367 45.8762 35.4784L47.6546 38.9123V39H45.455L43.9517 35.9932ZM42.8402 34.4079H44.1389C44.5288 34.4079 44.8213 34.3065 45.0163 34.1038C45.2152 33.8971 45.3147 33.6104 45.3147 33.2438C45.3147 32.8773 45.2152 32.5906 45.0163 32.3839C44.8174 32.1733 44.5249 32.068 44.1389 32.068H42.8402V34.4079ZM55.815 34.9169C55.815 35.7475 55.6609 36.4827 55.3528 37.1222C55.0447 37.7618 54.606 38.2551 54.0366 38.6022C53.4712 38.9454 52.8257 39.117 52.1004 39.117C51.375 39.117 50.7315 38.9513 50.17 38.6198C49.6084 38.2844 49.1696 37.8067 48.8538 37.1866C48.5418 36.5665 48.378 35.8548 48.3624 35.0514V34.5717C48.3624 33.7372 48.5145 33.0021 48.8187 32.3664C49.1267 31.7268 49.5655 31.2335 50.1349 30.8864C50.7081 30.5393 51.3594 30.3658 52.0887 30.3658C52.8101 30.3658 53.4536 30.5374 54.0191 30.8805C54.5846 31.2237 55.0233 31.7132 55.3353 32.3488C55.6512 32.9806 55.8111 33.706 55.815 34.5249V34.9169ZM53.7266 34.56C53.7266 33.7138 53.5843 33.0722 53.2996 32.6355C53.0188 32.1948 52.6152 31.9744 52.0887 31.9744C51.0591 31.9744 50.5151 32.7466 50.4566 34.2909L50.4507 34.9169C50.4507 35.7514 50.5892 36.393 50.8661 36.8414C51.143 37.2899 51.5544 37.5142 52.1004 37.5142C52.6191 37.5142 53.0188 37.2938 53.2996 36.8531C53.5804 36.4125 53.7227 35.7787 53.7266 34.952V34.56ZM60.0502 36.6835L61.7466 30.4828H64.0397L61.1733 39H58.927L56.0841 30.4828H58.3596L60.0502 36.6835ZM69.948 35.3907H66.7189V37.4206H70.5329V39H64.6656V30.4828H70.5446V32.068H66.7189V33.8639H69.948V35.3907ZM71.3695 39V30.4828H74.113C74.8657 30.4828 75.5423 30.6544 76.1429 30.9975C76.7434 31.3368 77.2114 31.8185 77.5468 32.4424C77.8861 33.0625 78.0577 33.7586 78.0616 34.5308V34.9227C78.0616 35.7027 77.8958 36.4027 77.5644 37.0228C77.2368 37.639 76.7727 38.1225 76.1721 38.4735C75.5754 38.8206 74.9086 38.9961 74.1715 39H71.3695ZM73.4227 32.068V37.4206H74.1364C74.7253 37.4206 75.1777 37.2119 75.4935 36.7946C75.8094 36.3735 75.9674 35.7495 75.9674 34.9227V34.5542C75.9674 33.7313 75.8094 33.1112 75.4935 32.694C75.1777 32.2767 74.7175 32.068 74.113 32.068H73.4227ZM24.1121 50.569H22.4741V55H19.4483V42.4483H24.3879C25.8764 42.4483 27.0402 42.7787 27.8793 43.4397C28.7184 44.1006 29.1379 45.0345 29.1379 46.2414C29.1379 47.1149 28.9598 47.8391 28.6035 48.4138C28.2529 48.9885 27.7012 49.454 26.9483 49.8103L29.569 54.8707V55H26.3276L24.1121 50.569ZM22.4741 48.2328H24.3879C24.9626 48.2328 25.3937 48.0833 25.681 47.7845C25.9741 47.4799 26.1207 47.0575 26.1207 46.5172C26.1207 45.977 25.9741 45.5546 25.681 45.25C25.3879 44.9397 24.9569 44.7845 24.3879 44.7845H22.4741V48.2328ZM38.75 49.681H33.9914V52.6724H39.6121V55H30.9655V42.4483H39.6293V44.7845H33.9914V47.431H38.75V49.681ZM51 50.75C50.9598 51.6236 50.7241 52.3966 50.2931 53.069C49.8621 53.7356 49.2558 54.2529 48.4741 54.6207C47.6983 54.9885 46.8103 55.1724 45.8103 55.1724C44.1609 55.1724 42.8621 54.6351 41.9138 53.5603C40.9655 52.4856 40.4914 50.9684 40.4914 49.0086V48.3879C40.4914 47.158 40.704 46.0833 41.1293 45.1638C41.5603 44.2385 42.1782 43.5259 42.9828 43.0259C43.7874 42.5201 44.7184 42.2672 45.7759 42.2672C47.2989 42.2672 48.523 42.6695 49.4483 43.4741C50.3736 44.273 50.8994 45.3764 51.0259 46.7845H48.0086C47.9856 46.0201 47.7931 45.4713 47.431 45.1379C47.069 44.8046 46.5172 44.6379 45.7759 44.6379C45.023 44.6379 44.4713 44.9195 44.1207 45.4828C43.7701 46.046 43.5862 46.9454 43.569 48.181V49.069C43.569 50.408 43.7356 51.3649 44.069 51.9397C44.408 52.5144 44.9885 52.8017 45.8103 52.8017C46.5058 52.8017 47.0374 52.6379 47.4052 52.3103C47.773 51.9828 47.9684 51.4626 47.9914 50.75H51ZM55.6552 55H52.6379V42.4483H55.6552V55ZM60.7845 50.7414V55H57.7586V42.4483H62.7672C63.727 42.4483 64.5747 42.6264 65.3103 42.9828C66.0517 43.3333 66.6236 43.8362 67.0259 44.4914C67.4339 45.1408 67.6379 45.8793 67.6379 46.7069C67.6379 47.931 67.1983 48.9109 66.319 49.6466C65.4454 50.3764 64.2443 50.7414 62.7155 50.7414H60.7845ZM60.7845 48.4052H62.7672C63.3535 48.4052 63.7989 48.2586 64.1035 47.9655C64.4138 47.6724 64.569 47.2586 64.569 46.7241C64.569 46.1379 64.4109 45.6695 64.0948 45.319C63.7787 44.9684 63.3477 44.7902 62.8017 44.7845H60.7845V48.4052ZM77.0431 49.681H72.2845V52.6724H77.9052V55H69.2586V42.4483H77.9224V44.7845H72.2845V47.431H77.0431V49.681Z" fill="white"/>
</g>
<defs>
<filter id="filter0_d" x="0" y="0" width="96" height="96" filterUnits="userSpaceOnUse" color-interpolation-filters="sRGB">
<feFlood flood-opacity="0" result="BackgroundImageFix"/>
<feColorMatrix in="SourceAlpha" type="matrix" values="0 0 0 0 0 0 0 0 0 0 0 0 0 0 0 0 0 0 127 0"/>
<feOffset dy="5"/>
<feGaussianBlur stdDeviation="5"/>
<feColorMatrix type="matrix" values="0 0 0 0 0 0 0 0 0 0 0 0 0 0 0 0 0 0 0.25 0"/>
<feBlend mode="normal" in2="BackgroundImageFix" result="effect1_dropShadow"/>
<feBlend mode="normal" in="SourceGraphic" in2="effect1_dropShadow" result="shape"/>
</filter>
<filter id="filter1_d" x="17.899" y="29.814" width="61.266" height="27.0135" filterUnits="userSpaceOnUse" color-interpolation-filters="sRGB">
<feFlood flood-opacity="0" result="BackgroundImageFix"/>
<feColorMatrix in="SourceAlpha" type="matrix" values="0 0 0 0 0 0 0 0 0 0 0 0 0 0 0 0 0 0 127 0"/>
<feOffset dy="0.551724"/>
<feGaussianBlur stdDeviation="0.551724"/>
<feColorMatrix type="matrix" values="0 0 0 0 0 0 0 0 0 0 0 0 0 0 0 0 0 0 0.2 0"/>
<feBlend mode="normal" in2="BackgroundImageFix" result="effect1_dropShadow"/>
<feBlend mode="normal" in="SourceGraphic" in2="effect1_dropShadow" result="shape"/>
</filter>
<linearGradient id="paint0_linear" x1="48" y1="5" x2="48" y2="81" gradientUnits="userSpaceOnUse">
<stop stop-color="#EBA129"/>
<stop offset="1" stop-color="#DC9117"/>
</linearGradient>
</defs>
</svg>
