<svg width="45" height="45" viewBox="0 0 45 45" fill="none" xmlns="http://www.w3.org/2000/svg">
<path fill-rule="evenodd" clip-rule="evenodd" d="M22.5 45C34.9264 45 45 34.9264 45 22.5C45 10.0736 34.9264 0 22.5 0C10.0736 0 0 10.0736 0 22.5C0 34.9264 10.0736 45 22.5 45ZM33.54 18.6404C34.446 17.7898 34.4909 16.3659 33.6404 15.46C32.7898 14.554 31.3659 14.5091 30.46 15.3596L19.2182 25.9138L14.54 21.5218C13.6341 20.6713 12.2102 20.7162 11.3596 21.6221C10.5091 22.5281 10.554 23.952 11.46 24.8025L19.2182 32.0862L33.54 18.6404Z" fill="url(#paint0_linear)"/>
<defs>
<linearGradient id="paint0_linear" x1="22.5" y1="0" x2="22.5" y2="45" gradientUnits="userSpaceOnUse">
<stop stop-color="#9EC44D"/>
<stop offset="1" stop-color="#7AB629"/>
</linearGradient>
</defs>
</svg>
