<svg id="Layer_1" data-name="Layer 1" xmlns="http://www.w3.org/2000/svg" viewBox="0 0 145 55">
    <defs>
        <style>.cls-1{fill:#009a98;}.cls-2{fill:#fff;}</style>
    </defs>
    <title>99c Loader</title>
    <path class="cls-1"
          d="M12.22,26.24c0-2.51,1-4.94,4-4.93a3.12,3.12,0,0,1,3.34,2.62l0,.15,7,0,0-.19c-.58-4.78-4-7.59-10.16-7.62C9.53,16.23,5,20.22,5,26.19c0,5.6,4.08,10,11.36,10,6.58,0,10.32-4,10.33-7.88v-.18l-7.06,0,0,.14c-.4,1.73-1.26,3-3.4,2.95C13.21,31.2,12.21,28.75,12.22,26.24ZM38,35.79l6.48,0,0-11.07c0-3.77-2.74-5.57-5.68-5.55A6.14,6.14,0,0,0,34,21L34,16l-6.48,0V35.82l6.48,0,0-8.56c0-2.41,1.26-2.85,2.21-2.85,1.56,0,1.8,1,1.81,2.9Zm13.06-10A2.65,2.65,0,0,1,54,23.54a2.41,2.41,0,0,1,2.47,2.24Zm0,3.55,11.63,0v-.2c0-6.26-2.84-9.86-9.29-9.84a8.35,8.35,0,0,0-8.57,8.6c0,5.41,4,8.46,9.17,8.44,3.68,0,7.1-1.64,8.36-5.18l.09-.27-6.07,0-.06.09a2.84,2.84,0,0,1-2.36,1A2.75,2.75,0,0,1,51.05,29.35Zm18.2-1.62c0-1.95.33-3.73,2.45-3.75a2.06,2.06,0,0,1,1.41.46,2,2,0,0,1,.61,1.36l0,.19,6.17,0,0-.22c-.4-4.51-4.1-6.58-8.33-6.56-4.88,0-8.8,3.44-8.78,8.57s4,8.49,8.86,8.47c4.37,0,7.87-2.5,8.45-6.93l0-.23-6.22,0v.19a2.24,2.24,0,0,1-2.15,2.15C69.62,31.44,69.27,29.68,69.25,27.73Zm22.57-2,5.86-6.24-7.43,0-3.55,4.24,0-7.75-6.48,0V35.8l6.48,0,0-4.7.83-.9,3.19,5.59,7.8,0Zm9.69-.11a2.65,2.65,0,0,1,2.87-2.27,2.41,2.41,0,0,1,2.47,2.24Zm0,3.55,11.63,0v-.2c0-6.26-2.84-9.86-9.29-9.84a8.35,8.35,0,0,0-8.57,8.6c0,5.41,4,8.46,9.17,8.44,3.68,0,7.1-1.64,8.36-5.18l.09-.27-6.07,0-.06.09a2.83,2.83,0,0,1-2.36,1A2.77,2.77,0,0,1,101.48,29.15Zm33.16-4.8,5.92,0v-.21c-.18-4.26-4.54-5.18-8-5.17-2.35,0-5.46.59-6.9,2.61V19.26l-.15,0A7.25,7.25,0,0,0,123.7,19a4.69,4.69,0,0,0-4.33,2.48V19.39l-6.24,0,.07,16.25,6.48,0,0-6.46c0-3.32,1.22-4.59,3.45-4.6a6.22,6.22,0,0,1,1.82.21c.27,2.5,2.33,3.85,6.67,4.57,2.89.49,3.18.75,3.18,1.47s-1,1-1.84,1a2.35,2.35,0,0,1-1.49-.4,1.77,1.77,0,0,1-.67-1.26V30l-6.19,0v.21c.12,4.27,4.42,5.77,8.18,5.75s8.3-1.22,8.27-5.82c0-2.72-1.9-4-4-4.6a21,21,0,0,0-3.09-.69c-.47-.08-.92-.15-1.31-.23a5.91,5.91,0,0,1-.93-.26c-.34-.15-.59-.32-.59-.63,0-.82.74-1,1.63-1a2,2,0,0,1,1.23.41,1.35,1.35,0,0,1,.63,1Z"/>
    <path class="cls-2"
          d="M27,7.77V9.54a.31.31,0,0,1-.31.31H20.19A.3.3,0,0,1,20,9.76a.31.31,0,0,1-.08-.22V.65A.31.31,0,0,1,20,.43a.3.3,0,0,1,.23-.09h2a.31.31,0,0,1,.31.31v6.5a.31.31,0,0,0,.08.22.3.3,0,0,0,.23.09h3.91a.31.31,0,0,1,.31.31Z"/>
    <path class="cls-2"
          d="M26.94,5.09a4.74,4.74,0,0,1,.39-1.91,5.09,5.09,0,0,1,1.05-1.57A4.94,4.94,0,0,1,29.94.56a4.87,4.87,0,0,1,3.82,0,5,5,0,0,1,2.63,2.63,4.74,4.74,0,0,1,.39,1.91A4.73,4.73,0,0,1,36.39,7a5,5,0,0,1-2.63,2.63,4.87,4.87,0,0,1-3.82,0,4.94,4.94,0,0,1-1.56-1.06A5.09,5.09,0,0,1,27.32,7,4.74,4.74,0,0,1,26.94,5.09Zm2.57,0a2.43,2.43,0,0,0,.18.94,2.53,2.53,0,0,0,.5.78,2.44,2.44,0,0,0,.75.54,2.15,2.15,0,0,0,1.82,0,2.52,2.52,0,0,0,.75-.54A2.47,2.47,0,0,0,34,6a2.48,2.48,0,0,0,0-1.87,2.38,2.38,0,0,0-.51-.78,2.57,2.57,0,0,0-.75-.53,2.15,2.15,0,0,0-1.82,0,2.5,2.5,0,0,0-.75.53,2.5,2.5,0,0,0-.68,1.71Z"/>
    <path class="cls-2"
          d="M40.42.64a.48.48,0,0,1,.18-.2.46.46,0,0,1,.27-.08h1.82a.45.45,0,0,1,.25.08.48.48,0,0,1,.18.2l3.8,8.84a.27.27,0,0,1,0,.25.29.29,0,0,1-.28.13H44.38a.46.46,0,0,1-.27-.08.59.59,0,0,1-.19-.2l-.35-.78a.6.6,0,0,0-.19-.2.45.45,0,0,0-.25-.08H40.39a.47.47,0,0,0-.27.08.49.49,0,0,0-.18.2l-.36.78a.48.48,0,0,1-.18.2.44.44,0,0,1-.25.08H36.92l-.14,0a.29.29,0,0,1-.12-.08.26.26,0,0,1-.06-.13.3.3,0,0,1,0-.18Zm.77,5.65h1.16a.21.21,0,0,0,.19-.08.18.18,0,0,0,0-.2l-.31-.76-.34-.81c0-.08-.07-.12-.12-.12s-.08,0-.12.12L41,6a.21.21,0,0,0,0,.2A.21.21,0,0,0,41.18,6.29Z"/>
    <path class="cls-2"
          d="M47.84,9.54V.65a.31.31,0,0,1,.31-.31H51.7A4.74,4.74,0,0,1,55,1.53a4.27,4.27,0,0,1,1.07,1.55,5.32,5.32,0,0,1,.36,2,5.37,5.37,0,0,1-.36,2A4.26,4.26,0,0,1,55,8.67a4.42,4.42,0,0,1-1.49.88,5.48,5.48,0,0,1-1.85.3H48.15a.31.31,0,0,1-.31-.31Zm2.89-2.08h1a3.32,3.32,0,0,0,.75-.09,1.72,1.72,0,0,0,.7-.34,1.86,1.86,0,0,0,.51-.71,3,3,0,0,0,.2-1.2,3,3,0,0,0-.2-1.2,1.83,1.83,0,0,0-.52-.72,1.78,1.78,0,0,0-.7-.34,3.24,3.24,0,0,0-.75-.09h-1a.31.31,0,0,0-.31.31V7.15a.31.31,0,0,0,.31.31Z"/>
    <path class="cls-2"
          d="M60.27,9.85h-2a.29.29,0,0,1-.23-.09A.31.31,0,0,1,58,9.54V.66a.31.31,0,0,1,.08-.22.29.29,0,0,1,.23-.09h2a.3.3,0,0,1,.22.09.3.3,0,0,1,.09.22V9.54a.3.3,0,0,1-.09.22A.3.3,0,0,1,60.27,9.85Z"/>
    <path class="cls-2"
          d="M71.26.65V9.54a.31.31,0,0,1-.31.31H69a.57.57,0,0,1-.27-.08.67.67,0,0,1-.22-.18L65.15,4.82c-.05-.07-.11-.1-.16-.08s-.08.06-.08.15V9.54a.31.31,0,0,1-.31.31H62.65a.31.31,0,0,1-.31-.31V.65a.31.31,0,0,1,.31-.31h2a.61.61,0,0,1,.27.07.61.61,0,0,1,.22.18l3.38,4.77a.17.17,0,0,0,.16.09c.06,0,.08-.06.08-.14V.65A.31.31,0,0,1,69,.34H71a.31.31,0,0,1,.31.31Z"/>
    <path class="cls-2"
          d="M77.79,10a4.89,4.89,0,0,1-2-.39,5.19,5.19,0,0,1-1.59-1.05A4.93,4.93,0,0,1,73.17,7a4.68,4.68,0,0,1-.4-1.91,4.67,4.67,0,0,1,.4-1.91,5,5,0,0,1,1.08-1.57A5.14,5.14,0,0,1,75.84.57a4.9,4.9,0,0,1,2-.39,5.07,5.07,0,0,1,2.49.58A4.77,4.77,0,0,1,82,2.38a.34.34,0,0,1-.1.44l-1.56,1a.34.34,0,0,1-.23,0,.36.36,0,0,1-.22-.12,3.45,3.45,0,0,0-.9-.79,2.28,2.28,0,0,0-1.19-.3,2.19,2.19,0,0,0-.93.2,2.5,2.5,0,0,0-.76.54,2.55,2.55,0,0,0-.51.79,2.4,2.4,0,0,0,0,1.87,2.48,2.48,0,0,0,.51.77,2.55,2.55,0,0,0,.76.53,2.19,2.19,0,0,0,.93.2,2.73,2.73,0,0,0,1-.18,1.59,1.59,0,0,0,.77-.6.17.17,0,0,0,0-.19.2.2,0,0,0-.18-.08H77.87a.31.31,0,0,1-.31-.31V4.64a.31.31,0,0,1,.31-.31h4.47a.34.34,0,0,1,.23.08.33.33,0,0,1,.11.23,4.66,4.66,0,0,1,0,.54,5.86,5.86,0,0,1,0,.66,4.41,4.41,0,0,1-.51,1.66,4.63,4.63,0,0,1-1.07,1.33A5.06,5.06,0,0,1,77.79,10Z"/>
    <path class="cls-2"
          d="M97,.71,93.74,6a1.56,1.56,0,0,0-.12.29,1,1,0,0,0-.05.3v3a.31.31,0,0,1-.31.31h-2A.31.31,0,0,1,91,9.54v-3a1.24,1.24,0,0,0,0-.31A1.05,1.05,0,0,0,90.84,6q-.78-1.34-1.59-2.63T87.63.71a.29.29,0,0,1,0-.24.16.16,0,0,1,.17-.12h2.31a.53.53,0,0,1,.27.08.52.52,0,0,1,.2.19L92.15,3.4a.17.17,0,0,0,.31,0L94,.62a.51.51,0,0,1,.2-.19.53.53,0,0,1,.27-.08h2.34A.21.21,0,0,1,97,.44C97.08.5,97.06.59,97,.71Z"/>
    <path class="cls-2"
          d="M96.73,5.09a4.74,4.74,0,0,1,.39-1.91,5.09,5.09,0,0,1,1.05-1.57A5,5,0,0,1,99.73.56a4.88,4.88,0,0,1,3.82,0,5,5,0,0,1,2.63,2.63,4.74,4.74,0,0,1,.39,1.91A4.74,4.74,0,0,1,106.18,7a5,5,0,0,1-2.63,2.63,4.88,4.88,0,0,1-3.82,0,5,5,0,0,1-1.56-1.06A5.09,5.09,0,0,1,97.12,7,4.74,4.74,0,0,1,96.73,5.09Zm2.57,0a2.44,2.44,0,0,0,.18.94,2.52,2.52,0,0,0,.5.78,2.43,2.43,0,0,0,.75.54,2.15,2.15,0,0,0,1.82,0,2.52,2.52,0,0,0,.75-.54,2.48,2.48,0,0,0,.51-.78,2.49,2.49,0,0,0,0-1.87,2.39,2.39,0,0,0-.51-.78,2.58,2.58,0,0,0-.75-.53,2.15,2.15,0,0,0-1.82,0,2.49,2.49,0,0,0-.75.53,2.42,2.42,0,0,0-.5.78A2.45,2.45,0,0,0,99.31,5.09Z"/>
    <path class="cls-2"
          d="M107.91.66A.31.31,0,0,1,108,.44a.3.3,0,0,1,.22-.09h2a.3.3,0,0,1,.22.09.3.3,0,0,1,.09.22V5.93a1.89,1.89,0,0,0,.16.84,1.46,1.46,0,0,0,.4.52,1.51,1.51,0,0,0,.52.27,1.62,1.62,0,0,0,1,0,1.44,1.44,0,0,0,.51-.27,1.51,1.51,0,0,0,.4-.52,1.9,1.9,0,0,0,.16-.84V.66a.3.3,0,0,1,.09-.22.3.3,0,0,1,.22-.09h2a.3.3,0,0,1,.22.09.3.3,0,0,1,.09.22V5.93a4.61,4.61,0,0,1-.29,1.68,3.58,3.58,0,0,1-.84,1.29,3.78,3.78,0,0,1-1.31.83,5.09,5.09,0,0,1-3.4,0,3.78,3.78,0,0,1-1.31-.83,3.66,3.66,0,0,1-.84-1.29,4.53,4.53,0,0,1-.3-1.68Z"/>
    <path class="cls-2"
          d="M120.43,9.85h-1.95a.3.3,0,0,1-.22-.09.3.3,0,0,1-.09-.22V.65a.31.31,0,0,1,.31-.31h4a3.73,3.73,0,0,1,1.39.25A3.14,3.14,0,0,1,125,1.3a3.28,3.28,0,0,1,.7,1.08A3.61,3.61,0,0,1,126,3.76a3.62,3.62,0,0,1-.38,1.6,3.32,3.32,0,0,1-.43.66,2.39,2.39,0,0,1-.56.49.36.36,0,0,0-.14.19.23.23,0,0,0,0,.21l1,1.34q.55.69,1,1.26a.24.24,0,0,1,0,.23.16.16,0,0,1-.17.12H124a.65.65,0,0,1-.28-.07.6.6,0,0,1-.23-.18l-.82-1.1-.81-1.13a.68.68,0,0,0-.49-.25h-.28a.3.3,0,0,0-.22.09.3.3,0,0,0-.09.22V9.54a.3.3,0,0,1-.09.22A.3.3,0,0,1,120.43,9.85Zm.62-5.12h1.37a1,1,0,0,0,.32-.06,1,1,0,0,0,.31-.18,1,1,0,0,0,.23-.31,1,1,0,0,0,.09-.43,1.24,1.24,0,0,0,0-.31,1.09,1.09,0,0,0-.16-.34.91.91,0,0,0-.3-.27.89.89,0,0,0-.46-.11h-1.37a.3.3,0,0,0-.22.09.3.3,0,0,0-.09.22V4.42a.3.3,0,0,0,.09.22A.3.3,0,0,0,121.05,4.73Z"/>
    <path class="cls-2"
          d="M31.78,46.74v.55a.31.31,0,0,0,.31.31h3.52a.31.31,0,0,1,.31.31v1.79a.31.31,0,0,1-.31.31H32.09a.31.31,0,0,0-.31.31v.49a.31.31,0,0,0,.31.31h4a.31.31,0,0,1,.31.31v1.79a.31.31,0,0,1-.31.31H29.52a.31.31,0,0,1-.31-.31V44.35a.31.31,0,0,1,.31-.31h6.62a.31.31,0,0,1,.31.31v1.77a.31.31,0,0,1-.31.31h-4a.31.31,0,0,0-.31.31Z"/>
    <path class="cls-2"
          d="M40.46,48.6,37.2,44.42a.25.25,0,0,1,0-.23.16.16,0,0,1,.17-.13h2.5a.57.57,0,0,1,.27.08.67.67,0,0,1,.22.18l1.63,2.38a.21.21,0,0,0,.36,0q.42-.58.83-1.2l.8-1.19a.68.68,0,0,1,.49-.25h2.48a.16.16,0,0,1,.18.13.28.28,0,0,1-.05.23L43.8,48.6a.43.43,0,0,0,0,.49L47,53.18a.25.25,0,0,1,0,.24.17.17,0,0,1-.18.14H44.36a.57.57,0,0,1-.27-.08.67.67,0,0,1-.22-.18L42.31,51a.21.21,0,0,0-.36,0L40.38,53.3a.67.67,0,0,1-.22.18.58.58,0,0,1-.27.08H37.42a.17.17,0,0,1-.17-.14.26.26,0,0,1,0-.24l3.17-4.08a.43.43,0,0,0,0-.49Z"/>
    <path class="cls-2"
          d="M51.9,51H50.77a.31.31,0,0,0-.31.31v1.94a.3.3,0,0,1-.09.22.3.3,0,0,1-.22.09h-2a.3.3,0,0,1-.22-.09.3.3,0,0,1-.09-.22V44.35A.31.31,0,0,1,48.2,44h4a3.48,3.48,0,0,1,1.37.27,3.44,3.44,0,0,1,1.12.75,3.68,3.68,0,0,1,.75,1.12,3.37,3.37,0,0,1,.28,1.37,3.87,3.87,0,0,1-.23,1.36A2.93,2.93,0,0,1,54.75,50a3.37,3.37,0,0,1-1.19.73A4.72,4.72,0,0,1,51.9,51Zm.1-4.56H50.77a.3.3,0,0,0-.22.09.29.29,0,0,0-.09.22v1.53a.3.3,0,0,0,.09.22.31.31,0,0,0,.22.09h1.4a.83.83,0,0,0,.73-.32,1.22,1.22,0,0,0,.16-1.12,1,1,0,0,0-.22-.36,1.11,1.11,0,0,0-.35-.25A1.14,1.14,0,0,0,52,46.43Z"/>
    <path class="cls-2"
          d="M59.27,46.74v.55a.31.31,0,0,0,.31.31h3.52a.31.31,0,0,1,.31.31v1.79a.31.31,0,0,1-.31.31H59.58a.31.31,0,0,0-.31.31v.49a.31.31,0,0,0,.31.31h4a.31.31,0,0,1,.31.31v1.79a.31.31,0,0,1-.31.31H57a.31.31,0,0,1-.31-.31V44.35A.31.31,0,0,1,57,44h6.62a.31.31,0,0,1,.31.31v1.77a.31.31,0,0,1-.31.31h-4a.31.31,0,0,0-.31.31Z"/>
    <path class="cls-2"
          d="M67.86,53.56H65.92a.31.31,0,0,1-.31-.31V44.35a.3.3,0,0,1,.09-.22.3.3,0,0,1,.22-.09h4a3.73,3.73,0,0,1,1.39.25,3.13,3.13,0,0,1,1.09.71,3.26,3.26,0,0,1,.7,1.08,3.63,3.63,0,0,1,.25,1.38,3.53,3.53,0,0,1-.1.83,3.63,3.63,0,0,1-.28.77,3.34,3.34,0,0,1-.43.66,2.37,2.37,0,0,1-.56.49.36.36,0,0,0-.14.19.23.23,0,0,0,0,.21l1,1.34q.55.69,1,1.26a.24.24,0,0,1,0,.23.16.16,0,0,1-.17.12H71.4a.66.66,0,0,1-.28-.07.61.61,0,0,1-.23-.18l-.82-1.11-.81-1.13a.68.68,0,0,0-.49-.25h-.28a.3.3,0,0,0-.22.09.3.3,0,0,0-.09.22v2.11a.31.31,0,0,1-.31.31Zm.62-5.12h1.37a1,1,0,0,0,.32-.06,1,1,0,0,0,.31-.18,1,1,0,0,0,.23-.31,1,1,0,0,0,.09-.43,1.26,1.26,0,0,0,0-.3,1.1,1.1,0,0,0-.16-.34.91.91,0,0,0-.3-.27.9.9,0,0,0-.46-.11H68.49a.31.31,0,0,0-.31.31v1.38a.31.31,0,0,0,.31.31Z"/>
    <path class="cls-2"
          d="M77.32,53.56h-2a.29.29,0,0,1-.23-.09.31.31,0,0,1-.08-.22V44.36a.31.31,0,0,1,.08-.22.29.29,0,0,1,.23-.09h2a.31.31,0,0,1,.31.31v8.88a.31.31,0,0,1-.31.31Z"/>
    <path class="cls-2"
          d="M81.93,46.74v.55a.31.31,0,0,0,.31.31h3.52a.31.31,0,0,1,.31.31v1.79a.31.31,0,0,1-.31.31H82.24a.31.31,0,0,0-.31.31v.49a.31.31,0,0,0,.31.31h4a.31.31,0,0,1,.31.31v1.79a.31.31,0,0,1-.31.31H79.67a.31.31,0,0,1-.31-.31V44.35a.31.31,0,0,1,.31-.31h6.62a.31.31,0,0,1,.31.31v1.77a.31.31,0,0,1-.31.31h-4a.31.31,0,0,0-.31.31Z"/>
    <path class="cls-2"
          d="M97.19,44.35v8.89a.31.31,0,0,1-.31.31H95a.58.58,0,0,1-.27-.08.67.67,0,0,1-.22-.18l-3.39-4.77c-.05-.07-.11-.1-.16-.08s-.08.06-.08.15v4.65a.31.31,0,0,1-.31.31H88.58a.31.31,0,0,1-.31-.31V44.35a.3.3,0,0,1,.09-.22.3.3,0,0,1,.22-.09h1.95a.61.61,0,0,1,.27.07.6.6,0,0,1,.22.17l3.38,4.77c.05.07.11.1.16.09s.08-.06.08-.14V44.35a.3.3,0,0,1,.09-.22A.3.3,0,0,1,95,44h1.92a.31.31,0,0,1,.31.31Z"/>
    <path class="cls-2"
          d="M108.33,51a7.39,7.39,0,0,1-.83,1.11,4.72,4.72,0,0,1-1,.85,4.87,4.87,0,0,1-1.25.54,5.63,5.63,0,0,1-1.52.19,4.88,4.88,0,0,1-1.95-.39,5.18,5.18,0,0,1-1.59-1.05,4.83,4.83,0,0,1-1.07-1.56,4.87,4.87,0,0,1,0-3.82,4.83,4.83,0,0,1,1.07-1.56,5.21,5.21,0,0,1,1.59-1.05,4.9,4.9,0,0,1,1.95-.39,5.64,5.64,0,0,1,1.55.2,4.75,4.75,0,0,1,1.25.55,4.68,4.68,0,0,1,1,.85,8.07,8.07,0,0,1,.83,1.1.25.25,0,0,1,0,.22.27.27,0,0,1-.16.17l-1.85.73a.33.33,0,0,1-.26,0,.39.39,0,0,1-.2-.16,2.75,2.75,0,0,0-.91-.92,2.47,2.47,0,0,0-1.29-.32,2.11,2.11,0,0,0-.93.21,2.51,2.51,0,0,0-1.27,1.36,2.52,2.52,0,0,0,0,1.88,2.45,2.45,0,0,0,.51.79,2.59,2.59,0,0,0,.76.55,2.11,2.11,0,0,0,.93.21A2.48,2.48,0,0,0,105,51a2.64,2.64,0,0,0,.92-.89.4.4,0,0,1,.19-.16.33.33,0,0,1,.25,0l1.85.73a.27.27,0,0,1,.16.16A.26.26,0,0,1,108.33,51Z"/>
    <path class="cls-2"
          d="M111.87,46.74v.55a.31.31,0,0,0,.31.31h3.52a.31.31,0,0,1,.31.31v1.79a.31.31,0,0,1-.31.31h-3.52a.31.31,0,0,0-.31.31v.49a.31.31,0,0,0,.31.31h4a.31.31,0,0,1,.31.31v1.79a.31.31,0,0,1-.31.31h-6.62a.31.31,0,0,1-.31-.31V44.35a.31.31,0,0,1,.31-.31h6.62a.31.31,0,0,1,.31.31v1.77a.31.31,0,0,1-.31.31h-4a.31.31,0,0,0-.31.31Z"/>
</svg>
