<svg width="136" height="21" viewBox="0 0 136 21" fill="none" xmlns="http://www.w3.org/2000/svg">
<path d="M7.22081 10.2402C7.23262 7.7271 8.26078 5.29624 11.2507 5.30798C13.8979 5.31972 14.477 7.25737 14.5951 7.92674L14.6188 8.0794L21.6504 8.12637L21.6268 7.93848C21.0477 3.15895 17.6323 0.352299 11.4634 0.31707C4.52634 0.234866 0.0355552 4.21585 0.000101608 10.1932C-0.0235341 15.7948 4.07726 20.175 11.3571 20.222C17.9396 20.269 21.674 16.2058 21.6859 12.3422V12.1661L14.6306 12.1191L14.5951 12.26C14.1933 13.9863 13.3306 15.2193 11.1916 15.2076C8.21351 15.1959 7.20899 12.7532 7.22081 10.2402ZM33.031 19.7875L39.5072 19.764L39.4599 8.69005C39.4481 4.92045 36.7182 3.12372 33.7755 3.13547C31.3765 3.14721 29.9938 3.91052 28.9538 5.00265L29.0129 0.0234866L22.5367 0.0469733L22.5486 19.8227L29.0247 19.7992L28.9893 11.2384C28.9775 8.83097 30.2538 8.38473 31.1992 8.38473C32.7592 8.37298 32.9955 9.42988 33.0074 11.2853L33.031 19.7875ZM46.0897 9.80567C46.397 8.33775 47.3424 7.55095 48.9614 7.53921C50.3323 7.53921 51.325 8.5139 51.4314 9.78218L46.0897 9.80567ZM46.0543 13.3521L57.683 13.3052V13.1055C57.6594 6.84635 54.8467 3.24115 48.3942 3.26464C43.2416 3.28813 39.8026 7.15168 39.8263 11.8607C39.8499 17.2744 43.8089 20.3159 48.9969 20.3042C52.6723 20.2924 56.0994 18.6601 57.3521 15.1254L57.4467 14.8553L51.3723 14.8788L51.3132 14.9727C50.8759 15.6538 49.8951 16.0179 48.9496 16.0179C47.236 16.0296 46.267 14.961 46.0543 13.3521ZM64.2537 11.7316C64.2419 9.78218 64.5846 7.9972 66.7 7.98545C67.3028 7.98545 67.7755 8.14986 68.1064 8.44344C68.4491 8.73703 68.6618 9.19502 68.7209 9.80567L68.7445 9.99356L74.9134 9.97007L74.8898 9.74695C74.488 5.23752 70.789 3.1707 66.5582 3.18244C61.6775 3.20593 57.7539 6.62323 57.7776 11.7551C57.8012 16.8869 61.7484 20.2455 66.641 20.222C71.0136 20.1985 74.5116 17.7207 75.0907 13.2934L75.1262 13.0586L68.91 13.0821L68.8982 13.2699C68.7918 14.4443 67.9409 15.4072 66.7473 15.419C64.6201 15.4425 64.2656 13.681 64.2537 11.7316ZM86.8258 9.71172L92.6875 3.47602L85.2541 3.51125L81.7087 7.75059L81.7442 0L75.268 0.0234866L75.2798 19.7992L81.756 19.7757L81.7323 15.0784L82.5596 14.1742L85.7504 19.764L93.5502 19.7288L86.8258 9.71172ZM96.5165 9.60603C96.8237 8.13812 97.7692 7.35132 99.3882 7.33957C100.759 7.33957 101.752 8.31427 101.858 9.58255L96.5165 9.60603ZM96.481 13.1525L108.11 13.1055V12.9059C108.086 6.64672 105.273 3.04152 98.821 3.06501C93.6684 3.08849 90.2294 6.95204 90.253 11.6611C90.2766 17.0748 94.2356 20.1163 99.4237 20.1046C103.099 20.0928 106.526 18.4605 107.779 14.9258L107.873 14.6557L101.799 14.6791L101.74 14.7731C101.303 15.4542 100.322 15.8182 99.3764 15.8182C97.6746 15.83 96.7056 14.7496 96.481 13.1525ZM129.642 8.3495L135.563 8.32601L135.551 8.11463C135.374 3.85181 131.013 2.93583 127.597 2.94757C125.246 2.95932 122.138 3.53474 120.696 5.55459L120.684 3.26464L120.53 3.22941C119.939 3.07675 119.337 2.9828 118.699 2.9828C116.63 2.99455 115.342 3.87529 114.373 5.46064L114.361 3.39382L108.122 3.4173L108.193 19.6701L114.669 19.6466L114.645 13.1877C114.633 9.86439 115.862 8.59611 118.096 8.58436C118.959 8.58436 119.467 8.66657 119.916 8.79574C120.188 11.2971 122.244 12.6476 126.581 13.3639C129.476 13.8571 129.76 14.1155 129.76 14.8318C129.76 15.5247 128.756 15.8535 127.916 15.8535C127.207 15.8535 126.676 15.6773 126.427 15.4542C126.002 15.0902 125.789 14.6791 125.754 14.1977L125.742 14.0098L119.549 14.0333V14.2446C119.668 18.5192 123.969 20.0106 127.727 19.9989C131.58 19.9871 136.024 18.7776 136 14.1742C135.988 11.4497 134.097 10.2167 132.041 9.5708C131.013 9.23025 129.926 9.04235 128.956 8.87795C128.484 8.79574 128.035 8.72528 127.645 8.64308C127.255 8.56088 126.947 8.47867 126.711 8.38473C126.368 8.23206 126.12 8.06766 126.12 7.75059C126.12 6.92856 126.865 6.72892 127.751 6.72892C128.2 6.72892 128.649 6.86984 128.98 7.13994C129.335 7.38655 129.583 7.73884 129.606 8.17335L129.642 8.3495Z" fill="#009A98"/>
</svg>
