<svg width="60" height="60" viewBox="0 0 60 60" fill="none" xmlns="http://www.w3.org/2000/svg">
<path fill-rule="evenodd" clip-rule="evenodd" d="M60 0H0V60H60V0ZM18.4393 18.4393C19.0251 17.8536 19.9749 17.8536 20.5607 18.4393L30 27.8787L39.4393 18.4393C40.0251 17.8536 40.9749 17.8536 41.5607 18.4393C42.1464 19.0251 42.1464 19.9749 41.5607 20.5607L32.1213 30L41.5607 39.4393C42.1464 40.0251 42.1464 40.9749 41.5607 41.5607C40.9749 42.1464 40.0251 42.1464 39.4393 41.5607L30 32.1213L20.5607 41.5607C19.9749 42.1464 19.0251 42.1464 18.4393 41.5607C17.8536 40.9749 17.8536 40.0251 18.4393 39.4393L27.8787 30L18.4393 20.5607C17.8536 19.9749 17.8536 19.0251 18.4393 18.4393Z" fill="#333333"/>
</svg>
