<svg width="26" height="26" viewBox="0 0 26 26" fill="none" xmlns="http://www.w3.org/2000/svg">
<rect width="26" height="26" rx="13" fill="#009A98"/>
<path fill-rule="evenodd" clip-rule="evenodd" d="M11.3242 15.4854C11.3242 14.7033 11.3185 13.9212 11.3299 13.139C11.3299 13.0065 11.2844 12.9667 11.114 12.9711C10.8015 12.98 10.489 12.9711 10.1709 12.9755C10.0459 12.98 9.99474 12.949 10.0004 12.8474C10.0061 12.3613 10.0061 11.8708 10.0004 11.3848C10.0004 11.292 10.0345 11.2611 10.1595 11.2611C10.4777 11.2655 10.8015 11.2522 11.1197 11.2655C11.3071 11.2743 11.3412 11.2213 11.3412 11.0887C11.3299 10.7175 11.3299 10.3464 11.3412 9.97519C11.3526 9.52006 11.5117 9.09586 11.8582 8.7291C12.29 8.25629 12.915 8.04419 13.6365 8.01768C14.3751 7.99116 15.1194 8.00442 15.8636 8C15.9659 8 16 8.02651 16 8.10605C15.9943 8.60095 15.9943 9.09144 16 9.58634C16 9.67471 15.9659 9.70123 15.8523 9.70123C15.4944 9.69681 15.1364 9.70123 14.7842 9.70123C14.3069 9.70123 14.0229 9.89123 13.9945 10.258C13.9717 10.5496 13.9888 10.8457 13.9774 11.1417C13.9717 11.2478 14.057 11.239 14.1422 11.239C14.6819 11.239 15.2273 11.2434 15.7671 11.2345C15.9261 11.2345 15.9773 11.2611 15.9602 11.3892C15.8921 11.8797 15.8352 12.3702 15.7784 12.8651C15.7671 12.9755 15.6989 12.9976 15.5739 12.9976C15.1478 12.9932 14.716 12.9932 14.2899 12.9976C13.9831 12.9976 14.0115 12.9623 14.0115 13.2053C14.0115 14.7386 14.0058 16.2675 14.0172 17.8008C14.0172 17.9643 13.9661 18.0041 13.7615 17.9997C13.0286 17.9908 12.29 17.9908 11.5571 17.9997C11.3526 18.0041 11.3185 17.9467 11.3185 17.8053C11.3242 17.0275 11.3242 16.2543 11.3242 15.4854Z" fill="white"/>
</svg>
