<svg width="70" height="70" viewBox="0 0 70 70" fill="none" xmlns="http://www.w3.org/2000/svg">
    <g filter="url(#filter0_d)">
        <circle cx="35" cy="33" r="30" fill="url(#paint0_linear)"/>
    </g>
    <g filter="url(#filter1_d)">
        <path d="M29.4775 38H27.4268L23.4346 31.4512V38H21.3838V28.0469H23.4346L27.4336 34.6094V28.0469H29.4775V38ZM37.2568 33.6865H33.3193V36.3525H37.9404V38H31.2686V28.0469H37.9268V29.708H33.3193V32.0801H37.2568V33.6865ZM46.8955 35.1289L48.2354 28.0469H50.2793L48.0713 38H46.0068L44.3867 31.3418L42.7666 38H40.7021L38.4941 28.0469H40.5381L41.8848 35.1152L43.5254 28.0469H45.2617L46.8955 35.1289Z"
              fill="white"/>
    </g>
    <defs>
        <filter id="filter0_d" x="0" y="0" width="70" height="70" filterUnits="userSpaceOnUse"
                color-interpolation-filters="sRGB">
            <feFlood flood-opacity="0" result="BackgroundImageFix"/>
            <feColorMatrix in="SourceAlpha" type="matrix" values="0 0 0 0 0 0 0 0 0 0 0 0 0 0 0 0 0 0 127 0"/>
            <feOffset dy="2"/>
            <feGaussianBlur stdDeviation="2.5"/>
            <feColorMatrix type="matrix" values="0 0 0 0 0 0 0 0 0 0 0 0 0 0 0 0 0 0 0.13 0"/>
            <feBlend mode="normal" in2="BackgroundImageFix" result="effect1_dropShadow"/>
            <feBlend mode="normal" in="SourceGraphic" in2="effect1_dropShadow" result="shape"/>
        </filter>
        <filter id="filter1_d" x="20.8838" y="28.0469" width="29.8955" height="10.9531" filterUnits="userSpaceOnUse"
                color-interpolation-filters="sRGB">
            <feFlood flood-opacity="0" result="BackgroundImageFix"/>
            <feColorMatrix in="SourceAlpha" type="matrix" values="0 0 0 0 0 0 0 0 0 0 0 0 0 0 0 0 0 0 127 0"/>
            <feOffset dy="0.5"/>
            <feGaussianBlur stdDeviation="0.25"/>
            <feColorMatrix type="matrix" values="0 0 0 0 0 0 0 0 0 0 0 0 0 0 0 0 0 0 0.2 0"/>
            <feBlend mode="normal" in2="BackgroundImageFix" result="effect1_dropShadow"/>
            <feBlend mode="normal" in="SourceGraphic" in2="effect1_dropShadow" result="shape"/>
        </filter>
        <linearGradient id="paint0_linear" x1="35" y1="3" x2="35" y2="63" gradientUnits="userSpaceOnUse">
            <stop stop-color="#9EC44D"/>
            <stop offset="1" stop-color="#7AB629"/>
        </linearGradient>
    </defs>
</svg>
