<svg width="26" height="26" viewBox="0 0 26 26" fill="none" xmlns="http://www.w3.org/2000/svg">
<rect width="26" height="26" rx="13" fill="#009A98"/>
<path fill-rule="evenodd" clip-rule="evenodd" d="M12.9978 8.90072C14.3322 8.90072 14.4899 8.90511 15.018 8.92921C15.5044 8.95113 15.7695 9.03222 15.947 9.10234C16.1792 9.1922 16.3457 9.30178 16.521 9.4771C16.6963 9.65242 16.8037 9.81898 16.8957 10.0513C16.9636 10.2266 17.0447 10.4918 17.0688 10.9805C17.0929 11.5087 17.0973 11.6664 17.0973 13.0011C17.0973 14.3357 17.0929 14.4935 17.0688 15.0217C17.0469 15.5082 16.9658 15.7734 16.8957 15.9509C16.8059 16.1832 16.6963 16.3498 16.521 16.5251C16.3457 16.7004 16.1792 16.8078 15.947 16.8998C15.7717 16.9678 15.5066 17.0489 15.018 17.073C14.4899 17.0971 14.3322 17.1015 12.9978 17.1015C11.6635 17.1015 11.5057 17.0971 10.9777 17.073C10.4912 17.0511 10.2261 16.97 10.0486 16.8998C9.81639 16.81 9.64987 16.7004 9.47458 16.5251C9.2993 16.3498 9.19194 16.1832 9.09991 15.9509C9.03199 15.7756 8.95092 15.5104 8.92682 15.0217C8.90272 14.4935 8.89833 14.3357 8.89833 13.0011C8.89833 11.6664 8.90272 11.5087 8.92682 10.9805C8.94873 10.494 9.0298 10.2288 9.09991 10.0513C9.18975 9.81898 9.2993 9.65242 9.47458 9.4771C9.64987 9.30178 9.81639 9.19439 10.0486 9.10234C10.2239 9.03441 10.489 8.95332 10.9777 8.92921C11.5057 8.90511 11.6635 8.90072 12.9978 8.90072ZM12.9978 8C11.6394 8 11.4706 8.00657 10.936 8.03068C10.4036 8.05479 10.0399 8.14026 9.72217 8.26298C9.39351 8.39009 9.11525 8.56103 8.83699 8.83936C8.56091 9.11769 8.39001 9.39601 8.26293 9.72474C8.14023 10.0425 8.05478 10.4063 8.03067 10.9389C8.00657 11.4714 8 11.6423 8 12.9989C8 14.3577 8.00657 14.5264 8.03067 15.0611C8.05478 15.5937 8.14023 15.9575 8.26293 16.2753C8.39001 16.604 8.56091 16.8823 8.83918 17.1606C9.11744 17.439 9.39571 17.6099 9.72436 17.737C10.0421 17.8597 10.4058 17.9452 10.9382 17.9693C11.4706 17.9934 11.6415 18 13 18C14.3585 18 14.5272 17.9934 15.0618 17.9693C15.5942 17.9452 15.9579 17.8597 16.2756 17.737C16.6043 17.6099 16.8826 17.439 17.1608 17.1606C17.4391 16.8823 17.61 16.604 17.7371 16.2753C17.8598 15.9575 17.9452 15.5937 17.9693 15.0611C17.9934 14.5286 18 14.3577 18 12.9989C18 11.6401 17.9934 11.4714 17.9693 10.9367C17.9452 10.4041 17.8598 10.0403 17.7371 9.72255C17.61 9.39382 17.4391 9.11549 17.1608 8.83717C16.8826 8.55884 16.6043 8.3879 16.2756 8.26079C15.9579 8.13807 15.5942 8.0526 15.0618 8.02849C14.5272 8.00657 14.3563 8 12.9978 8ZM16.1818 10.2727C16.1818 10.5232 15.9778 10.7273 15.7273 10.7273C15.4768 10.7273 15.2727 10.5232 15.2727 10.2727C15.2727 10.0222 15.4768 9.81818 15.7273 9.81818C15.9778 9.81818 16.1818 10.0206 16.1818 10.2727ZM14.3636 13C14.3636 13.7531 13.7531 14.3636 13 14.3636C12.2469 14.3636 11.6364 13.7531 11.6364 13C11.6364 12.2469 12.2469 11.6364 13 11.6364C13.7531 11.6364 14.3636 12.2469 14.3636 13ZM15.2727 13C15.2727 14.2552 14.2552 15.2727 13 15.2727C11.7448 15.2727 10.7273 14.2552 10.7273 13C10.7273 11.7448 11.7448 10.7273 13 10.7273C14.2552 10.7273 15.2727 11.7448 15.2727 13Z" fill="white"/>
</svg>
