<svg width="877" height="404" viewBox="0 0 877 404" fill="none" xmlns="http://www.w3.org/2000/svg">
<g filter="url(#filter0_d)">
<path d="M46.5547 388V358.141H56.1729C58.8115 358.141 61.1836 358.742 63.2891 359.945C65.3945 361.135 67.0352 362.823 68.2109 365.011C69.4004 367.185 70.002 369.625 70.0156 372.332V373.706C70.0156 376.44 69.4346 378.895 68.2725 381.068C67.124 383.229 65.4971 384.924 63.3916 386.154C61.2998 387.371 58.9619 387.986 56.3779 388H46.5547ZM53.7529 363.698V382.463H56.2549C58.3193 382.463 59.9053 381.731 61.0127 380.269C62.1201 378.792 62.6738 376.604 62.6738 373.706V372.414C62.6738 369.529 62.1201 367.355 61.0127 365.893C59.9053 364.43 58.292 363.698 56.1729 363.698H53.7529ZM92.2256 375.347H80.9053V382.463H94.2764V388H73.707V358.141H94.3174V363.698H80.9053V369.994H92.2256V375.347ZM108.796 379.879L114.743 358.141H122.782L112.733 388H104.858L94.8916 358.141H102.869L108.796 379.879ZM143.495 375.347H132.175V382.463H145.546V388H124.977V358.141H145.587V363.698H132.175V369.994H143.495V375.347ZM155.677 382.463H168.207V388H148.479V358.141H155.677V382.463ZM195.216 373.686C195.216 376.598 194.676 379.175 193.596 381.417C192.516 383.659 190.978 385.389 188.981 386.605C186.999 387.809 184.736 388.41 182.193 388.41C179.65 388.41 177.395 387.829 175.426 386.667C173.457 385.491 171.919 383.816 170.812 381.643C169.718 379.469 169.144 376.974 169.089 374.157V372.476C169.089 369.55 169.622 366.973 170.688 364.744C171.769 362.502 173.307 360.772 175.303 359.556C177.312 358.339 179.596 357.73 182.152 357.73C184.682 357.73 186.938 358.332 188.92 359.535C190.902 360.738 192.44 362.454 193.534 364.683C194.642 366.897 195.202 369.44 195.216 372.312V373.686ZM187.895 372.435C187.895 369.468 187.396 367.219 186.397 365.688C185.413 364.143 183.998 363.37 182.152 363.37C178.543 363.37 176.636 366.077 176.431 371.491L176.41 373.686C176.41 376.611 176.896 378.86 177.866 380.433C178.837 382.005 180.279 382.791 182.193 382.791C184.012 382.791 185.413 382.019 186.397 380.474C187.382 378.929 187.881 376.707 187.895 373.809V372.435ZM206.126 377.869V388H198.928V358.141H210.843C213.126 358.141 215.143 358.564 216.893 359.412C218.656 360.246 220.017 361.442 220.974 363.001C221.944 364.546 222.43 366.303 222.43 368.271C222.43 371.184 221.384 373.515 219.292 375.265C217.214 377.001 214.356 377.869 210.72 377.869H206.126ZM206.126 372.312H210.843C212.237 372.312 213.297 371.963 214.021 371.266C214.76 370.568 215.129 369.584 215.129 368.312C215.129 366.918 214.753 365.804 214.001 364.97C213.249 364.136 212.224 363.712 210.925 363.698H206.126V372.312ZM244.804 375.347H233.483V382.463H246.854V388H226.285V358.141H246.896V363.698H233.483V369.994H244.804V375.347ZM249.787 388V358.141H259.405C262.044 358.141 264.416 358.742 266.521 359.945C268.627 361.135 270.268 362.823 271.443 365.011C272.633 367.185 273.234 369.625 273.248 372.332V373.706C273.248 376.44 272.667 378.895 271.505 381.068C270.356 383.229 268.729 384.924 266.624 386.154C264.532 387.371 262.194 387.986 259.61 388H249.787ZM256.985 363.698V382.463H259.487C261.552 382.463 263.138 381.731 264.245 380.269C265.353 378.792 265.906 376.604 265.906 373.706V372.414C265.906 369.529 265.353 367.355 264.245 365.893C263.138 364.43 261.524 363.698 259.405 363.698H256.985ZM287.398 388V358.141H298.124C301.966 358.141 304.885 358.845 306.881 360.253C308.891 361.661 309.896 363.705 309.896 366.385C309.896 367.93 309.54 369.249 308.829 370.343C308.118 371.437 307.072 372.243 305.691 372.763C307.25 373.173 308.446 373.938 309.28 375.06C310.114 376.181 310.531 377.548 310.531 379.161C310.531 382.087 309.602 384.288 307.742 385.765C305.896 387.228 303.155 387.973 299.519 388H287.398ZM294.597 375.306V382.463H299.313C300.612 382.463 301.61 382.169 302.308 381.581C303.005 380.979 303.354 380.139 303.354 379.059C303.354 376.57 302.116 375.319 299.642 375.306H294.597ZM294.597 370.589H298.35C299.922 370.575 301.043 370.288 301.713 369.728C302.383 369.167 302.718 368.34 302.718 367.246C302.718 365.988 302.355 365.086 301.631 364.539C300.906 363.979 299.737 363.698 298.124 363.698H294.597V370.589ZM324.292 371.102L329.788 358.141H337.561L327.942 377.274V388H320.642V377.274L311.044 358.141H318.775L324.292 371.102ZM374.352 377.89C374.256 379.968 373.695 381.807 372.67 383.406C371.645 384.992 370.202 386.223 368.343 387.098C366.497 387.973 364.385 388.41 362.006 388.41C358.082 388.41 354.992 387.132 352.736 384.575C350.48 382.019 349.353 378.409 349.353 373.747V372.271C349.353 369.345 349.858 366.788 350.87 364.601C351.896 362.399 353.365 360.704 355.279 359.515C357.193 358.312 359.408 357.71 361.924 357.71C365.547 357.71 368.459 358.667 370.66 360.581C372.861 362.481 374.112 365.106 374.413 368.456H367.235C367.181 366.638 366.723 365.332 365.861 364.539C365 363.746 363.688 363.35 361.924 363.35C360.133 363.35 358.82 364.02 357.986 365.359C357.152 366.699 356.715 368.839 356.674 371.778V373.891C356.674 377.076 357.07 379.353 357.863 380.72C358.67 382.087 360.051 382.771 362.006 382.771C363.66 382.771 364.925 382.381 365.8 381.602C366.675 380.822 367.14 379.585 367.194 377.89H374.352ZM402.714 388H395.557V375.531H384.954V388H377.756V358.141H384.954V369.994H395.557V358.141H402.714V388ZM425.806 375.347H414.485V382.463H427.856V388H407.287V358.141H427.897V363.698H414.485V369.994H425.806V375.347ZM449.595 376.105H437.987V388H430.789V358.141H450.764V363.698H437.987V370.568H449.595V376.105ZM469.159 380.063C469.159 379.011 468.783 378.19 468.031 377.603C467.293 377.015 465.987 376.406 464.114 375.777C462.241 375.148 460.71 374.54 459.521 373.952C455.651 372.052 453.717 369.44 453.717 366.118C453.717 364.464 454.195 363.008 455.152 361.75C456.123 360.479 457.49 359.494 459.254 358.797C461.018 358.086 463 357.73 465.201 357.73C467.348 357.73 469.269 358.113 470.964 358.879C472.673 359.645 473.999 360.738 474.942 362.16C475.886 363.568 476.357 365.182 476.357 367H469.18C469.18 365.783 468.804 364.84 468.052 364.17C467.313 363.5 466.309 363.165 465.037 363.165C463.752 363.165 462.733 363.452 461.981 364.026C461.243 364.587 460.874 365.305 460.874 366.18C460.874 366.945 461.284 367.643 462.104 368.271C462.925 368.887 464.367 369.529 466.432 370.199C468.496 370.855 470.191 371.566 471.518 372.332C474.744 374.191 476.357 376.755 476.357 380.022C476.357 382.634 475.373 384.685 473.404 386.175C471.436 387.665 468.735 388.41 465.304 388.41C462.884 388.41 460.689 387.979 458.721 387.118C456.766 386.243 455.289 385.054 454.291 383.55C453.307 382.032 452.814 380.289 452.814 378.32H460.033C460.033 379.92 460.443 381.103 461.264 381.868C462.098 382.62 463.444 382.996 465.304 382.996C466.493 382.996 467.43 382.743 468.113 382.237C468.811 381.718 469.159 380.993 469.159 380.063ZM484.007 381.294C485.101 381.294 486.01 381.622 486.734 382.278C487.459 382.921 487.821 383.748 487.821 384.76C487.821 385.771 487.459 386.605 486.734 387.262C486.01 387.904 485.101 388.226 484.007 388.226C482.899 388.226 481.983 387.897 481.259 387.241C480.548 386.585 480.192 385.758 480.192 384.76C480.192 383.762 480.548 382.935 481.259 382.278C481.983 381.622 482.899 381.294 484.007 381.294ZM527.381 377.89C527.285 379.968 526.725 381.807 525.699 383.406C524.674 384.992 523.231 386.223 521.372 387.098C519.526 387.973 517.414 388.41 515.035 388.41C511.111 388.41 508.021 387.132 505.766 384.575C503.51 382.019 502.382 378.409 502.382 373.747V372.271C502.382 369.345 502.888 366.788 503.899 364.601C504.925 362.399 506.395 360.704 508.309 359.515C510.223 358.312 512.438 357.71 514.953 357.71C518.576 357.71 521.488 358.667 523.689 360.581C525.891 362.481 527.142 365.106 527.442 368.456H520.265C520.21 366.638 519.752 365.332 518.891 364.539C518.029 363.746 516.717 363.35 514.953 363.35C513.162 363.35 511.85 364.02 511.016 365.359C510.182 366.699 509.744 368.839 509.703 371.778V373.891C509.703 377.076 510.1 379.353 510.893 380.72C511.699 382.087 513.08 382.771 515.035 382.771C516.689 382.771 517.954 382.381 518.829 381.602C519.704 380.822 520.169 379.585 520.224 377.89H527.381ZM556.071 373.686C556.071 376.598 555.531 379.175 554.451 381.417C553.371 383.659 551.833 385.389 549.837 386.605C547.854 387.809 545.592 388.41 543.049 388.41C540.506 388.41 538.25 387.829 536.281 386.667C534.312 385.491 532.774 383.816 531.667 381.643C530.573 379.469 529.999 376.974 529.944 374.157V372.476C529.944 369.55 530.478 366.973 531.544 364.744C532.624 362.502 534.162 360.772 536.158 359.556C538.168 358.339 540.451 357.73 543.008 357.73C545.537 357.73 547.793 358.332 549.775 359.535C551.758 360.738 553.296 362.454 554.39 364.683C555.497 366.897 556.058 369.44 556.071 372.312V373.686ZM548.75 372.435C548.75 369.468 548.251 367.219 547.253 365.688C546.269 364.143 544.854 363.37 543.008 363.37C539.398 363.37 537.491 366.077 537.286 371.491L537.266 373.686C537.266 376.611 537.751 378.86 538.722 380.433C539.692 382.005 541.135 382.791 543.049 382.791C544.867 382.791 546.269 382.019 547.253 380.474C548.237 378.929 548.736 376.707 548.75 373.809V372.435ZM585.069 373.686C585.069 376.598 584.529 379.175 583.449 381.417C582.369 383.659 580.831 385.389 578.835 386.605C576.853 387.809 574.59 388.41 572.047 388.41C569.504 388.41 567.248 387.829 565.279 386.667C563.311 385.491 561.772 383.816 560.665 381.643C559.571 379.469 558.997 376.974 558.942 374.157V372.476C558.942 369.55 559.476 366.973 560.542 364.744C561.622 362.502 563.16 360.772 565.156 359.556C567.166 358.339 569.449 357.73 572.006 357.73C574.535 357.73 576.791 358.332 578.773 359.535C580.756 360.738 582.294 362.454 583.388 364.683C584.495 366.897 585.056 369.44 585.069 372.312V373.686ZM577.748 372.435C577.748 369.468 577.249 367.219 576.251 365.688C575.267 364.143 573.852 363.37 572.006 363.37C568.396 363.37 566.489 366.077 566.284 371.491L566.264 373.686C566.264 376.611 566.749 378.86 567.72 380.433C568.69 382.005 570.133 382.791 572.047 382.791C573.865 382.791 575.267 382.019 576.251 380.474C577.235 378.929 577.734 376.707 577.748 373.809V372.435ZM598.933 376.885L595.979 380.125V388H588.781V358.141H595.979V371.307L598.481 367.513L604.921 358.141H613.821L603.731 371.348L613.821 388H605.29L598.933 376.885ZM634.165 375.347H622.845V382.463H636.216V388H615.646V358.141H636.257V363.698H622.845V369.994H634.165V375.347ZM639.148 388V358.141H648.767C651.405 358.141 653.777 358.742 655.883 359.945C657.988 361.135 659.629 362.823 660.805 365.011C661.994 367.185 662.596 369.625 662.609 372.332V373.706C662.609 376.44 662.028 378.895 660.866 381.068C659.718 383.229 658.091 384.924 655.985 386.154C653.894 387.371 651.556 387.986 648.972 388H639.148ZM646.347 363.698V382.463H648.849C650.913 382.463 652.499 381.731 653.606 380.269C654.714 378.792 655.268 376.604 655.268 373.706V372.414C655.268 369.529 654.714 367.355 653.606 365.893C652.499 364.43 650.886 363.698 648.767 363.698H646.347ZM676.76 388V358.141H687.485C691.327 358.141 694.246 358.845 696.242 360.253C698.252 361.661 699.257 363.705 699.257 366.385C699.257 367.93 698.901 369.249 698.19 370.343C697.479 371.437 696.434 372.243 695.053 372.763C696.611 373.173 697.808 373.938 698.642 375.06C699.476 376.181 699.893 377.548 699.893 379.161C699.893 382.087 698.963 384.288 697.104 385.765C695.258 387.228 692.517 387.973 688.88 388H676.76ZM683.958 375.306V382.463H688.675C689.974 382.463 690.972 382.169 691.669 381.581C692.366 380.979 692.715 380.139 692.715 379.059C692.715 376.57 691.478 375.319 689.003 375.306H683.958ZM683.958 370.589H687.711C689.283 370.575 690.404 370.288 691.074 369.728C691.744 369.167 692.079 368.34 692.079 367.246C692.079 365.988 691.717 365.086 690.992 364.539C690.268 363.979 689.099 363.698 687.485 363.698H683.958V370.589ZM713.653 371.102L719.149 358.141H726.922L717.304 377.274V388H710.003V377.274L700.405 358.141H708.137L713.653 371.102ZM750.485 371.102L755.981 358.141H763.754L754.136 377.274V388H746.835V377.274L737.237 358.141H744.969L750.485 371.102ZM790.599 373.686C790.599 376.598 790.059 379.175 788.979 381.417C787.898 383.659 786.36 385.389 784.364 386.605C782.382 387.809 780.119 388.41 777.576 388.41C775.033 388.41 772.777 387.829 770.809 386.667C768.84 385.491 767.302 383.816 766.194 381.643C765.101 379.469 764.526 376.974 764.472 374.157V372.476C764.472 369.55 765.005 366.973 766.071 364.744C767.151 362.502 768.689 360.772 770.686 359.556C772.695 358.339 774.979 357.73 777.535 357.73C780.064 357.73 782.32 358.332 784.303 359.535C786.285 360.738 787.823 362.454 788.917 364.683C790.024 366.897 790.585 369.44 790.599 372.312V373.686ZM783.277 372.435C783.277 369.468 782.778 367.219 781.78 365.688C780.796 364.143 779.381 363.37 777.535 363.37C773.926 363.37 772.019 366.077 771.813 371.491L771.793 373.686C771.793 376.611 772.278 378.86 773.249 380.433C774.22 382.005 775.662 382.791 777.576 382.791C779.395 382.791 780.796 382.019 781.78 380.474C782.765 378.929 783.264 376.707 783.277 373.809V372.435ZM817.73 358.141V377.685C817.73 379.899 817.259 381.82 816.315 383.447C815.372 385.061 814.019 386.291 812.255 387.139C810.491 387.986 808.406 388.41 806 388.41C802.363 388.41 799.499 387.467 797.407 385.58C795.315 383.693 794.249 381.109 794.208 377.828V358.141H801.447V377.972C801.529 381.239 803.047 382.873 806 382.873C807.49 382.873 808.618 382.463 809.384 381.643C810.149 380.822 810.532 379.489 810.532 377.644V358.141H817.73ZM826.2 381.294C827.294 381.294 828.203 381.622 828.928 382.278C829.652 382.921 830.015 383.748 830.015 384.76C830.015 385.771 829.652 386.605 828.928 387.262C828.203 387.904 827.294 388.226 826.2 388.226C825.093 388.226 824.177 387.897 823.452 387.241C822.741 386.585 822.386 385.758 822.386 384.76C822.386 383.762 822.741 382.935 823.452 382.278C824.177 381.622 825.093 381.294 826.2 381.294Z" fill="white"/>
</g>
<g filter="url(#filter1_d)">
<rect x="261" y="5" width="355" height="54" fill="#333333"/>
</g>
<path d="M295.069 44H289.275L280.709 28.959V44H274.882V19.8281H280.709L289.259 34.8691V19.8281H295.069V44ZM317.146 33.7568H307.982V39.5176H318.806V44H302.155V19.8281H318.839V24.3271H307.982V29.4238H317.146V33.7568ZM343.307 34.9854L346.079 19.8281H351.856L346.727 44H340.684L337.446 30.2207L334.275 44H328.249L323.103 19.8281H328.896L331.669 34.9854L334.989 19.8281H339.937L343.307 34.9854ZM372.735 31.2666C372.082 30.3369 371.567 29.4515 371.191 28.6104C370.825 27.7692 370.643 26.9004 370.643 26.0039C370.643 24.056 371.274 22.4844 372.535 21.2891C373.797 20.0827 375.446 19.4795 377.483 19.4795C379.309 19.4795 380.82 20.0384 382.015 21.1562C383.21 22.263 383.808 23.641 383.808 25.29C383.808 27.3486 382.673 29.1748 380.404 30.7686L379.143 31.6484L382.862 35.915C383.47 34.6976 383.775 33.3639 383.775 31.9141H388.473C388.473 35.179 387.72 37.7965 386.215 39.7666L389.901 44H383.658L382.529 42.7217C381.6 43.2751 380.648 43.6846 379.674 43.9502C378.711 44.2158 377.621 44.3486 376.404 44.3486C374.013 44.3486 372.098 43.7233 370.659 42.4727C369.221 41.2109 368.501 39.5563 368.501 37.5088C368.501 36.391 368.783 35.3783 369.348 34.4707C369.923 33.5632 371.036 32.5062 372.685 31.2998L372.735 31.2666ZM376.769 40.0322C377.743 40.0322 378.672 39.8053 379.558 39.3516L375.208 34.4043L375.059 34.5039C374.428 35.2786 374.112 36.153 374.112 37.127C374.112 37.9349 374.367 38.6211 374.876 39.1855C375.385 39.75 376.016 40.0322 376.769 40.0322ZM375.474 25.9375C375.474 26.7122 375.894 27.653 376.736 28.7598L377.848 28.0625C378.357 27.7305 378.728 27.3874 378.96 27.0332C379.193 26.679 379.309 26.2308 379.309 25.6885C379.309 25.1794 379.132 24.7367 378.778 24.3604C378.423 23.984 377.986 23.7959 377.466 23.7959C376.846 23.7959 376.359 23.9951 376.005 24.3936C375.651 24.7809 375.474 25.2956 375.474 25.9375ZM413.784 44H407.973V19.8281H413.784V44ZM428.888 19.8281L434.283 36.6455L439.662 19.8281H447.332V44H441.488V38.3555L442.053 26.8008L436.209 44H432.357L426.497 26.7842L427.062 38.3555V44H421.234V19.8281H428.888ZM460.278 35.7988V44H454.451V19.8281H464.096C465.945 19.8281 467.577 20.1712 468.994 20.8574C470.421 21.5326 471.523 22.501 472.297 23.7627C473.083 25.0133 473.476 26.4355 473.476 28.0293C473.476 30.3867 472.629 32.2738 470.936 33.6904C469.254 35.096 466.941 35.7988 463.997 35.7988H460.278ZM460.278 31.2998H464.096C465.225 31.2998 466.083 31.0176 466.67 30.4531C467.267 29.8887 467.566 29.0918 467.566 28.0625C467.566 26.9336 467.262 26.0316 466.653 25.3564C466.044 24.6813 465.214 24.3382 464.163 24.3271H460.278V31.2998ZM488.979 35.4668H485.824V44H479.997V19.8281H489.51C492.377 19.8281 494.618 20.4645 496.234 21.7373C497.849 23.0101 498.657 24.8086 498.657 27.1328C498.657 28.8151 498.314 30.2096 497.628 31.3164C496.953 32.4232 495.89 33.3197 494.441 34.0059L499.488 43.751V44H493.245L488.979 35.4668ZM485.824 30.9678H489.51C490.617 30.9678 491.447 30.68 492 30.1045C492.565 29.5179 492.847 28.7044 492.847 27.6641C492.847 26.6237 492.565 25.8102 492 25.2236C491.436 24.626 490.606 24.3271 489.51 24.3271H485.824V30.9678ZM526.047 32.4121C526.047 34.7695 525.61 36.8558 524.735 38.6709C523.861 40.486 522.616 41.8861 521 42.8711C519.395 43.8451 517.563 44.332 515.505 44.332C513.446 44.332 511.62 43.8617 510.026 42.9209C508.432 41.9691 507.187 40.6133 506.291 38.8535C505.405 37.0938 504.941 35.0739 504.896 32.7939V31.4326C504.896 29.0641 505.328 26.9779 506.191 25.1738C507.066 23.3587 508.311 21.9587 509.927 20.9736C511.554 19.9886 513.402 19.4961 515.471 19.4961C517.519 19.4961 519.345 19.9831 520.95 20.957C522.555 21.931 523.8 23.32 524.685 25.124C525.582 26.917 526.036 28.9756 526.047 31.2998V32.4121ZM520.12 31.3994C520.12 28.9977 519.716 27.1771 518.908 25.9375C518.111 24.6868 516.966 24.0615 515.471 24.0615C512.55 24.0615 511.006 26.2529 510.84 30.6357L510.823 32.4121C510.823 34.7806 511.216 36.6012 512.002 37.874C512.788 39.1468 513.955 39.7832 515.505 39.7832C516.977 39.7832 518.111 39.1579 518.908 37.9072C519.705 36.6566 520.109 34.8581 520.12 32.5117V31.3994ZM541.466 37.4258L546.281 19.8281H552.788L544.654 44H538.279L530.21 19.8281H536.668L541.466 37.4258ZM572.956 33.7568H563.792V39.5176H574.616V44H557.965V19.8281H574.649V24.3271H563.792V29.4238H572.956V33.7568ZM580.39 44V19.8281H588.176C590.312 19.8281 592.233 20.3151 593.937 21.2891C595.642 22.252 596.97 23.6188 597.922 25.3896C598.884 27.1494 599.371 29.125 599.382 31.3164V32.4287C599.382 34.6423 598.912 36.6289 597.971 38.3887C597.042 40.1374 595.725 41.5098 594.02 42.5059C592.327 43.4909 590.434 43.9889 588.342 44H580.39ZM586.217 24.3271V39.5176H588.243C589.914 39.5176 591.198 38.9255 592.094 37.7412C592.991 36.5459 593.439 34.7751 593.439 32.4287V31.3828C593.439 29.0475 592.991 27.2878 592.094 26.1035C591.198 24.9193 589.892 24.3271 588.176 24.3271H586.217Z" fill="white"/>
<g filter="url(#filter2_d)">
<path fill-rule="evenodd" clip-rule="evenodd" d="M830.958 197.133H799.691H799.537V85.1564H867V110.571H830.958V127.822H864.69V152.312H830.958V197.133ZM789.833 197.133H720.983V85.1564H788.447V110.571H752.405V127.822H786.136V152.312H752.405V171.719H789.833V197.133ZM662.3 125.665H677.394V85.1564H708.815V197.133H677.394V152.004H662.3V197.133H630.878V85.1564H662.3V125.665ZM621.329 126.589H590.832V117.656C590.832 112.727 590.832 103.793 584.362 103.793C576.199 103.793 575.891 109.338 575.891 141.222C575.891 173.875 576.661 178.65 584.362 178.65C589.445 178.65 591.448 173.721 591.448 159.705V151.079H621.945V158.165C621.945 184.349 611.471 199.444 584.054 199.444C543.7 199.444 543.7 176.956 543.7 141.222C543.7 106.566 543.7 83 584.054 83C617.478 83 621.329 101.021 621.329 118.426V126.589ZM398.607 124.279H398.299L389.366 85.3105H354.556L382.743 153.082V197.133H414.164V153.082L442.351 85.1564H408.311L398.607 124.279ZM274.77 197.133H320.362C353.016 197.133 353.94 165.558 353.94 141.222C353.94 114.575 352.862 108.568 347.933 99.7889C342.85 90.7014 333.762 85.1564 319.9 85.1564H274.77V197.133ZM306.038 107.798H310.659C320.362 107.798 321.594 113.651 321.594 124.895V157.549C321.594 166.02 320.362 174.645 312.507 174.645H306.038V107.798ZM228.255 155.546H213.93L221.169 109.647H221.478L228.255 155.546ZM235.186 197.133H267.531L241.193 85.1564H201.762L175.27 197.133H207.615L210.696 180.036H231.797L235.186 197.133ZM100.413 197.133H169.263V171.719H131.834V152.312H165.566V127.822H131.834V110.571H167.877V85.1564H100.413V197.133ZM10 197.133H41.4213V153.082H47.2743C52.8192 153.082 55.8997 154.776 55.8997 164.326C55.8997 167.098 56.0152 169.871 56.1308 172.643C56.2463 175.416 56.3618 178.188 56.3618 180.961C56.3618 186.505 56.6698 194.669 58.6722 197.133H91.9418V195.593C90.4015 194.977 89.3233 193.899 88.5532 192.358C87.7831 190.818 87.167 185.427 87.167 179.112V169.871C87.167 163.248 87.0129 155.7 84.2405 150.771C81.314 145.381 75.615 142.3 69.3 141.838V141.53C80.2358 139.99 87.9371 132.442 87.9371 114.575C87.9371 95.9383 78.6955 85.3105 56.9779 85.3105H10V197.133ZM41.4213 107.798H44.9639C52.0491 107.798 56.5158 109.955 56.5158 119.196C56.5158 129.978 50.9709 132.442 45.888 132.442H41.2673V107.798H41.4213ZM498.57 146.459V141.222C498.57 130.748 498.108 129.362 495.952 129.362C493.795 129.362 493.333 130.902 493.333 141.222C493.333 151.695 493.795 153.082 495.952 153.082C497.8 153.082 498.416 152.158 498.57 146.459ZM509.044 141.222C509.044 152.62 509.044 159.705 496.26 159.705C483.476 159.705 483.476 152.62 483.476 141.222C483.476 130.132 483.476 122.739 496.26 122.739C509.044 122.739 509.044 130.132 509.044 141.222ZM481.473 131.672H474.696V158.935H464.684V131.672H457.907V123.355H481.473V131.672ZM517.053 107.644H449.898V174.799H517.053V107.644Z" fill="white"/>
</g>
<g filter="url(#filter3_d)">
<rect x="189" y="223" width="496" height="79" rx="2" fill="url(#paint0_linear)"/>
</g>
<path d="M219.497 237.945L230.446 272.075L241.362 237.945H256.928V287H245.068V275.545L246.214 252.096L234.355 287H226.538L214.645 252.062L215.791 275.545V287H203.965V237.945H219.497ZM310.078 266.212H291.48V277.903H313.447V287H279.655V237.945H313.515V247.076H291.48V257.419H310.078V266.212ZM361.308 277.836H345.102L342.272 287H329.638L347.629 237.945H358.747L376.873 287H364.172L361.308 277.836ZM347.932 268.706H358.478L353.188 251.691L347.932 268.706ZM407.484 277.903H428.069V287H395.658V237.945H407.484V277.903ZM497.276 268.739L492.424 274.062V287H480.598V237.945H492.424V259.575L496.534 253.342L507.113 237.945H521.736L505.159 259.643L521.736 287H507.72L497.276 268.739ZM552.515 287H540.723V237.945H552.515V287ZM613.414 247.076H598.691V287H586.865V247.076H572.411V237.945H613.414V247.076ZM658.377 273.961C658.377 272.232 657.759 270.884 656.524 269.918C655.311 268.953 653.166 267.953 650.089 266.92C647.012 265.887 644.496 264.887 642.542 263.921C636.186 260.799 633.007 256.509 633.007 251.051C633.007 248.333 633.794 245.941 635.366 243.875C636.961 241.786 639.207 240.169 642.104 239.023C645.002 237.855 648.258 237.271 651.875 237.271C655.401 237.271 658.557 237.9 661.342 239.158C664.15 240.416 666.328 242.213 667.878 244.549C669.428 246.862 670.203 249.513 670.203 252.5H658.411C658.411 250.501 657.793 248.951 656.558 247.851C655.345 246.75 653.694 246.2 651.605 246.2C649.494 246.2 647.82 246.671 646.585 247.615C645.372 248.536 644.766 249.715 644.766 251.152C644.766 252.41 645.44 253.556 646.787 254.589C648.135 255.6 650.505 256.655 653.896 257.756C657.288 258.834 660.073 260.002 662.252 261.26C667.552 264.314 670.203 268.526 670.203 273.894C670.203 278.184 668.586 281.553 665.351 284.001C662.117 286.45 657.681 287.674 652.043 287.674C648.068 287.674 644.463 286.966 641.228 285.551C638.016 284.114 635.59 282.16 633.951 279.689C632.334 277.196 631.525 274.332 631.525 271.098H643.384C643.384 273.726 644.058 275.668 645.406 276.926C646.776 278.162 648.988 278.779 652.043 278.779C653.997 278.779 655.536 278.364 656.659 277.533C657.804 276.679 658.377 275.489 658.377 273.961Z" fill="white"/>
<defs>
<filter id="filter0_d" x="36.5547" y="352.71" width="803.46" height="50.7002" filterUnits="userSpaceOnUse" color-interpolation-filters="sRGB">
<feFlood flood-opacity="0" result="BackgroundImageFix"/>
<feColorMatrix in="SourceAlpha" type="matrix" values="0 0 0 0 0 0 0 0 0 0 0 0 0 0 0 0 0 0 127 0"/>
<feOffset dy="5"/>
<feGaussianBlur stdDeviation="5"/>
<feColorMatrix type="matrix" values="0 0 0 0 0 0 0 0 0 0 0 0 0 0 0 0 0 0 0.25 0"/>
<feBlend mode="normal" in2="BackgroundImageFix" result="effect1_dropShadow"/>
<feBlend mode="normal" in="SourceGraphic" in2="effect1_dropShadow" result="shape"/>
</filter>
<filter id="filter1_d" x="251" y="0" width="375" height="74" filterUnits="userSpaceOnUse" color-interpolation-filters="sRGB">
<feFlood flood-opacity="0" result="BackgroundImageFix"/>
<feColorMatrix in="SourceAlpha" type="matrix" values="0 0 0 0 0 0 0 0 0 0 0 0 0 0 0 0 0 0 127 0"/>
<feOffset dy="5"/>
<feGaussianBlur stdDeviation="5"/>
<feColorMatrix type="matrix" values="0 0 0 0 0 0 0 0 0 0 0 0 0 0 0 0 0 0 0.1 0"/>
<feBlend mode="normal" in2="BackgroundImageFix" result="effect1_dropShadow"/>
<feBlend mode="normal" in="SourceGraphic" in2="effect1_dropShadow" result="shape"/>
</filter>
<filter id="filter2_d" x="0" y="78" width="877" height="136.444" filterUnits="userSpaceOnUse" color-interpolation-filters="sRGB">
<feFlood flood-opacity="0" result="BackgroundImageFix"/>
<feColorMatrix in="SourceAlpha" type="matrix" values="0 0 0 0 0 0 0 0 0 0 0 0 0 0 0 0 0 0 127 0"/>
<feOffset dy="5"/>
<feGaussianBlur stdDeviation="5"/>
<feColorMatrix type="matrix" values="0 0 0 0 0 0 0 0 0 0 0 0 0 0 0 0 0 0 0.25 0"/>
<feBlend mode="normal" in2="BackgroundImageFix" result="effect1_dropShadow"/>
<feBlend mode="normal" in="SourceGraphic" in2="effect1_dropShadow" result="shape"/>
</filter>
<filter id="filter3_d" x="174" y="213" width="526" height="109" filterUnits="userSpaceOnUse" color-interpolation-filters="sRGB">
<feFlood flood-opacity="0" result="BackgroundImageFix"/>
<feColorMatrix in="SourceAlpha" type="matrix" values="0 0 0 0 0 0 0 0 0 0 0 0 0 0 0 0 0 0 127 0"/>
<feOffset dy="5"/>
<feGaussianBlur stdDeviation="7.5"/>
<feColorMatrix type="matrix" values="0 0 0 0 0 0 0 0 0 0 0 0 0 0 0 0 0 0 0.1 0"/>
<feBlend mode="normal" in2="BackgroundImageFix" result="effect1_dropShadow"/>
<feBlend mode="normal" in="SourceGraphic" in2="effect1_dropShadow" result="shape"/>
</filter>
<linearGradient id="paint0_linear" x1="437" y1="223" x2="437" y2="302" gradientUnits="userSpaceOnUse">
<stop stop-color="#E5A339"/>
<stop offset="1" stop-color="#E5981C"/>
</linearGradient>
</defs>
</svg>
