<svg width="375" height="430" viewBox="0 0 375 430" fill="none" xmlns="http://www.w3.org/2000/svg">
<g clip-path="url(#clip0)">
<path d="M287.962 148.471L287.665 148.115L287.784 147.76C287.843 147.463 287.903 147.108 288.318 146.871L288.674 147.048L288.734 147.226L289.09 147.345L289.268 147.76L288.912 148.115L288.852 148.175L288.615 148.471C288.556 148.471 288.437 148.53 288.377 148.53C288.318 148.53 288.259 148.53 288.199 148.53L287.962 148.471ZM304.171 138.573L303.815 138.395C303.755 138.217 303.755 137.862 304.349 137.684L304.705 137.98C304.586 138.336 304.23 138.514 304.171 138.573ZM262.431 136.38L262.312 136.143C262.194 135.846 262.194 135.491 262.372 135.194C262.55 134.898 262.787 134.661 263.084 134.542L263.381 134.72L263.678 135.491L263.559 135.846L263.381 136.024C263.322 136.202 263.203 136.439 262.787 136.498L262.55 136.321H262.728L262.847 136.202H262.787L262.728 136.143L262.55 136.261L262.431 136.38ZM302.568 131.638L302.805 131.401C303.102 131.46 303.34 131.698 303.518 131.875L303.696 132.053L303.577 132.527H303.518C303.458 132.705 303.399 132.883 303.102 133.001L302.805 132.883L302.627 132.705C302.508 132.587 302.33 132.468 302.212 132.172L302.152 131.875L302.449 131.579L302.568 131.638ZM279.056 128.378L279.234 128.023C279.234 128.023 279.293 128.023 279.353 128.023C279.471 128.023 279.65 128.082 279.709 128.26L279.768 128.438V128.616L279.709 129.03C279.59 129.149 279.471 129.149 279.412 129.149C279.293 129.149 279.175 129.09 279.115 129.03L278.818 128.912L278.759 128.853C278.64 128.556 278.878 128.378 278.937 128.319L279.056 128.378ZM287.071 127.964L286.834 127.904L286.715 127.845C286.478 127.667 286.181 127.43 286.062 127.134L286.003 126.897C285.943 126.719 286.062 126.6 286.181 126.541L286.24 126.423L286.181 126.363L286.478 125.948L286.893 125.83L287.071 125.771L287.428 126.008L287.546 126.245C287.724 126.482 287.902 126.837 287.843 127.371V127.43C287.724 127.726 287.368 127.845 287.071 127.964ZM312.186 121.325L312.008 121.266L311.83 121.088C311.711 120.851 311.889 120.673 311.889 120.614L312.068 120.318C312.127 120.318 312.127 120.318 312.186 120.318C312.364 120.318 312.483 120.377 312.543 120.555C312.602 120.733 312.602 120.97 312.483 121.148L312.186 121.325ZM267.597 111.664L267.656 111.427L267.775 111.072L267.715 111.012C267.656 110.835 267.775 110.716 267.775 110.657C267.834 110.598 267.894 110.598 268.012 110.598C268.131 110.598 268.25 110.657 268.428 110.716L268.547 110.775L268.725 110.953C268.784 111.131 268.784 111.249 268.725 111.368L268.784 111.427L268.844 111.783L268.725 111.961C268.547 112.257 268.369 112.553 268.072 112.553C267.775 112.553 267.597 112.316 267.419 112.139L267.656 111.724L267.597 111.664ZM295.146 108.938L294.79 108.701L294.671 108.642L294.374 108.345V108.286C294.315 107.99 294.374 107.753 294.493 107.575L294.612 107.219L294.849 106.923C295.265 106.923 295.74 106.923 295.977 107.456C296.096 107.753 295.977 107.99 295.918 108.167L295.859 108.405L295.562 108.76H295.502C295.384 108.819 295.265 108.879 295.146 108.938ZM285.349 107.515L284.993 107.338L284.815 107.278H284.578L284.399 107.101C284.281 106.864 284.459 106.567 284.696 106.449H284.756C284.934 106.212 285.29 106.093 285.468 106.034L285.824 106.212H285.706L286.003 106.626L285.943 106.864C285.824 106.982 285.706 107.338 285.349 107.515ZM309.514 105.974C309.574 105.974 309.693 105.974 309.811 105.915L310.108 106.034L310.227 106.152L310.346 106.33C310.405 106.271 310.524 106.212 310.643 106.212C310.702 106.212 310.761 106.212 310.821 106.271L310.939 106.389L310.999 106.508V106.804L310.939 107.101C310.821 107.219 310.702 107.219 310.643 107.219C310.524 107.219 310.405 107.16 310.346 107.16L310.168 107.338C309.93 107.515 309.752 107.693 309.455 107.693C309.336 107.693 309.158 107.634 309.04 107.575L308.921 107.397C308.743 106.864 308.743 106.804 308.802 106.33L308.861 106.212L309.04 106.034C309.158 105.974 309.277 105.974 309.336 105.974C309.396 105.974 309.396 105.974 309.455 105.974H309.514ZM287.962 104.789H288.081L288.259 104.611C288.437 104.671 288.556 104.848 288.615 104.967L288.734 105.204L288.674 105.56L288.734 105.737L288.674 106.093C288.496 106.212 288.318 106.271 288.199 106.271C288.081 106.271 288.021 106.271 287.902 106.212H287.784L287.546 105.856V105.619L287.665 105.085L287.784 104.967L287.843 104.848L288.14 104.73L287.962 104.789ZM291.999 106.212C291.643 106.212 291.287 106.034 291.049 105.619V105.322L291.109 105.204C291.287 104.908 291.465 104.73 291.584 104.433L291.881 104.315C292.296 104.433 292.652 104.73 292.771 105.026L292.831 105.085C292.949 105.5 292.771 105.974 292.296 106.152C292.296 106.212 292.118 106.212 291.999 106.212ZM290.099 102.655L289.743 102.359C289.802 102.003 289.921 101.766 290.04 101.47L290.159 101.174L290.277 101.055L290.693 100.996L290.931 100.937L291.346 101.055L291.406 101.174H291.287L291.584 101.589C291.465 101.766 291.406 101.944 291.346 102.063L291.227 102.359L290.812 102.418L290.277 102.596L290.099 102.655ZM319.549 99.9882L319.608 99.8697C319.667 99.8697 319.727 99.8104 319.786 99.8104C319.964 99.8104 320.024 99.9289 320.083 100.047L320.202 100.107C320.32 100.166 320.439 100.344 320.558 100.581C320.617 100.818 320.796 101.292 320.677 101.589L320.439 101.47L320.261 101.529L320.321 101.648L320.439 101.707L320.499 101.529L320.558 101.589L320.439 102.003C320.32 102.063 320.202 102.063 320.083 102.063C319.608 102.063 319.252 101.707 319.014 101.47L318.955 101.351C318.896 101.174 319.014 100.996 319.133 100.937L319.192 100.818L319.074 100.759L319.133 100.522C319.074 100.344 319.133 100.225 319.192 100.107C319.311 99.9882 319.43 99.929 319.608 99.929C319.489 99.9882 319.549 99.9882 319.549 99.9882ZM290.159 100.699C290.04 100.699 289.921 100.699 289.802 100.64L289.684 100.522C289.446 99.8697 289.921 99.5141 290.277 99.277L290.456 99.1584L290.752 99.0992C290.931 99.1584 291.049 99.277 291.109 99.4548C291.227 99.6919 291.227 99.9882 291.168 100.285L291.049 100.462C290.693 100.581 290.396 100.699 290.159 100.699ZM300.668 99.5141L300.371 99.2177L300.312 99.0399C300.252 98.9214 300.252 98.7436 300.312 98.5065L300.371 98.3879C300.49 98.2694 300.668 98.2101 300.787 98.2101C300.905 98.2101 301.024 98.2694 301.083 98.2694H301.143L301.44 98.5065C301.499 98.7436 301.44 98.9806 301.262 99.1584C301.202 99.3955 300.965 99.5141 300.668 99.5141ZM309.752 98.2694L309.396 98.0916C309.336 97.6767 309.336 97.2618 309.574 96.8469L309.693 96.7284C309.811 96.6691 309.93 96.6098 310.049 96.6098C310.108 96.6098 310.227 96.6098 310.286 96.6691V96.6098L310.761 96.8469V96.9655L310.821 97.084C310.88 97.2025 310.999 97.3803 310.999 97.6174L310.761 97.8545C310.524 97.9138 310.464 97.9138 310.286 98.0323C310.168 98.0323 310.049 98.1509 309.752 98.2694ZM307.555 95.8393C307.318 95.7801 307.199 95.6023 307.08 95.4245L307.021 95.2466L306.902 95.0688C306.843 94.7725 307.08 94.7132 307.14 94.7132H307.318C307.377 94.5947 307.496 94.4169 307.733 94.2983L308.03 94.4169L308.208 94.4761C308.386 94.5354 308.683 94.6539 308.743 95.0688V95.1874C308.624 95.4837 308.327 95.6023 308.03 95.7208L307.793 95.8393H307.555ZM304.408 92.7573L304.705 92.4017C304.883 92.4017 305.121 92.5202 305.299 92.9351L305.358 93.0537L305.24 93.35L305.061 93.4093L304.943 93.4685L305.002 93.35L304.824 93.7056H304.765C304.527 93.7056 304.408 93.5278 304.408 93.4685H304.527L304.23 93.35L304.171 93.2907C303.993 92.9351 304.349 92.8166 304.408 92.698L304.468 92.6388L304.408 92.7573ZM313.552 93.6464C313.374 93.5871 313.255 93.4093 313.196 93.2315V93.1722L313.136 93.1129L312.839 92.8758L312.899 92.5795C312.839 92.2831 312.78 91.9868 312.78 91.5719L312.958 91.3348L313.374 91.2756L313.611 91.2163L314.027 91.3348C314.086 91.5126 314.146 91.6312 314.205 91.7497L314.561 91.9275L314.621 92.2239C314.739 92.5202 314.858 92.8758 314.561 93.4093L314.443 93.5278C314.264 93.6464 314.146 93.6464 314.027 93.6464C313.968 93.6464 313.968 93.6464 313.908 93.6464H313.849H313.552ZM281.609 91.809L281.253 91.6905L281.015 91.5126C280.956 91.2756 280.896 91.0977 281.015 90.9199C281.134 90.6236 281.49 90.5051 281.728 90.3865L282.025 90.5643L282.084 90.6829H281.965L282.262 90.8607C282.44 91.3348 282.025 91.5719 281.787 91.6312L281.609 91.809ZM297.284 90.3865L297.343 90.268C297.818 90.3272 298.055 90.6236 298.174 91.0978L298.055 91.3348C298.055 91.5126 298.055 91.6312 297.996 91.6905C297.818 91.8683 297.64 91.9275 297.462 91.9275C297.165 91.9275 296.927 91.7497 296.69 91.6312L296.512 91.5126L296.393 91.2163C296.452 90.8607 296.63 90.5643 296.927 90.3272L297.284 90.3865ZM307.971 91.0978C307.911 91.0978 307.852 91.0978 307.733 91.0385L307.555 90.8014L307.615 90.3865L307.911 90.268H308.09L308.446 90.4458C308.505 90.6236 308.446 90.8607 308.327 90.9792C308.208 91.0385 308.09 91.0978 307.971 91.0978ZM297.046 90.0902C296.809 90.0902 296.571 89.9716 296.393 89.6753L296.512 89.3197L296.452 89.2604L296.334 89.1419L296.393 88.8455L296.69 88.7862C296.868 88.5492 297.046 88.5491 297.284 88.5491H297.521L297.759 88.6677L297.818 88.727C297.996 89.2011 297.699 89.7346 297.343 89.9124C297.284 90.0902 297.165 90.0902 297.046 90.0902ZM308.743 89.9124L308.327 89.7345C308.268 89.4382 308.268 89.2604 308.268 88.964V88.7862L308.565 88.5491H308.624L308.683 88.4899C308.802 88.3713 308.921 88.1935 309.277 88.1935H309.336L309.574 88.3121L309.633 88.3714C309.752 88.6084 309.752 88.7862 309.752 88.964L309.811 89.3197L309.693 89.616C309.455 89.7346 309.277 89.7938 309.099 89.7938L308.743 89.9124ZM73.5043 81.7924C73.5636 81.4961 73.8605 81.259 74.2168 81.259C74.2761 81.259 74.3949 81.259 74.4543 81.3182C74.7511 81.4368 74.9292 81.6146 75.048 81.9109L74.8699 82.3258C74.7511 82.3851 74.6324 82.4444 74.5136 82.4444C74.3949 82.4444 74.2761 82.3851 74.1574 82.3851H74.0386L73.5636 82.148C73.5043 82.6222 73.0887 82.9185 72.9699 83.0963L72.7324 83.2741L72.1387 82.9185C72.1387 82.8593 72.1387 82.7407 71.9606 82.5629V82.0295C72.3168 81.6146 72.673 81.496 72.9699 81.496C73.148 81.496 73.2668 81.5553 73.3855 81.5553L73.5043 81.7924ZM318.064 81.7924L317.708 81.6146L317.649 81.496C317.589 81.259 317.589 81.259 317.471 81.0812L317.411 80.9626V80.6663C317.708 80.1921 318.005 80.1329 318.302 80.0736C318.539 80.0143 318.658 80.0143 318.777 79.7772L319.133 79.718C319.608 80.0143 319.846 80.5477 319.608 80.9626L319.43 81.0812C319.133 81.1404 318.955 81.259 318.777 81.4368C318.599 81.496 318.421 81.6739 318.064 81.7924ZM91.6726 80.3699C91.6726 80.3699 91.6132 80.3699 91.5539 80.3699C91.1976 80.3107 90.9601 80.0143 90.782 79.8365L90.7226 79.4809C90.9008 78.8882 91.3164 78.4733 91.8507 78.4733C91.9101 78.4733 91.9695 78.4733 91.9695 78.4733C92.207 78.5326 92.5632 78.6511 92.9195 79.1845L92.682 79.7772L92.2663 80.0143L92.1476 80.0736C92.1476 80.1921 91.9695 80.3699 91.6726 80.3699ZM75.5824 75.0949H75.4042C75.1667 75.0949 74.9292 75.0949 74.8105 74.9171L74.7511 74.7986L74.6917 74.7393L74.573 74.68L74.3949 74.5615C74.3355 74.443 74.2168 74.1466 74.573 73.8503L74.9292 73.6132L75.2261 73.6724L75.523 74.0873C75.7011 74.3244 75.8792 74.5615 75.8792 74.9171L75.5824 75.0949ZM217.129 68.6938L217.01 68.6345L216.892 68.3974L217.07 68.2789L217.307 68.1604C217.485 68.2789 217.426 68.4567 217.367 68.5752V68.6345L217.129 68.6938ZM206.917 65.5525C206.739 65.4932 206.442 65.3747 206.561 65.0191L206.62 64.9005C206.679 64.9005 206.739 64.8412 206.798 64.8412C206.976 64.8412 207.095 64.9598 207.154 65.0783L207.095 65.4339L206.917 65.5525ZM76.6511 66.1452C76.473 66.1452 76.3542 66.0859 76.1761 65.9674L76.1167 65.671L76.2355 65.2561L76.2948 64.9005L76.2355 64.6042L76.2948 64.5449L76.6511 64.2486L76.8292 64.1893C77.1261 64.3078 77.1854 64.3671 77.3042 64.6042L77.3636 64.6634V64.8412C77.3042 64.9598 77.3042 65.0783 77.3042 65.3154C77.3042 65.4932 77.3636 65.671 77.3042 65.8488L77.1261 65.9674L76.9479 66.0266C76.8886 66.0859 76.7698 66.1452 76.6511 66.1452ZM225.145 64.7227L225.026 64.6634L224.966 64.4856L225.085 64.2486L225.145 64.0707L225.323 63.8929C225.798 63.9522 225.679 64.3671 225.62 64.5449L225.501 64.6634L225.145 64.7227ZM205.967 64.6634C205.789 64.4856 205.729 64.3078 205.789 64.13L206.086 63.8337H206.145C206.323 63.8337 206.382 63.8929 206.442 63.9522L206.501 64.0115L206.561 64.1893C206.501 64.3671 206.442 64.4856 206.323 64.5449L206.264 64.6042L205.967 64.6634ZM73.9793 64.1893H73.8605C73.623 64.13 73.5636 63.9522 73.4449 63.8337L73.3855 63.7744L73.148 63.5373L73.2074 63.3002L73.0887 62.8853L73.148 62.7668C73.5043 62.4112 73.8011 62.3519 74.098 62.3519C74.2168 62.3519 74.2761 62.3519 74.3949 62.3519L74.4543 62.7075L74.6324 62.9446L74.8105 63.1224L74.7511 63.3002L74.8699 63.4188L74.8105 63.7151L74.5136 63.8929C74.3949 64.0115 74.2761 64.13 73.9793 64.1893ZM70.1793 63.1817L69.8825 63.1224L69.5856 62.5297L69.645 62.4112L69.7637 62.2926C69.8231 62.2334 70.0606 62.0556 70.2981 62.0556C70.3575 62.0556 70.4762 62.0556 70.5356 62.1148L70.595 62.1741L70.7137 62.5297L70.7731 62.589V62.8853L70.7137 62.9446V62.8853L70.6543 63.1817L70.2981 63.1224H70.2387L70.1793 63.1817ZM201.989 62.4705L202.167 62.4112L202.226 62.2926L202.167 62.1741C202.286 61.9963 202.464 61.937 202.701 61.937C202.761 61.937 202.82 61.937 202.879 61.937H202.939L203.117 62.0556V62.1148L203.176 62.3519L203.236 62.589L203.117 62.7075L203.176 62.8853L202.82 63.0039H202.761L202.642 63.1224H202.464L202.404 63.241L202.345 63.3595L202.048 63.4188H201.989V63.3002L201.87 63.3595V63.5373H201.633L201.454 63.4188L201.158 63.241L201.098 63.0039V62.8261C201.098 62.7668 201.098 62.6483 201.158 62.4705L201.217 62.4112C201.276 62.3519 201.395 62.2926 201.514 62.2926C201.692 62.4112 201.811 62.4112 201.989 62.4705ZM201.158 61.5221C201.098 61.5221 201.039 61.5221 200.979 61.5221L200.564 61.2851L200.504 61.1073C200.564 60.8109 200.742 60.6924 200.92 60.6331L201.039 60.5738L201.098 60.5146H201.158C201.276 60.5146 201.336 60.5738 201.395 60.6924L201.573 60.8109L201.633 60.9887H201.573L201.633 61.2851C201.454 61.4629 201.336 61.5221 201.158 61.5221ZM161.318 58.6179L160.962 58.4994L160.843 58.3216L161.021 58.0845L161.437 58.2623L161.496 58.3216L161.555 58.4994V58.5587L161.318 58.6179ZM188.63 57.2547L188.452 56.8398C188.511 56.7213 188.63 56.6027 188.808 56.6027C188.867 56.6027 188.986 56.6027 189.045 56.662L189.105 56.8991L188.986 57.0769L188.927 57.1362L188.63 57.2547ZM234.169 57.1362H234.051L233.872 56.8991L233.694 56.662C233.754 56.3657 233.872 56.2471 233.991 56.1286C234.051 56.0693 234.169 56.0693 234.229 56.0693C234.288 56.0693 234.407 56.0693 234.466 56.1286L234.585 56.1879C234.763 56.2471 234.763 56.4842 234.763 56.5435L234.704 56.4842L234.763 56.7806L234.704 56.8398L234.644 56.8991L234.704 57.0176L234.407 57.1954L234.288 57.0769L234.169 57.1362ZM153.777 56.1286L153.481 55.9508L153.421 55.8322C153.421 55.6544 153.481 55.4766 153.54 55.1803L153.837 55.0617L154.015 55.121L154.431 55.2395L154.49 55.4766L154.431 55.5359L154.371 55.6544L154.431 55.7137L154.49 55.8322L154.252 56.1879L153.777 56.1286ZM86.329 56.0101L86.1509 55.8322L86.0915 55.6544C86.0321 55.3581 85.9134 54.9432 86.5071 54.6468L86.6259 54.5876C87.1008 54.6468 87.1602 54.7654 87.3977 55.1803L87.3383 55.4766L87.0415 55.7137L86.804 55.9508L86.5071 55.8915L86.4477 55.8322L86.3884 55.8915L86.329 56.0101ZM220.454 54.469L220.276 54.4098L220.038 54.232L220.098 53.9356L220.276 53.8763C220.454 53.9356 220.573 53.9949 220.632 54.1134L220.573 54.4098L220.454 54.469ZM235.238 54.7061L235.001 54.6468C234.763 54.5876 234.585 54.469 234.526 54.2912C234.466 54.1134 234.466 53.8763 234.585 53.6393L234.704 53.5207C234.822 53.4615 235.06 53.4022 235.238 53.4022C235.297 53.4022 235.297 53.4022 235.357 53.4022C235.416 53.4022 235.535 53.4614 235.594 53.6393L235.832 53.8171C235.951 54.0541 235.713 54.232 235.535 54.3505L235.297 54.5283L235.238 54.7061ZM81.5791 54.5283C81.2822 54.469 81.0447 54.2912 80.8072 53.9356L80.7479 53.6393C80.8072 53.2836 81.0447 52.9873 81.4603 52.7502L81.9947 52.928C82.1728 53.2836 82.4103 53.9356 81.9353 54.4098L81.5791 54.5283ZM212.795 51.0907H212.676L212.439 50.9129L212.498 50.5572L212.676 50.4387C212.973 50.5572 213.032 50.735 212.973 51.0314L212.795 51.0907ZM227.044 50.1423C226.985 50.1423 226.926 50.1423 226.866 50.0831H226.807L226.748 49.7275V49.6682L226.688 49.6089L226.748 49.4311L226.926 49.3718L227.282 49.3126V49.4904L227.341 49.3126H227.401L227.52 49.3718C227.638 49.5497 227.579 49.7867 227.46 49.9645C227.401 50.0831 227.223 50.1423 227.044 50.1423ZM148.078 49.194H147.959L147.662 49.0162V48.8977L147.721 48.7791V48.5421L147.899 48.4235C148.434 48.5421 148.374 48.8384 148.315 49.0162V49.1348L148.078 49.194ZM132.522 48.7791L132.344 48.6013L132.522 48.3643L132.759 48.1272L133.115 48.2457L133.175 48.5421L133.115 48.7199L132.878 48.8384H132.819L132.522 48.7791ZM147.246 47.2381L147.128 47.1789L147.009 47.0603L147.187 46.764L147.603 46.6454C147.781 46.7047 147.84 46.8825 147.781 47.0603L147.543 47.1789L147.484 47.1196L147.246 47.2381ZM145.524 46.5269L145.465 46.4676C145.406 46.4084 145.168 46.2898 145.346 45.9935L145.465 45.8749L145.762 45.9935L145.821 45.9342L145.999 46.112L145.821 46.4676H145.524V46.5269ZM113.878 45.0451C113.878 44.8673 114.056 44.7488 114.235 44.7488C114.294 44.7488 114.294 44.7488 114.353 44.7488L114.65 45.0451L114.591 45.2822H114.235H114.175L113.938 45.1637C113.938 45.4008 113.7 45.5786 113.641 45.6378L113.522 45.6971L113.225 45.5193L113.106 45.3415V45.1044C113.285 44.8673 113.463 44.8081 113.581 44.8081C113.641 44.8081 113.7 44.8081 113.76 44.8673L113.878 45.0451ZM233.872 44.0968L233.932 43.919L234.169 44.0968V44.3339C234.11 44.4524 234.051 44.571 233.872 44.571C233.813 44.571 233.813 44.571 233.754 44.571L233.813 44.3932H233.754L233.872 44.0968ZM99.8662 45.8157L99.6287 45.6378H99.5693L99.3318 45.46C99.2724 45.2822 99.2724 45.1637 99.2724 44.9859V44.6303L99.3318 44.4524L99.3912 44.3932L99.688 44.1561C99.8662 44.0376 99.9849 43.9783 100.104 43.7412L100.401 43.6819L100.519 43.8597V43.919H100.579C100.757 43.9783 100.935 43.9783 101.054 44.1561L100.876 44.3932L100.935 44.6303C100.935 44.9266 100.579 45.4008 100.282 45.6378L100.044 45.8157H99.9255H99.8662ZM122.784 44.3339L122.428 44.0376L122.369 43.8597C122.428 43.5634 122.666 43.3856 122.903 43.3856H122.963C123.081 43.3856 123.259 43.5041 123.438 43.7412L123.319 44.0376L123.141 44.1561L123.081 44.2154L122.784 44.3339ZM143.446 43.0892V42.7929C143.565 42.7336 143.684 42.6744 143.803 42.6744C144.04 42.6744 144.218 42.7929 144.278 43.03L144.218 43.2078C144.1 43.3263 143.981 43.3856 143.862 43.3856C143.803 43.3856 143.743 43.3856 143.684 43.3263L143.446 43.2671L143.387 42.9707L143.446 42.9114V42.9707V43.0892ZM135.847 44.3339L135.431 44.2746C135.134 44.0376 135.134 43.8005 135.134 43.6819L135.015 42.9707L135.668 42.4373L136.262 42.7336C136.262 42.7929 136.262 42.9114 136.44 43.0892L136.322 43.6819L136.203 43.8005C136.203 43.919 136.143 44.0968 135.906 44.2746L135.847 44.3339ZM96.0663 42.6744H96.1256L95.8288 42.4965L95.9475 42.2595L96.0663 41.9631C96.2444 41.9039 96.4225 41.8446 96.66 41.8446C96.8975 41.8446 97.0756 41.9038 97.3131 42.1409V42.4373L97.2537 42.4965L97.135 42.6151V42.7929L97.0756 42.9114C97.0162 42.9707 96.8975 43.03 96.8381 43.03C96.7194 43.03 96.66 43.03 96.6006 42.9707H96.5412H96.3038L96.0663 42.6744ZM170.046 43.03L169.749 42.6744V42.6151H169.808H169.69C169.63 42.4373 169.749 42.1409 169.986 41.9038H170.224C170.402 42.0817 170.58 42.3187 170.64 42.6151V42.6744L170.343 42.7929V42.8522L170.046 43.03ZM151.462 42.2595L151.284 42.1409L151.343 41.9038L151.402 41.8446C151.462 41.7853 151.521 41.6668 151.699 41.6668C151.759 41.6668 151.818 41.6668 151.877 41.726L151.937 41.7853L151.877 42.2002L151.462 42.2595ZM108.95 41.9631L108.772 41.9038H108.713L108.416 41.726V41.3111L108.535 41.1926C108.594 41.1926 108.713 41.1333 108.772 41.1333C108.95 41.1333 109.128 41.1926 109.188 41.3704C109.247 41.489 109.247 41.6668 109.188 41.9038L108.95 41.9631ZM145.821 39.5331L145.703 39.4738V39.1774L145.762 39.1182V38.8811L145.999 38.7033H146.059H146.296H146.356L146.415 38.8811L146.356 38.9996V39.0589L146.296 39.296H146.118L145.821 39.5331ZM194.33 38.0513H194.508L194.626 38.2884L194.686 38.5255L194.508 38.8218V38.7626L194.389 38.9996H194.211C194.033 38.9404 193.914 38.8218 193.855 38.644V38.1699L194.092 38.1106L194.33 38.0513ZM206.501 37.6957C206.323 37.5179 206.264 37.3401 206.323 37.2215L206.561 37.103C206.679 37.103 206.739 37.2215 206.739 37.5772L206.501 37.6957ZM134.54 36.5103L134.778 36.451L134.956 36.6288L134.897 36.9845L134.837 37.0437L134.54 37.103L134.243 36.9252L134.184 36.8659V36.6288L134.54 36.5103ZM103.132 35.6805C103.013 35.6805 102.894 35.6805 102.894 35.6213L102.775 35.562V35.2656L102.835 35.0878L103.013 34.9693C103.429 35.0286 103.488 35.2064 103.547 35.3842L103.488 35.5027C103.547 35.5027 103.547 35.5027 103.607 35.5027C103.725 35.5027 103.904 35.6213 103.963 35.7398L103.844 36.0954L103.607 36.1547L103.429 35.9176V35.8583L103.369 35.6213C103.31 35.6805 103.191 35.6805 103.132 35.6805ZM223.541 34.1395C223.363 34.021 223.423 33.8432 223.482 33.7246V33.6653L223.72 33.5468L223.957 33.6061L224.076 33.7246C224.076 34.021 223.898 34.0802 223.838 34.0802L223.541 34.1395ZM137.687 33.9617L137.568 33.6653V33.4875L137.806 33.3097C137.984 33.369 138.043 33.4875 138.043 33.5468C138.043 33.7246 137.865 33.8432 137.806 33.9024L137.687 33.9617ZM233.101 33.4283C233.041 33.4283 232.923 33.4283 232.863 33.4283L232.744 33.3097V33.2505L232.685 33.0727L232.863 32.7763L232.982 32.5392L233.041 32.4207L233.219 32.3614L233.398 32.5392H233.457L233.576 32.7763V32.8356L233.694 33.0727C233.635 33.2505 233.457 33.4283 233.101 33.4283ZM229.479 32.9541L229.182 32.7763L229.004 32.6578L228.885 32.48C228.885 32.2429 228.944 32.0058 229.123 31.8873C229.182 31.828 229.301 31.7687 229.419 31.7687C229.479 31.7687 229.598 31.7687 229.716 31.828L229.835 31.9465C229.894 32.3021 229.954 32.48 229.657 32.8356L229.479 32.9541ZM212.735 32.717L212.439 32.5392L212.379 32.48L212.32 32.3614C212.26 32.1836 212.439 32.0651 212.498 32.0058V31.8873C212.557 31.828 212.617 31.828 212.676 31.828C212.795 31.828 212.973 31.8873 213.092 32.0058L213.151 32.2429L212.973 32.4207L212.854 32.5985L212.735 32.717ZM115.541 31.7687H115.481L115.363 31.6502C115.303 31.5316 115.303 31.4131 115.363 31.2353L115.481 31.1168C115.541 31.1168 115.6 31.0575 115.66 31.0575C115.778 31.0575 115.838 31.0575 115.956 31.1168L116.016 31.3538C115.956 31.5316 115.778 31.7687 115.541 31.7687ZM142.259 31.7094L141.962 31.6502L141.843 31.4724C141.843 31.176 142.021 31.0575 142.14 31.0575L142.2 30.9982L142.378 31.0575L142.437 31.4724V31.5909L142.259 31.7094ZM147.306 32.2429C147.246 32.2429 147.187 32.2429 147.128 32.2429C146.949 32.1836 146.771 32.0651 146.712 31.8873V31.4131L147.009 31.176L147.187 31.0575L147.306 30.9982H147.365L147.484 31.176L147.603 31.2353L147.781 31.3538L147.84 31.5316V31.6502L147.899 31.8873C147.781 32.1243 147.543 32.2429 147.306 32.2429ZM117.856 31.6502L117.441 31.3538V31.176C117.5 30.9982 117.56 30.8797 117.797 30.7611L118.094 30.8204C118.153 30.9982 118.272 31.2946 118.035 31.5316L117.856 31.6502ZM210.42 31.5909L210.123 31.4131L210.004 31.2946L209.945 31.1168C209.945 30.8797 210.004 30.8204 210.123 30.7019L210.242 30.5833L210.42 30.5241L210.657 30.6426L210.836 30.7019L211.014 30.8797L210.954 31.1168L210.895 31.2353L210.836 31.176L210.895 31.4724L210.42 31.5909ZM198.367 28.983C198.426 28.9238 198.486 28.9238 198.545 28.9238C198.664 28.9238 198.783 29.0423 198.842 29.1608V29.2794H198.901L199.02 29.3387L199.139 29.5165L199.198 29.6943C199.258 29.8128 199.376 29.9314 199.258 30.1684L199.08 30.287H199.02L198.723 30.3462L198.605 30.6426L198.426 30.7019L198.308 30.6426C198.011 30.5833 197.892 30.4055 197.714 30.287L197.595 30.2277L197.536 30.0499L197.595 29.9314L197.714 29.6943L197.655 29.4572L198.011 29.2201L198.07 29.0423L198.367 28.983ZM213.21 28.8052L213.092 28.5681V28.4496C213.092 28.3311 213.092 28.2125 213.27 28.1533L213.507 28.2125L213.626 28.2718L213.804 28.4496L213.685 28.746L213.21 28.8052ZM144.456 26.6715H144.278L144.1 26.3752L144.04 26.0196L144.337 25.7825L144.634 25.9603L144.812 26.0788L144.753 26.3752L144.693 26.4344L144.575 26.6715H144.456ZM151.64 25.249L151.521 25.1898L151.284 25.012C151.284 24.6563 151.521 24.5971 151.64 24.5971L151.699 24.5378L151.937 24.4193C152.234 24.5378 152.234 24.8342 152.234 25.012L152.115 25.1305H151.937L151.64 25.249ZM115.541 24.5971L115.66 24.0636C115.838 23.9451 115.956 23.9451 116.075 23.9451C116.135 23.9451 116.194 23.9451 116.253 23.9451C116.491 24.0044 116.669 24.1822 116.847 24.4785L116.906 24.7156C116.906 24.9527 116.788 25.1898 116.61 25.3083C116.372 25.4861 116.075 25.5454 115.838 25.6047L115.66 25.6639L115.244 25.4269C115.066 25.0712 115.363 24.7749 115.481 24.5971L115.6 24.4785L115.541 24.5971ZM233.338 23.708L232.982 23.5302H232.922L232.863 23.3524L232.982 22.9968L233.16 22.8783L233.338 22.9375C233.457 22.9968 233.694 23.0561 233.754 23.2339V23.6488L233.694 23.708H233.338ZM138.281 23.1153C138.162 23.1153 138.043 23.0561 137.925 23.0561L137.747 22.9968L137.687 22.7597L137.984 22.5226L138.162 22.4041L138.34 22.3448L138.518 22.5819L138.637 22.819C138.637 23.0561 138.459 23.1153 138.281 23.1153ZM123.022 22.4041L123.141 22.2856L123.2 22.3448L123.497 22.5226V22.5819L123.556 22.5226C123.675 22.7004 123.675 22.819 123.556 23.1153L123.259 23.1746H123.2L122.844 23.2339L122.725 23.0561L122.488 22.819V22.7597L122.784 22.4041L122.844 22.3448L123.022 22.4041ZM218.554 22.4041L218.435 22.2856V22.1077L218.317 21.9299V21.8707C218.376 21.515 218.554 21.3372 218.673 21.2187L218.851 21.1594L219.029 21.2187L219.326 21.3965C219.623 21.3965 219.86 21.8114 219.801 22.1077L219.682 22.2263L219.445 22.3448C219.326 22.4634 219.267 22.5226 219.088 22.5226C219.029 22.5226 218.97 22.5226 218.851 22.5226H218.792V22.4041H218.732H218.554ZM160.427 21.6929C160.249 21.5743 160.249 21.3372 160.368 21.0409L160.427 20.9816H160.902L161.08 21.0409L161.199 21.2187C161.199 21.6336 160.902 21.6929 160.784 21.6929L160.665 21.7521H160.427V21.6929ZM217.545 21.7521L217.426 21.4558V21.3372V21.278C217.367 21.1594 217.248 20.9223 217.485 20.8038L217.604 20.7445L218.02 20.8631L218.138 21.0409V21.2187C218.138 21.3372 218.138 21.515 217.96 21.6929H217.723L217.663 21.6336L217.545 21.7521ZM178.18 20.8631L178.002 20.6853V20.626C178.002 20.3889 178.121 20.3297 178.18 20.2704L178.239 20.1518L178.418 20.0333C178.833 20.1518 178.774 20.5075 178.774 20.7445L178.477 20.8038L178.418 20.8631H178.18ZM176.993 19.4999L176.814 19.3221C176.755 19.1443 176.874 18.9664 176.993 18.8479L177.052 18.7886L177.171 18.7294L177.468 18.8479H177.527L177.586 18.9664H177.646L177.705 19.2628L177.349 19.4999L177.23 19.5591L176.993 19.4999ZM218.376 18.3145L218.257 18.2552L218.317 17.7811L218.613 17.6032L218.732 17.6625L218.673 18.1367L218.376 18.3145ZM134.481 17.0105L134.54 16.7735L134.837 16.7142L135.134 17.0105L135.193 17.1291L135.015 17.4254L134.659 17.6032H134.54L134.303 17.4847C134.244 17.3069 134.362 17.1291 134.422 17.0698L134.481 17.0105ZM230.548 17.0698L230.429 16.8327L230.548 16.7142L230.726 16.5957L230.844 16.6549L230.963 16.8327L230.844 17.0698H230.548ZM148.018 17.0105C147.781 17.0105 147.543 16.9513 147.365 16.5957V16.24C147.484 15.9437 147.781 15.8844 147.959 15.8844L148.018 15.7066C148.137 15.5881 148.256 15.5881 148.374 15.5881C148.434 15.5881 148.493 15.5881 148.553 15.6473C148.909 15.8252 148.968 16.24 149.028 16.4178L148.671 16.9513L148.493 17.0105C148.374 16.9513 148.196 17.0105 148.018 17.0105ZM139.29 16.4178H139.468L138.934 16.0622C138.934 15.2917 139.409 14.7583 140.003 14.7583C140.121 14.7583 140.3 14.8176 140.478 14.8768L140.715 15.1732C140.834 15.8251 140.656 16.0622 140.3 16.3586L139.884 16.7142L139.231 16.4178V16.2993L139.29 16.4178ZM190.352 16.003L190.173 15.7066L190.233 15.5881C190.233 15.5881 190.233 15.5288 189.936 15.4103L189.58 15.351L189.461 15.1732C189.461 14.9954 189.58 14.8768 189.698 14.8176L189.758 14.7583V14.5805L190.233 14.699L190.352 14.8176H190.53H190.589L190.767 14.9954V15.0546L191.123 15.1732L191.242 15.351C191.183 15.5288 191.302 15.6473 191.42 15.7066V16.003L191.361 16.0622C191.242 16.1808 191.064 16.3586 190.827 16.3586C190.827 16.3586 190.827 16.3586 190.767 16.3586H190.708L190.53 16.1215L190.47 16.0622L190.352 16.003ZM156.034 16.0622L155.737 16.003L155.559 15.7066C155.321 15.6473 155.143 15.5288 155.084 15.4103V14.8176C155.44 14.4619 155.737 14.3434 155.974 14.3434C156.33 14.3434 156.568 14.5805 156.746 14.8176L156.924 14.9954L156.984 15.5288L156.805 15.7066C156.568 15.9437 156.33 16.0622 156.034 16.0622ZM151.996 14.699H151.581C151.402 14.5805 151.284 14.3434 151.224 14.0471C151.224 13.6914 151.343 13.3358 151.581 13.0987C151.699 12.9802 151.877 12.9209 151.996 12.9209C152.174 12.9209 152.412 13.0395 152.59 13.2173L152.471 13.81L152.352 13.8692C152.471 14.2249 152.293 14.4619 152.115 14.5805L151.996 14.699ZM191.302 13.5729L191.064 13.3951L191.005 13.2173C190.945 13.0987 190.945 12.9209 190.945 12.7431L191.183 12.6246L191.42 12.6839L191.539 12.9209V13.0987C191.539 13.2173 191.598 13.4544 191.302 13.5729ZM150.453 13.2766C150.334 13.2766 150.215 13.2173 150.096 13.0987V12.9209L150.393 12.7431V12.6246L150.69 12.5653L150.927 12.9802L150.749 13.2173H150.69C150.631 13.2173 150.512 13.2766 150.453 13.2766ZM178.477 13.5729C178.299 13.2765 178.002 12.7431 178.536 12.3282H178.774L178.833 12.3875C178.892 12.3875 178.952 12.3282 179.011 12.3282C179.071 12.3282 179.13 12.3282 179.189 12.3875L179.308 12.506L179.367 12.6246L179.427 12.7431L179.605 12.9209L179.664 13.0987C179.605 13.2766 179.546 13.3951 179.427 13.4544L179.367 13.5136H179.189L179.13 13.5729L178.952 13.6914H178.833L178.714 13.6322L178.655 13.5729H178.774H178.477ZM146.178 12.9802H146.237L145.94 12.8024C145.94 12.4468 146.178 12.2097 146.474 12.2097C146.534 12.2097 146.593 12.2097 146.712 12.269L146.831 12.3875C146.89 12.7431 146.771 12.8617 146.653 12.9802L146.474 13.158L146.178 12.9802ZM154.371 12.8024L154.252 12.7431L154.134 12.6246L153.896 12.506V12.2097C154.074 12.0319 154.252 11.9726 154.371 11.9726C154.549 11.9726 154.668 12.0912 154.787 12.2097L154.846 12.269V12.5653L154.727 12.6839L154.371 12.8024ZM134.125 12.4468L133.828 12.3875L133.709 12.269L133.65 11.9726C133.769 11.9133 133.828 11.8541 133.887 11.8541C133.947 11.8541 134.006 11.8541 134.065 11.9133C134.243 12.0319 134.243 12.269 134.243 12.3875L134.125 12.4468ZM204.067 11.617L204.245 11.4392L204.483 11.5577V11.617L204.661 11.6763L204.779 11.7948V11.9726L204.958 12.1504L204.898 12.3282L204.779 12.3875L204.661 12.4468L204.542 12.506L204.483 12.5653L204.304 12.6246L204.067 12.6839L203.948 12.506V12.3282L203.829 11.9726V11.7355L204.067 11.617ZM176.636 14.1656L176.399 14.1063C176.043 13.81 175.805 13.5729 175.271 12.9802L175.449 12.3875C175.746 12.3282 175.746 12.2097 175.805 12.0912C175.983 11.9133 176.161 11.6763 176.518 11.4985L177.052 11.6763L177.111 11.7948L177.171 12.0319H177.289L177.586 12.1504C177.824 12.3875 177.883 12.6839 177.883 12.9802C177.883 13.3358 177.646 13.6914 177.349 13.9285C177.171 13.9878 176.933 14.1063 176.636 14.1656ZM152.174 12.0912L151.996 11.7948C151.996 11.617 152.056 11.4392 152.174 11.3206L152.649 11.3799L152.59 11.6763L152.531 11.7355L152.412 12.0319L152.352 12.0912H152.174ZM179.842 11.3206C179.842 11.3206 179.783 11.3206 179.724 11.3206L179.664 11.0243L179.724 10.965C179.783 10.9058 179.842 10.7872 180.021 10.7872C180.08 10.7872 180.139 10.7872 180.199 10.8465V11.1428L180.139 11.2021C180.08 11.2021 180.021 11.3206 179.842 11.3206ZM164.524 11.8541L164.405 11.7948C164.227 11.6763 164.108 11.5577 163.871 11.2614L163.99 10.965L164.168 10.8465C164.227 10.7872 164.346 10.6687 164.524 10.5501L164.821 10.6687V10.728L164.88 10.8465H164.94L165.118 10.9058L165.296 11.3206C165.296 11.4985 165.177 11.6763 165.058 11.7948L164.524 11.8541ZM249.963 10.6687L249.844 10.3131L250.022 10.0167H250.141H250.2L250.319 10.1945L250.2 10.5501L249.963 10.6687ZM196.17 9.42402L195.992 9.24621V9.12767C195.933 9.00913 195.933 8.89059 196.051 8.71278L196.23 8.59424L196.408 8.65351C196.586 8.65351 196.705 8.71278 196.823 8.83132L196.883 9.0684V9.12767L196.823 9.0684L196.942 9.36475L196.883 9.54255L196.705 9.66109H196.586L196.289 9.48328L196.23 9.42402H196.17ZM210.836 9.12767C210.361 9.00913 209.945 8.65351 210.004 8.06081L210.064 7.94227C210.182 7.883 210.361 7.82373 210.539 7.82373C210.657 7.82373 210.717 7.82373 210.836 7.883L211.073 8.00154L211.192 8.17935L211.31 8.29789L211.251 8.59424L211.192 8.65351L211.132 8.53497H211.073L211.192 8.71278V8.65351L211.251 8.77205L211.014 8.89059L210.836 9.12767ZM156.33 7.82373L156.568 7.64592L156.687 7.76446L156.746 7.94227L156.687 8.12008L156.509 8.23862H156.449L156.33 8.17935H156.271L156.152 7.94227L156.33 7.76446H156.39L156.33 7.82373ZM144.278 8.59424L144.04 8.35716V8.29789L143.803 8.12008V7.82373L143.862 7.76446L143.981 7.58665L144.04 7.52738L144.278 7.58665L144.337 7.76446H144.396L144.575 8.00154L144.515 8.17935C144.575 8.35716 144.515 8.4757 144.456 8.53497L144.278 8.59424ZM246.163 8.06081H246.103L245.925 7.94227L245.866 7.76446L246.103 7.58665L246.341 7.46811L246.46 7.883C246.4 7.94227 246.282 8.06081 246.163 8.06081ZM210.895 7.70519L210.657 7.64592H210.479L210.242 7.52738L210.182 7.2903L210.064 7.05322C210.123 6.81614 210.242 6.69761 210.301 6.63834L210.361 6.57907H210.598L210.895 6.75688L210.776 6.87542H211.073C211.132 7.17176 211.014 7.46811 210.895 7.64592V7.70519ZM232.21 6.75688H232.032L231.973 6.69761V6.34199V6.28272C232.032 6.16418 232.091 6.04564 232.269 6.04564C232.329 6.04564 232.388 6.04564 232.448 6.04564L232.804 6.28272V6.46053L232.685 6.57907L232.566 6.69761H232.21V6.75688ZM171.649 6.57907H171.411L171.293 6.28272C171.293 6.10491 171.53 5.98637 171.708 5.98637H171.768L171.946 6.04564L172.005 6.10491L171.946 6.40126L171.649 6.57907ZM173.668 2.25237L173.846 2.13383H174.024L174.143 2.31164L174.261 2.43018L174.143 2.60799L174.083 2.72653L173.846 2.96361H173.786L173.608 2.7858H173.489C173.311 2.72653 173.311 2.60799 173.371 2.37091L173.608 2.25237H173.668ZM191.242 3.3785L190.708 3.31923C190.589 3.14142 190.411 2.90434 190.411 2.66726C190.47 2.31164 190.886 2.13383 191.242 2.07456H191.42L191.777 2.1931L191.895 2.31164L191.836 2.84507L191.242 3.3785ZM194.626 0.00012207C171.708 0.00012207 141.487 3.85266 116.253 20.3297C116.253 20.3297 59.0765 51.9797 53.6141 97.1433C53.6141 97.1433 51.061 111.487 51.061 126.66C51.061 136.439 52.1298 146.574 55.6328 153.509C64.5982 171.171 106.397 210.586 131.453 214.083C140.953 215.386 150.868 215.92 160.249 215.92C186.314 215.92 208.817 212.186 208.817 212.186C208.817 212.186 285.943 201.636 318.599 111.249C320.321 106.449 321.627 101.885 322.517 97.4989C322.399 97.4396 322.28 97.3211 322.22 97.2025L322.161 97.1433L322.102 96.8469C322.22 96.6691 322.399 96.4913 322.577 96.4913C322.577 96.4913 322.577 96.4913 322.636 96.4913H322.695C323.645 91.6312 324.061 87.0081 324.061 82.6814C324.061 17.7218 229.419 3.02288 229.419 3.02288C229.419 3.02288 214.932 0.00012207 194.626 0.00012207Z" fill="#7AB629"/>
<path fill-rule="evenodd" clip-rule="evenodd" d="M241.109 43.1345L241.109 43.1348L241.109 43.135L241.109 43.1353L241.108 43.1356L241.108 43.1359L241.108 43.1362C241.056 43.3329 241.005 43.5234 240.948 43.6949C238.313 51.3545 236.938 59.2999 236.021 67.4168C240.088 60.1574 243.067 52.5549 243.812 44.2093C243.822 44.0309 243.844 43.837 243.867 43.6369C243.975 42.683 244.099 41.5875 243.01 41.3513C241.674 41.018 241.371 42.1518 241.109 43.1345ZM262.487 60.2717C261.399 59.5857 259.852 59.1285 259.165 60.7861C259.064 61.0423 258.957 61.2971 258.85 61.5529C258.287 62.8954 257.712 64.2686 257.904 66.045C259.68 64.9589 261.055 63.8728 262.029 62.4438C262.131 62.2836 262.307 62.1234 262.489 61.9585C263.021 61.4761 263.597 60.9532 262.487 60.2717ZM273.985 76.2397C274.372 75.6045 274.759 74.9689 275.147 74.3334C276.052 72.8603 277.392 71.9402 278.74 71.0149C279.014 70.8272 279.288 70.6392 279.558 70.4464C279.167 71.3445 278.778 72.2434 278.39 73.1415L278.389 73.1451L278.389 73.1454C275.542 79.7346 272.713 86.2831 268.731 92.1677C265.409 97.1408 256.988 96.4548 253.608 91.4818C252.118 89.3096 250.572 84.9654 250.171 81.8215C249.623 82.5621 249.08 83.281 248.547 83.9881L248.546 83.9892C247.35 85.574 246.199 87.1001 245.13 88.6809C244.041 90.3385 242.609 91.6533 241.177 92.968C237.453 96.4548 234.532 95.9404 230.865 91.5389C228.631 88.9095 227.944 85.4798 227.772 82.1645C227.142 68.7316 228.459 55.6416 234.589 43.4091C234.99 42.6088 235.391 41.8657 235.907 41.1798C237.682 38.8933 240.146 37.6358 242.953 38.436C245.989 39.2363 246.504 41.98 246.275 44.6666C245.645 53.5266 242.609 61.7579 238.255 69.3032C234.818 75.248 234.188 81.1356 235.276 87.5948C235.303 87.7689 235.323 87.9482 235.344 88.1288C235.461 89.1346 235.583 90.1795 236.651 90.5672C237.839 91.0311 238.701 90.1471 239.447 89.3821L239.449 89.3809C239.529 89.2979 239.609 89.2164 239.687 89.1382C245.76 83.0791 250.744 76.5055 251.202 67.474C251.374 65.0161 252.519 62.7296 253.78 60.5575C256.243 56.3847 261.284 55.413 265.065 58.4425C267.299 60.2145 267.643 62.6725 265.867 64.9589C264.091 67.2454 261.685 68.6744 259.05 69.6461C257.331 70.2749 256.988 71.1895 256.988 72.79C257.102 78.2203 258.534 83.422 260.31 88.5094C261.456 91.6533 263.977 91.8819 265.867 89.081C268.715 84.8931 271.345 80.5747 273.985 76.2397ZM212.763 95.3116C211.617 92.625 212.247 90.9101 215.513 87.4233C215.054 90.51 214.081 92.8536 212.763 95.3116ZM198.064 106.173C198.006 103.126 197.944 99.8018 197.296 94.4541L196.036 86.623C195.635 87.7663 195.463 88.2807 195.291 88.8523C194.79 91.0205 193.861 92.9758 192.929 94.94L192.929 94.9401L192.929 94.9401L192.929 94.9402L192.929 94.9403L192.929 94.9403L192.929 94.9404C192.583 95.6688 192.236 96.3985 191.911 97.1407C190.593 100.056 188.073 101.199 185.151 100.799C182.516 100.399 181.256 98.2839 180.626 95.7688C179.687 92.2183 179.558 88.5828 179.43 84.9722C179.409 84.3975 179.389 83.8235 179.366 83.2505C179.317 82.3711 179.299 81.4917 179.281 80.6167C179.258 79.4443 179.235 78.2799 179.136 77.1342C179.115 76.9305 179.109 76.7086 179.104 76.4811C179.08 75.4959 179.054 74.4048 177.704 74.219C176.329 74.0475 175.585 75.2479 175.012 76.2768C172.634 80.5798 171.645 85.3086 170.651 90.0524L170.651 90.0524L170.651 90.0525L170.651 90.0526L170.651 90.0526L170.651 90.0527L170.651 90.0527L170.544 90.5672C170.357 91.5325 170.18 92.5029 170.003 93.4753L170.003 93.4757C169.583 95.7852 169.16 98.1062 168.596 100.399C168.549 100.596 168.514 100.812 168.478 101.034C168.298 102.158 168.095 103.42 166.132 103.085C164.299 102.743 163.211 101.999 162.925 99.9416C162.065 93.7682 160.977 87.5948 159.888 81.4215L159.888 81.4213C159.844 81.1273 159.838 80.7841 159.831 80.4346C159.813 79.425 159.793 78.3624 158.857 78.2775C157.286 78.1655 156.814 79.9737 156.472 81.2834L156.451 81.3642C154.915 87.1468 154.152 93.0301 153.389 98.9113C153.157 100.704 152.925 102.496 152.67 104.286C152.625 104.615 152.639 105.015 152.653 105.423V105.423V105.423V105.423V105.423V105.423V105.423C152.694 106.576 152.736 107.8 151.467 107.716C151.244 107.704 151.01 107.697 150.769 107.69H150.769C148.664 107.628 146.065 107.551 145.911 104.114C145.874 103.042 145.717 101.97 145.548 100.82C145.457 100.193 145.361 99.5419 145.281 98.8556C144.456 99.716 144.023 100.625 143.598 101.52C143.374 101.992 143.152 102.46 142.875 102.914C140.182 107.315 134.969 107.716 132.391 103.257C128.267 96.2261 127.465 88.3379 127.637 80.3353C127.694 78.106 129.241 77.5344 131.016 77.6487L131.038 77.65C132.922 77.7639 134.97 77.8877 135.141 80.6211C135.542 86.1657 136.344 91.6532 137.719 97.0264C137.786 97.2803 137.828 97.5592 137.87 97.842C138.009 98.7685 138.155 99.736 139.208 99.9988C140.284 100.312 140.834 99.26 141.324 98.322C141.46 98.0613 141.592 97.8094 141.729 97.598C145.109 92.2248 145.051 86.623 144.536 80.7354C144.364 78.9634 144.192 77.1342 144.307 75.3622C144.332 75.0542 144.309 74.7116 144.285 74.3622C144.203 73.1556 144.115 71.8684 146.025 71.6468C148.374 71.4181 150.093 72.5042 150.78 74.6763C151.639 77.3629 151.983 80.1638 151.41 83.3648C152.832 82.6758 153.073 81.5558 153.297 80.514C153.388 80.0866 153.478 79.6723 153.644 79.3064C153.796 78.9765 153.942 78.6416 154.087 78.3072C155.152 75.8608 156.205 73.4416 159.43 73.1901C162.18 73.0186 164.586 75.991 165.56 80.1638C166.005 82.1891 166.494 84.1716 167.099 86.628L167.099 86.6284L167.099 86.6305L167.099 86.6313C167.194 87.0164 167.292 87.4131 167.393 87.8234C167.885 86.3042 168.243 84.871 168.584 83.5042L168.584 83.504L168.584 83.5039L168.584 83.5038C169.077 81.5282 169.536 79.6914 170.314 77.9345C171.46 75.3622 172.835 72.9615 174.897 71.1323C179.136 67.3597 184.693 69.1317 185.896 74.7335C186.755 78.7348 187.328 82.7932 187.156 86.9088C187.071 88.7304 187.27 90.5834 187.471 92.4678L187.471 92.4681L187.471 92.4684L187.471 92.4688L187.471 92.469L187.471 92.4692L187.471 92.4694C187.542 93.1272 187.613 93.7887 187.672 94.4541C189.11 94.3196 189.491 93.4109 189.837 92.584C189.932 92.3569 190.024 92.136 190.135 91.939C193.63 85.4798 195.692 78.7919 194.145 71.3609C194.109 71.1642 194.051 70.9436 193.989 70.7096C193.656 69.4478 193.219 67.7936 195.635 67.3597C198.041 66.9595 200.275 66.7309 201.535 69.3603C201.832 69.9859 202.148 70.5925 202.494 71.2567C202.749 71.7455 203.019 72.2655 203.311 72.8471C206.061 69.0173 209.498 66.7309 214.367 67.3597C218.033 67.8169 220.554 69.6461 221.814 73.1901C223.762 78.8491 224.85 84.5652 223.074 90.3957C222.043 93.7682 220.84 97.0836 216.487 97.9981C211.904 98.9699 208.581 96.0546 209.67 91.4817C210.3 88.8523 211.846 86.7373 214.023 85.0797C215.112 84.2794 216.257 83.422 215.971 81.9358C215.916 81.6177 215.861 81.2995 215.807 80.9815C215.352 78.3284 214.899 75.6851 214.081 73.1329C213.049 69.9319 211.045 69.7604 208.925 72.5042C205.66 76.7341 204.858 82.9647 205.087 88.1664C205.402 94.465 205.373 97.7522 205.344 100.973V100.973C205.316 104.183 205.288 107.326 205.602 113.317C206.118 122.806 202.509 122.406 202.509 122.406C201.019 122.463 199.702 121.491 199.53 120.463C198.203 113.617 198.138 110.128 198.064 106.173ZM113.201 136.868C118.184 136.068 122.538 133.838 124.085 128.465C125.574 123.263 126.434 118.062 124.371 112.631C122.238 106.973 118.783 102.193 115.303 97.3768L115.091 97.0835C110.68 91.0816 106.899 84.7367 104.493 77.6487C103.577 74.9049 103.004 72.104 105.582 69.7604C108.274 67.3596 111.425 66.4451 114.976 67.1882C116.81 67.5883 117.669 68.7887 117.669 70.675C117.669 72.8471 117.783 75.0193 117.955 77.1914C118.013 78.0488 118.7 78.6204 119.502 78.9062C120.304 79.1349 120.705 78.5061 121.049 77.9345C124.257 72.6185 119.674 63.3012 113.372 62.9011C107.243 62.5009 101.686 64.2158 98.0771 69.5318C94.7545 74.3905 94.64 79.7636 97.2751 84.9653C99.5092 89.4239 101.858 93.7682 104.722 97.8838C105.021 98.3087 105.321 98.7332 105.621 99.1578L105.621 99.158L105.621 99.1581L105.621 99.1583L105.621 99.1585L105.622 99.1603C108.832 103.705 112.055 108.267 113.888 113.546C113.989 113.829 114.092 114.112 114.194 114.395C116.058 119.543 117.927 124.707 114.289 130.18C112.399 133.038 110.451 133.781 107.644 131.78C102.488 128.122 100.197 123.035 100.77 115.604C100.749 115.341 100.736 114.927 100.72 114.418C100.691 113.491 100.651 112.249 100.54 111.031C100.426 109.773 99.5092 109.145 98.3062 109.03C96.9314 108.916 96.5877 109.773 96.3012 111.031C94.7545 118.348 96.244 125.035 100.941 130.809C104.092 134.581 107.873 137.725 113.201 136.868ZM235.047 117.319C234.417 121.663 233.902 126.064 234.704 130.637C235.563 130.466 235.792 129.951 235.907 129.437C236.271 128.023 236.685 126.623 237.099 125.225L237.1 125.224L237.1 125.224C237.857 122.666 238.613 120.114 239.057 117.49C239.29 116.33 239.032 115.321 238.773 114.31C238.713 114.075 238.653 113.84 238.599 113.603C238.484 113.089 238.141 112.574 237.511 112.46C236.684 112.295 236.494 112.87 236.277 113.524L236.25 113.603C236.113 114.035 235.948 114.46 235.784 114.883L235.784 114.883L235.784 114.883L235.784 114.883L235.784 114.883C235.47 115.692 235.16 116.493 235.047 117.319ZM260.603 144.151C262.123 141.356 263.644 138.559 266.096 136.353H266.096C266.44 136.353 266.726 136.353 266.898 136.296C265.065 142.012 262.487 147.328 258.993 152.244C257.732 154.073 255.956 155.274 253.551 154.874C251.145 154.474 250.285 152.53 249.712 150.587C248.051 145.042 248.452 139.326 248.91 133.667C248.921 133.547 248.941 133.425 248.961 133.298L248.961 133.297C249.046 132.759 249.145 132.134 248.681 131.209C248.388 131.632 248.093 132.052 247.8 132.47L247.8 132.47L247.8 132.471L247.8 132.471C244.091 137.764 240.576 142.781 240.948 149.615C240.973 150.118 241.072 150.65 241.173 151.192C241.518 153.052 241.885 155.032 239.401 156.36C236.823 157.789 235.162 157.16 234.532 154.359C234.446 153.959 234.331 153.573 234.217 153.187C234.102 152.802 233.987 152.416 233.902 152.016C233.795 151.556 233.733 151.118 233.66 150.608C233.615 150.293 233.566 149.95 233.501 149.558C232.59 150.971 231.791 152.395 231.005 153.796L231.005 153.797L231.005 153.797L231.005 153.797C230.011 155.569 229.038 157.304 227.887 158.932C223.59 164.991 217.747 162.248 215.627 157.732C214.825 156.074 214.138 154.416 214.081 152.587C214.31 151.501 214.081 150.529 213.794 149.443L213.508 149.615L213.451 149.501C213.508 149.158 213.05 149.558 213.451 149.615C213.05 149.844 212.82 150.244 212.82 150.758C212.543 151.233 212.285 151.729 212.028 152.226L212.027 152.226L212.027 152.226L212.027 152.227L212.027 152.227C211.54 153.165 211.051 154.109 210.414 154.931C207.264 159.046 203.025 158.875 200.16 154.588C199.718 153.906 199.304 153.196 198.839 152.399L198.839 152.399L198.839 152.399L198.838 152.397C198.641 152.059 198.434 151.704 198.213 151.33C197.923 151.962 197.656 152.571 197.398 153.162L197.397 153.162C196.838 154.439 196.319 155.626 195.692 156.76C193.057 161.504 187.844 161.79 184.521 157.446C182.745 155.102 181.943 152.359 181.542 149.558C180.855 144.127 180.97 138.64 182.115 133.21C182.459 131.438 183.146 130.123 184.808 130.066C186.469 130.009 188.188 130.523 189.047 132.409C189.62 133.667 189.677 134.924 189.677 136.239V152.702C189.677 152.845 189.674 152.996 189.671 153.151L189.671 153.152C189.647 154.357 189.618 155.821 190.937 156.074C192.142 156.363 192.779 155.154 193.326 154.117C193.43 153.921 193.53 153.731 193.63 153.559C196.838 147.729 197.582 141.326 198.327 134.867C198.37 134.502 198.379 134.1 198.388 133.69C198.426 131.914 198.468 129.962 201.306 130.009C204.056 130.066 205.66 132.123 205.774 135.382C205.839 137.307 205.789 139.232 205.74 141.157C205.658 144.319 205.576 147.481 206.003 150.644C206.033 150.835 206.032 151.046 206.031 151.259C206.028 151.872 206.025 152.504 206.748 152.759C207.647 153.023 208.155 152.312 208.589 151.707C208.625 151.656 208.661 151.607 208.696 151.558L208.903 151.249C211.127 147.924 213.336 144.622 213.336 140.298C213.336 137.811 213.473 135.297 213.614 132.7C213.677 131.535 213.741 130.354 213.794 129.151C211.102 130.409 208.868 130.18 207.149 127.951C207.235 127.779 207.278 127.651 207.307 127.565C207.335 127.479 207.35 127.436 207.378 127.436C211.054 126.548 212.887 126.105 213.924 124.948C214.955 123.797 215.199 121.94 215.685 118.233V118.233C215.857 117.033 216.028 115.832 216.257 114.632C216.601 113.203 217.117 112.003 219.065 112.174C220.84 112.346 222.043 113.146 222.273 114.861C222.455 116.207 222.521 117.554 222.59 118.945C222.629 119.739 222.668 120.547 222.731 121.377L223.159 121.224L223.16 121.224L223.161 121.223L223.161 121.223C225.217 120.487 227.039 119.835 228.86 119.034C228.999 118.984 229.138 118.926 229.275 118.869C229.931 118.594 230.554 118.334 230.98 119.091C231.61 120.234 230.579 120.806 229.72 121.034C228.301 121.361 227.114 122.148 225.937 122.928C225.261 123.377 224.588 123.823 223.877 124.178C222.158 125.035 221.471 126.236 221.413 127.951C221.386 128.566 221.358 129.181 221.33 129.795C220.946 138.261 220.563 146.678 222.273 155.045C222.322 155.268 222.353 155.51 222.384 155.754C222.497 156.639 222.615 157.565 223.647 157.789C224.591 157.938 225.191 157.141 225.744 156.404C225.829 156.292 225.912 156.18 225.996 156.074C227.971 153.611 229.355 150.823 230.742 148.028L230.743 148.028C231.287 146.932 231.831 145.835 232.412 144.756C232.859 143.946 232.672 143.193 232.485 142.437C232.408 142.126 232.331 141.814 232.298 141.498C231.037 131.266 230.693 121.091 234.474 111.202C235.219 109.316 236.136 107.544 237.969 106.344C241.521 104 244.958 105.429 246.046 109.602C246.951 113.101 246.013 116.432 245.107 119.652L245.072 119.777C243.697 124.75 241.979 129.608 240.26 134.467C239.687 135.953 239.63 137.325 240.031 139.212C240.857 138.034 241.488 136.809 242.102 135.618C242.977 133.919 243.816 132.291 245.13 130.98C246.848 129.208 248.624 127.722 251.259 128.637C253.894 129.551 254.983 131.666 255.04 134.296C255.069 136.382 255.054 138.468 255.04 140.555C255.026 142.641 255.011 144.728 255.04 146.814C255.052 147.087 255.041 147.389 255.028 147.698V147.699C254.985 148.817 254.937 150.032 256.014 150.301C257.059 150.561 257.607 149.502 258.112 148.526C258.272 148.218 258.427 147.918 258.592 147.671C259.31 146.528 259.956 145.34 260.603 144.151ZM155.592 119.834C157.15 119.461 158.606 119.409 160.081 119.356C161.317 119.313 162.566 119.268 163.898 119.034C164.225 118.977 164.534 118.948 164.813 118.923C165.657 118.844 166.219 118.793 166.133 118.062C165.998 117.031 164.841 117.019 163.63 117.007C163.297 117.004 162.96 117 162.638 116.976C154.274 116.29 146.369 116.233 138.865 118.29C137.423 118.679 136.273 118.83 135.018 118.995L135.018 118.995C134.428 119.072 133.814 119.152 133.136 119.262C132.048 119.434 130.615 120.062 130.386 121.206C130.201 122.225 130.843 122.418 131.672 122.668L131.672 122.668L131.672 122.668C131.866 122.726 132.07 122.788 132.277 122.863C133.704 123.433 135.132 123.278 136.581 123.121C137.166 123.058 137.755 122.994 138.349 122.978C143.906 122.749 144.479 123.721 144.536 129.094C144.65 137.782 145.281 146.471 146.77 155.045C147.065 156.702 147.305 158.371 147.545 160.041C148.192 164.535 148.838 169.029 150.551 173.28C151.238 175.052 152.269 177.224 154.675 176.595C156.852 176.023 157.024 174.023 157.024 171.851C156.985 164.076 156.235 156.329 155.435 148.064L155.435 148.064L155.435 148.064L155.435 148.063C155.077 144.357 154.708 140.546 154.389 136.582C154.161 135.398 154.169 133.624 154.178 131.637C154.192 128.635 154.208 125.146 153.415 122.463C152.9 120.691 154.561 120.062 155.592 119.834ZM172.148 134.581C174.153 131.781 177.303 131.609 179.251 134.067C179.824 134.867 180.11 135.61 179.48 136.239C178.793 136.925 177.876 137.039 177.189 136.353C174.801 133.971 173.88 135.867 172.971 137.739L172.95 137.782C169.856 143.956 169.799 150.587 169.856 157.274C169.856 157.477 169.86 157.682 169.864 157.888C169.9 159.773 169.936 161.704 166.992 161.962C164.872 162.133 163.841 161.447 163.44 159.447L163.44 159.446L163.44 159.445C162.466 154.473 161.492 149.5 160.404 144.528C159.946 142.413 159.43 140.298 158.628 138.297C157.712 136.01 158.685 135.382 160.748 135.325C163.326 135.267 166.075 137.211 166.935 139.84C167.224 140.756 167.473 141.671 167.75 142.69L167.751 142.691L167.815 142.929L167.908 143.27C168.94 140.012 170.314 137.154 172.148 134.581ZM128.038 64.2158C145.51 64.3873 143.39 46.3243 143.39 46.3243C143.39 46.3243 125.173 47.0674 128.038 64.2158ZM129.069 67.5312C129.069 67.5312 128.782 68.5601 129.412 68.5601C139.95 68.2877 144.607 59.656 145.07 58.7968C145.078 58.7832 145.084 58.7715 145.089 58.7619C145.096 58.7507 145.102 58.7395 145.109 58.7283C145.107 58.7301 145.1 58.7415 145.089 58.7619C139.015 69.2994 129.069 67.5312 129.069 67.5312Z" fill="white"/>
</g>
<path d="M95.1953 241.623H86.6602V264.767H79.8047V241.623H71.4258V236.33H95.1953V241.623ZM121.875 264.767H115.059V252.892H104.961V264.767H98.1055V236.33H104.961V247.619H115.059V236.33H121.875V264.767ZM143.867 252.717H133.086V259.494H145.82V264.767H126.23V236.33H145.859V241.623H133.086V247.619H143.867V252.717ZM158.574 264.767V236.33H168.789C172.448 236.33 175.228 237.001 177.129 238.342C179.043 239.683 180 241.629 180 244.182C180 245.653 179.661 246.909 178.984 247.951C178.307 248.993 177.311 249.761 175.996 250.256C177.48 250.646 178.62 251.376 179.414 252.443C180.208 253.511 180.605 254.813 180.605 256.349C180.605 259.136 179.72 261.232 177.949 262.639C176.191 264.032 173.581 264.741 170.117 264.767H158.574ZM165.43 252.678V259.494H169.922C171.159 259.494 172.109 259.214 172.773 258.654C173.438 258.081 173.77 257.28 173.77 256.252C173.77 253.882 172.591 252.691 170.234 252.678H165.43ZM165.43 248.185H169.004C170.501 248.172 171.569 247.899 172.207 247.365C172.845 246.831 173.164 246.043 173.164 245.002C173.164 243.804 172.819 242.945 172.129 242.424C171.439 241.89 170.326 241.623 168.789 241.623H165.43V248.185ZM202.031 252.717H191.25V259.494H203.984V264.767H184.395V236.33H204.023V241.623H191.25V247.619H202.031V252.717ZM229.492 241.623H220.957V264.767H214.102V241.623H205.723V236.33H229.492V241.623ZM255.039 241.623H246.504V264.767H239.648V241.623H231.27V236.33H255.039V241.623ZM275.586 252.717H264.805V259.494H277.539V264.767H257.949V236.33H277.578V241.623H264.805V247.619H275.586V252.717ZM290.898 254.728H287.188V264.767H280.332V236.33H291.523C294.896 236.33 297.533 237.079 299.434 238.576C301.335 240.073 302.285 242.189 302.285 244.924C302.285 246.903 301.882 248.543 301.074 249.846C300.28 251.148 299.03 252.202 297.324 253.01L303.262 264.474V264.767H295.918L290.898 254.728ZM287.188 249.435H291.523C292.826 249.435 293.802 249.097 294.453 248.42C295.117 247.73 295.449 246.773 295.449 245.549C295.449 244.325 295.117 243.368 294.453 242.678C293.789 241.974 292.812 241.623 291.523 241.623H287.188V249.435ZM54.1797 297.139C54.0885 299.118 53.5547 300.869 52.5781 302.392C51.6016 303.903 50.2279 305.075 48.457 305.908C46.6992 306.741 44.6875 307.158 42.4219 307.158C38.6849 307.158 35.7422 305.941 33.5938 303.506C31.4453 301.071 30.3711 297.633 30.3711 293.193V291.787C30.3711 289.001 30.8529 286.566 31.8164 284.482C32.793 282.386 34.1927 280.771 36.0156 279.639C37.8385 278.493 39.9479 277.92 42.3438 277.92C45.7943 277.92 48.5677 278.831 50.6641 280.654C52.7604 282.464 53.9518 284.964 54.2383 288.154H47.4023C47.3503 286.422 46.9141 285.179 46.0938 284.424C45.2734 283.668 44.0234 283.291 42.3438 283.291C40.638 283.291 39.388 283.929 38.5938 285.205C37.7995 286.481 37.3828 288.519 37.3438 291.318V293.33C37.3438 296.364 37.7214 298.532 38.4766 299.834C39.2448 301.136 40.5599 301.787 42.4219 301.787C43.9974 301.787 45.2018 301.416 46.0352 300.674C46.8685 299.932 47.3112 298.753 47.3633 297.139H54.1797ZM81.1914 306.767H74.375V294.892H64.2773V306.767H57.4219V278.33H64.2773V289.619H74.375V278.33H81.1914V306.767ZM109.629 293.135C109.629 295.908 109.115 298.363 108.086 300.498C107.057 302.633 105.592 304.28 103.691 305.439C101.803 306.585 99.6484 307.158 97.2266 307.158C94.8047 307.158 92.6562 306.605 90.7812 305.498C88.9062 304.378 87.4414 302.783 86.3867 300.713C85.3451 298.642 84.7982 296.266 84.7461 293.584V291.982C84.7461 289.196 85.2539 286.741 86.2695 284.619C87.2982 282.484 88.763 280.836 90.6641 279.678C92.5781 278.519 94.7526 277.939 97.1875 277.939C99.5964 277.939 101.745 278.512 103.633 279.658C105.521 280.804 106.986 282.438 108.027 284.56C109.082 286.67 109.616 289.092 109.629 291.826V293.135ZM102.656 291.943C102.656 289.118 102.181 286.976 101.23 285.517C100.293 284.046 98.9453 283.31 97.1875 283.31C93.75 283.31 91.9336 285.889 91.7383 291.045L91.7188 293.135C91.7188 295.921 92.181 298.063 93.1055 299.56C94.0299 301.058 95.4036 301.807 97.2266 301.807C98.9583 301.807 100.293 301.071 101.23 299.599C102.168 298.128 102.643 296.012 102.656 293.252V291.943ZM120.469 306.767H113.633V278.33H120.469V306.767ZM148.242 297.139C148.151 299.118 147.617 300.869 146.641 302.392C145.664 303.903 144.29 305.075 142.52 305.908C140.762 306.741 138.75 307.158 136.484 307.158C132.747 307.158 129.805 305.941 127.656 303.506C125.508 301.071 124.434 297.633 124.434 293.193V291.787C124.434 289.001 124.915 286.566 125.879 284.482C126.855 282.386 128.255 280.771 130.078 279.639C131.901 278.493 134.01 277.92 136.406 277.92C139.857 277.92 142.63 278.831 144.727 280.654C146.823 282.464 148.014 284.964 148.301 288.154H141.465C141.413 286.422 140.977 285.179 140.156 284.424C139.336 283.668 138.086 283.291 136.406 283.291C134.701 283.291 133.451 283.929 132.656 285.205C131.862 286.481 131.445 288.519 131.406 291.318V293.33C131.406 296.364 131.784 298.532 132.539 299.834C133.307 301.136 134.622 301.787 136.484 301.787C138.06 301.787 139.264 301.416 140.098 300.674C140.931 299.932 141.374 298.753 141.426 297.139H148.242ZM169.121 294.717H158.34V301.494H171.074V306.767H151.484V278.33H171.113V283.623H158.34V289.619H169.121V294.717ZM201.738 295.439H190.684V306.767H183.828V278.33H202.852V283.623H190.684V290.166H201.738V295.439ZM229.785 293.135C229.785 295.908 229.271 298.363 228.242 300.498C227.214 302.633 225.749 304.28 223.848 305.439C221.96 306.585 219.805 307.158 217.383 307.158C214.961 307.158 212.812 306.605 210.938 305.498C209.062 304.378 207.598 302.783 206.543 300.713C205.501 298.642 204.954 296.266 204.902 293.584V291.982C204.902 289.196 205.41 286.741 206.426 284.619C207.454 282.484 208.919 280.836 210.82 279.678C212.734 278.519 214.909 277.939 217.344 277.939C219.753 277.939 221.901 278.512 223.789 279.658C225.677 280.804 227.142 282.438 228.184 284.56C229.238 286.67 229.772 289.092 229.785 291.826V293.135ZM222.812 291.943C222.812 289.118 222.337 286.976 221.387 285.517C220.449 284.046 219.102 283.31 217.344 283.31C213.906 283.31 212.09 285.889 211.895 291.045L211.875 293.135C211.875 295.921 212.337 298.063 213.262 299.56C214.186 301.058 215.56 301.807 217.383 301.807C219.115 301.807 220.449 301.071 221.387 299.599C222.324 298.128 222.799 296.012 222.812 293.252V291.943ZM243.887 296.728H240.176V306.767H233.32V278.33H244.512C247.884 278.33 250.521 279.079 252.422 280.576C254.323 282.073 255.273 284.189 255.273 286.924C255.273 288.903 254.87 290.543 254.062 291.846C253.268 293.148 252.018 294.202 250.312 295.01L256.25 306.474V306.767H248.906L243.887 296.728ZM240.176 291.435H244.512C245.814 291.435 246.79 291.097 247.441 290.42C248.105 289.73 248.438 288.773 248.438 287.549C248.438 286.325 248.105 285.368 247.441 284.678C246.777 283.974 245.801 283.623 244.512 283.623H240.176V291.435ZM279.785 290.674L285.02 278.33H292.422L283.262 296.553V306.767H276.309V296.553L267.168 278.33H274.531L279.785 290.674ZM317.988 293.135C317.988 295.908 317.474 298.363 316.445 300.498C315.417 302.633 313.952 304.28 312.051 305.439C310.163 306.585 308.008 307.158 305.586 307.158C303.164 307.158 301.016 306.605 299.141 305.498C297.266 304.378 295.801 302.783 294.746 300.713C293.704 298.642 293.158 296.266 293.105 293.584V291.982C293.105 289.196 293.613 286.741 294.629 284.619C295.658 282.484 297.122 280.836 299.023 279.678C300.938 278.519 303.112 277.939 305.547 277.939C307.956 277.939 310.104 278.512 311.992 279.658C313.88 280.804 315.345 282.438 316.387 284.56C317.441 286.67 317.975 289.092 317.988 291.826V293.135ZM311.016 291.943C311.016 289.118 310.54 286.976 309.59 285.517C308.652 284.046 307.305 283.31 305.547 283.31C302.109 283.31 300.293 285.889 300.098 291.045L300.078 293.135C300.078 295.921 300.54 298.063 301.465 299.56C302.389 301.058 303.763 301.807 305.586 301.807C307.318 301.807 308.652 301.071 309.59 299.599C310.527 298.128 311.003 296.012 311.016 293.252V291.943ZM343.828 278.33V296.943C343.828 299.053 343.379 300.882 342.48 302.432C341.582 303.968 340.293 305.14 338.613 305.947C336.934 306.754 334.948 307.158 332.656 307.158C329.193 307.158 326.465 306.26 324.473 304.463C322.48 302.666 321.465 300.205 321.426 297.08V278.33H328.32V297.217C328.398 300.329 329.844 301.885 332.656 301.885C334.076 301.885 335.15 301.494 335.879 300.713C336.608 299.932 336.973 298.662 336.973 296.904V278.33H343.828Z" fill="#333333"/>
<rect x="60" y="336.767" width="255" height="93" rx="2" fill="#8C7A5F" fill-opacity="0.5"/>
<g filter="url(#filter0_d)">
<path d="M121.943 355.038H117.249V367.767H113.478V355.038H108.87V352.127H121.943V355.038ZM131.578 364.846H126.411L125.509 367.767H121.481L127.217 352.127H130.762L136.541 367.767H132.491L131.578 364.846ZM127.314 361.934H130.676L128.989 356.51L127.314 361.934ZM146.198 363.61C146.198 363.059 146.001 362.629 145.607 362.321C145.22 362.013 144.537 361.695 143.555 361.365C142.574 361.036 141.772 360.717 141.149 360.409C139.122 359.414 138.109 358.046 138.109 356.306C138.109 355.439 138.36 354.676 138.861 354.017C139.37 353.351 140.086 352.836 141.01 352.471C141.933 352.098 142.972 351.912 144.125 351.912C145.249 351.912 146.255 352.113 147.143 352.514C148.039 352.915 148.733 353.488 149.227 354.232C149.721 354.97 149.969 355.815 149.969 356.767H146.209C146.209 356.13 146.012 355.636 145.618 355.285C145.231 354.934 144.705 354.759 144.039 354.759C143.366 354.759 142.832 354.909 142.438 355.21C142.052 355.503 141.858 355.879 141.858 356.338C141.858 356.739 142.073 357.104 142.503 357.433C142.932 357.756 143.688 358.092 144.769 358.443C145.851 358.787 146.739 359.159 147.433 359.56C149.123 360.534 149.969 361.877 149.969 363.589C149.969 364.957 149.453 366.031 148.422 366.811C147.39 367.592 145.976 367.982 144.178 367.982C142.911 367.982 141.761 367.757 140.73 367.306C139.706 366.847 138.933 366.224 138.41 365.436C137.894 364.641 137.636 363.728 137.636 362.697H141.418C141.418 363.535 141.633 364.155 142.062 364.556C142.499 364.949 143.205 365.146 144.178 365.146C144.802 365.146 145.292 365.014 145.65 364.749C146.015 364.477 146.198 364.097 146.198 363.61ZM164.62 355.038H159.926V367.767H156.156V355.038H151.547V352.127H164.62V355.038ZM176.361 361.14H170.432V364.867H177.435V367.767H166.661V352.127H177.457V355.038H170.432V358.336H176.361V361.14ZM196.964 355.038H192.27V367.767H188.499V355.038H183.891V352.127H196.964V355.038ZM208.705 361.14H202.775V364.867H209.779V367.767H199.004V352.127H209.8V355.038H202.775V358.336H208.705V361.14ZM219.822 363.61C219.822 363.059 219.625 362.629 219.232 362.321C218.845 362.013 218.161 361.695 217.18 361.365C216.199 361.036 215.397 360.717 214.774 360.409C212.747 359.414 211.734 358.046 211.734 356.306C211.734 355.439 211.984 354.676 212.485 354.017C212.994 353.351 213.71 352.836 214.634 352.471C215.558 352.098 216.596 351.912 217.749 351.912C218.873 351.912 219.88 352.113 220.768 352.514C221.663 352.915 222.358 353.488 222.852 354.232C223.346 354.97 223.593 355.815 223.593 356.767H219.833C219.833 356.13 219.636 355.636 219.242 355.285C218.856 354.934 218.329 354.759 217.663 354.759C216.99 354.759 216.457 354.909 216.063 355.21C215.676 355.503 215.483 355.879 215.483 356.338C215.483 356.739 215.697 357.104 216.127 357.433C216.557 357.756 217.312 358.092 218.394 358.443C219.475 358.787 220.363 359.159 221.058 359.56C222.748 360.534 223.593 361.877 223.593 363.589C223.593 364.957 223.077 366.031 222.046 366.811C221.015 367.592 219.6 367.982 217.803 367.982C216.535 367.982 215.386 367.757 214.355 367.306C213.331 366.847 212.557 366.224 212.034 365.436C211.519 364.641 211.261 363.728 211.261 362.697H215.042C215.042 363.535 215.257 364.155 215.687 364.556C216.123 364.949 216.829 365.146 217.803 365.146C218.426 365.146 218.916 365.014 219.275 364.749C219.64 364.477 219.822 364.097 219.822 363.61ZM238.245 355.038H233.55V367.767H229.78V355.038H225.172V352.127H238.245V355.038ZM249.986 361.14H244.056V364.867H251.06V367.767H240.285V352.127H251.081V355.038H244.056V358.336H249.986V361.14ZM253.036 367.767V352.127H258.074C259.456 352.127 260.699 352.442 261.802 353.072C262.904 353.695 263.764 354.58 264.38 355.725C265.003 356.864 265.318 358.142 265.325 359.56V360.28C265.325 361.712 265.021 362.998 264.412 364.137C263.81 365.268 262.958 366.156 261.855 366.801C260.76 367.438 259.535 367.76 258.181 367.767H253.036ZM256.806 355.038V364.867H258.117C259.198 364.867 260.029 364.484 260.609 363.718C261.189 362.944 261.479 361.798 261.479 360.28V359.603C261.479 358.092 261.189 356.954 260.609 356.187C260.029 355.421 259.184 355.038 258.074 355.038H256.806ZM80.2642 391.767V376.127H85.8823C87.8947 376.127 89.4237 376.496 90.4693 377.233C91.522 377.971 92.0484 379.042 92.0484 380.445C92.0484 381.254 91.8622 381.946 91.4898 382.518C91.1174 383.091 90.5695 383.514 89.8462 383.786C90.6626 384.001 91.2892 384.402 91.7261 384.989C92.1629 385.576 92.3814 386.293 92.3814 387.138C92.3814 388.67 91.8944 389.823 90.9204 390.597C89.9536 391.363 88.5178 391.753 86.6128 391.767H80.2642ZM84.0347 385.118V388.867H86.5054C87.1857 388.867 87.7085 388.713 88.0738 388.405C88.439 388.09 88.6216 387.65 88.6216 387.084C88.6216 385.78 87.9735 385.125 86.6773 385.118H84.0347ZM84.0347 382.647H86.0005C86.8241 382.64 87.4113 382.49 87.7622 382.196C88.1131 381.903 88.2886 381.469 88.2886 380.896C88.2886 380.238 88.0988 379.765 87.7193 379.478C87.3397 379.185 86.7274 379.038 85.8823 379.038H84.0347V382.647ZM100.029 382.916L102.908 376.127H106.98L101.941 386.149V391.767H98.1173V386.149L93.0899 376.127H97.1397L100.029 382.916ZM125.165 391.767H114.251V389.404L119.279 384.119C120.517 382.708 121.137 381.587 121.137 380.757C121.137 380.084 120.99 379.571 120.696 379.221C120.403 378.87 119.977 378.694 119.418 378.694C118.867 378.694 118.419 378.931 118.075 379.403C117.732 379.869 117.56 380.452 117.56 381.154H113.929C113.929 380.195 114.169 379.31 114.649 378.501C115.128 377.684 115.794 377.047 116.647 376.589C117.499 376.13 118.451 375.901 119.504 375.901C121.194 375.901 122.494 376.292 123.404 377.072C124.32 377.853 124.779 378.974 124.779 380.434C124.779 381.05 124.664 381.652 124.435 382.239C124.206 382.819 123.848 383.432 123.361 384.076C122.881 384.713 122.104 385.569 121.029 386.643L119.01 388.974H125.165V391.767ZM138.292 385.376C138.292 387.488 137.816 389.118 136.863 390.264C135.918 391.409 134.582 391.982 132.856 391.982C131.116 391.982 129.77 391.406 128.817 390.253C127.865 389.1 127.388 387.474 127.388 385.376V382.518C127.388 380.406 127.861 378.777 128.806 377.631C129.759 376.485 131.102 375.912 132.835 375.912C134.568 375.912 135.911 376.488 136.863 377.641C137.816 378.794 138.292 380.424 138.292 382.529V385.376ZM134.672 382.057C134.672 380.932 134.525 380.094 134.231 379.543C133.938 378.984 133.472 378.705 132.835 378.705C132.212 378.705 131.757 378.963 131.47 379.478C131.191 379.994 131.041 380.775 131.019 381.82V385.816C131.019 386.984 131.166 387.839 131.46 388.384C131.753 388.921 132.219 389.189 132.856 389.189C133.472 389.189 133.927 388.928 134.22 388.405C134.514 387.875 134.664 387.048 134.672 385.924V382.057ZM151.472 385.376C151.472 387.488 150.996 389.118 150.043 390.264C149.098 391.409 147.762 391.982 146.036 391.982C144.296 391.982 142.95 391.406 141.997 390.253C141.045 389.1 140.569 387.474 140.569 385.376V382.518C140.569 380.406 141.041 378.777 141.987 377.631C142.939 376.485 144.282 375.912 146.015 375.912C147.748 375.912 149.091 376.488 150.043 377.641C150.996 378.794 151.472 380.424 151.472 382.529V385.376ZM147.852 382.057C147.852 380.932 147.705 380.094 147.411 379.543C147.118 378.984 146.652 378.705 146.015 378.705C145.392 378.705 144.937 378.963 144.651 379.478C144.371 379.994 144.221 380.775 144.2 381.82V385.816C144.2 386.984 144.346 387.839 144.64 388.384C144.934 388.921 145.399 389.189 146.036 389.189C146.652 389.189 147.107 388.928 147.401 388.405C147.694 387.875 147.845 387.048 147.852 385.924V382.057ZM172.59 386.472C172.54 387.56 172.247 388.523 171.709 389.361C171.172 390.192 170.417 390.836 169.443 391.295C168.476 391.753 167.37 391.982 166.123 391.982C164.068 391.982 162.45 391.313 161.268 389.974C160.086 388.634 159.496 386.744 159.496 384.302V383.528C159.496 381.996 159.761 380.656 160.29 379.511C160.828 378.358 161.597 377.47 162.6 376.847C163.603 376.216 164.763 375.901 166.081 375.901C167.978 375.901 169.504 376.403 170.657 377.405C171.81 378.401 172.465 379.776 172.623 381.53H168.863C168.834 380.578 168.594 379.894 168.143 379.478C167.692 379.063 167.004 378.855 166.081 378.855C165.142 378.855 164.455 379.206 164.018 379.908C163.581 380.61 163.352 381.731 163.331 383.27V384.377C163.331 386.045 163.538 387.238 163.954 387.954C164.376 388.67 165.099 389.028 166.123 389.028C166.99 389.028 167.652 388.824 168.111 388.416C168.569 388.008 168.813 387.36 168.841 386.472H172.59ZM188.059 384.269C188.059 385.795 187.776 387.145 187.21 388.319C186.644 389.494 185.839 390.4 184.793 391.037C183.755 391.667 182.569 391.982 181.237 391.982C179.905 391.982 178.724 391.678 177.692 391.069C176.661 390.453 175.855 389.576 175.275 388.437C174.702 387.299 174.402 385.992 174.373 384.516V383.636C174.373 382.103 174.652 380.753 175.211 379.586C175.777 378.411 176.582 377.505 177.628 376.868C178.681 376.231 179.877 375.912 181.216 375.912C182.541 375.912 183.722 376.227 184.761 376.857C185.799 377.488 186.605 378.386 187.178 379.554C187.758 380.714 188.051 382.046 188.059 383.55V384.269ZM184.224 383.614C184.224 382.06 183.962 380.882 183.439 380.08C182.924 379.271 182.183 378.866 181.216 378.866C179.325 378.866 178.326 380.284 178.219 383.12L178.208 384.269C178.208 385.802 178.462 386.98 178.971 387.804C179.479 388.627 180.235 389.039 181.237 389.039C182.19 389.039 182.924 388.634 183.439 387.825C183.955 387.016 184.216 385.852 184.224 384.334V383.614ZM203.505 391.767H199.756L194.213 382.035V391.767H190.443V376.127H194.213L199.746 385.859V376.127H203.505V391.767ZM214.398 387.61C214.398 387.059 214.201 386.629 213.807 386.321C213.42 386.013 212.736 385.695 211.755 385.365C210.774 385.036 209.972 384.717 209.349 384.409C207.322 383.414 206.309 382.046 206.309 380.306C206.309 379.439 206.559 378.676 207.061 378.017C207.569 377.351 208.285 376.836 209.209 376.471C210.133 376.098 211.171 375.912 212.324 375.912C213.449 375.912 214.455 376.113 215.343 376.514C216.238 376.915 216.933 377.488 217.427 378.232C217.921 378.97 218.168 379.815 218.168 380.767H214.408C214.408 380.13 214.211 379.636 213.817 379.285C213.431 378.934 212.904 378.759 212.238 378.759C211.565 378.759 211.032 378.909 210.638 379.21C210.251 379.503 210.058 379.879 210.058 380.338C210.058 380.739 210.273 381.104 210.702 381.433C211.132 381.756 211.887 382.092 212.969 382.443C214.05 382.787 214.938 383.159 215.633 383.56C217.323 384.534 218.168 385.877 218.168 387.589C218.168 388.957 217.652 390.031 216.621 390.811C215.59 391.592 214.176 391.982 212.378 391.982C211.11 391.982 209.961 391.757 208.93 391.306C207.906 390.847 207.132 390.224 206.609 389.436C206.094 388.641 205.836 387.728 205.836 386.697H209.617C209.617 387.535 209.832 388.155 210.262 388.556C210.699 388.949 211.404 389.146 212.378 389.146C213.001 389.146 213.492 389.014 213.85 388.749C214.215 388.477 214.398 388.097 214.398 387.61ZM232.809 376.127V386.364C232.809 387.524 232.562 388.53 232.068 389.383C231.574 390.228 230.865 390.872 229.941 391.316C229.017 391.76 227.925 391.982 226.665 391.982C224.76 391.982 223.259 391.488 222.164 390.5C221.068 389.512 220.509 388.158 220.488 386.439V376.127H224.28V386.515C224.323 388.226 225.118 389.082 226.665 389.082C227.445 389.082 228.036 388.867 228.437 388.437C228.838 388.008 229.039 387.309 229.039 386.343V376.127H232.809ZM240.565 376.127L244.056 387.009L247.536 376.127H252.499V391.767H248.718V388.115L249.083 380.639L245.302 391.767H242.81L239.018 380.628L239.383 388.115V391.767H235.613V376.127H240.565ZM265.046 385.14H259.116V388.867H266.12V391.767H255.346V376.127H266.141V379.038H259.116V382.336H265.046V385.14ZM273.908 386.246H271.867V391.767H268.096V376.127H274.251C276.106 376.127 277.556 376.539 278.602 377.362C279.648 378.186 280.17 379.349 280.17 380.853C280.17 381.942 279.948 382.844 279.504 383.56C279.067 384.277 278.38 384.857 277.442 385.301L280.707 391.606V391.767H276.668L273.908 386.246ZM271.867 383.335H274.251C274.967 383.335 275.505 383.149 275.863 382.776C276.228 382.397 276.411 381.87 276.411 381.197C276.411 380.524 276.228 379.998 275.863 379.618C275.497 379.231 274.96 379.038 274.251 379.038H271.867V383.335ZM290.955 387.61C290.955 387.059 290.758 386.629 290.364 386.321C289.977 386.013 289.294 385.695 288.312 385.365C287.331 385.036 286.529 384.717 285.906 384.409C283.879 383.414 282.866 382.046 282.866 380.306C282.866 379.439 283.117 378.676 283.618 378.017C284.127 377.351 284.843 376.836 285.767 376.471C286.69 376.098 287.729 375.912 288.882 375.912C290.006 375.912 291.012 376.113 291.9 376.514C292.795 376.915 293.49 377.488 293.984 378.232C294.478 378.97 294.725 379.815 294.725 380.767H290.966C290.966 380.13 290.769 379.636 290.375 379.285C289.988 378.934 289.462 378.759 288.796 378.759C288.123 378.759 287.589 378.909 287.195 379.21C286.809 379.503 286.615 379.879 286.615 380.338C286.615 380.739 286.83 381.104 287.26 381.433C287.689 381.756 288.445 382.092 289.526 382.443C290.608 382.787 291.496 383.159 292.19 383.56C293.88 384.534 294.725 385.877 294.725 387.589C294.725 388.957 294.21 390.031 293.179 390.811C292.147 391.592 290.733 391.982 288.935 391.982C287.668 391.982 286.518 391.757 285.487 391.306C284.463 390.847 283.69 390.224 283.167 389.436C282.651 388.641 282.393 387.728 282.393 386.697H286.175C286.175 387.535 286.39 388.155 286.819 388.556C287.256 388.949 287.961 389.146 288.935 389.146C289.559 389.146 290.049 389.014 290.407 388.749C290.772 388.477 290.955 388.097 290.955 387.61ZM97.9566 408.537H91.8765V414.767H88.106V399.127H98.5689V402.038H91.8765V405.637H97.9566V408.537ZM113.822 407.269C113.822 408.795 113.539 410.145 112.974 411.319C112.408 412.494 111.602 413.4 110.557 414.037C109.518 414.667 108.333 414.982 107.001 414.982C105.669 414.982 104.487 414.678 103.456 414.069C102.425 413.453 101.619 412.576 101.039 411.437C100.466 410.299 100.165 408.992 100.137 407.516V406.636C100.137 405.103 100.416 403.753 100.975 402.586C101.54 401.411 102.346 400.505 103.392 399.868C104.444 399.231 105.64 398.912 106.98 398.912C108.304 398.912 109.486 399.227 110.524 399.857C111.563 400.488 112.369 401.386 112.941 402.554C113.522 403.714 113.815 405.046 113.822 406.55V407.269ZM109.987 406.614C109.987 405.06 109.726 403.882 109.203 403.08C108.688 402.271 107.946 401.866 106.98 401.866C105.089 401.866 104.09 403.284 103.983 406.12L103.972 407.269C103.972 408.802 104.226 409.98 104.734 410.804C105.243 411.627 105.998 412.039 107.001 412.039C107.954 412.039 108.688 411.634 109.203 410.825C109.719 410.016 109.98 408.852 109.987 407.334V406.614ZM122.018 409.246H119.977V414.767H116.207V399.127H122.362C124.217 399.127 125.667 399.539 126.713 400.362C127.758 401.186 128.281 402.349 128.281 403.853C128.281 404.942 128.059 405.844 127.615 406.56C127.178 407.277 126.491 407.857 125.552 408.301L128.818 414.606V414.767H124.779L122.018 409.246ZM119.977 406.335H122.362C123.078 406.335 123.615 406.149 123.973 405.776C124.339 405.397 124.521 404.87 124.521 404.197C124.521 403.524 124.339 402.998 123.973 402.618C123.608 402.231 123.071 402.038 122.362 402.038H119.977V406.335ZM149.721 412.834C149.141 413.478 148.293 413.998 147.176 414.391C146.058 414.785 144.834 414.982 143.502 414.982C141.454 414.982 139.817 414.356 138.593 413.102C137.368 411.849 136.713 410.105 136.627 407.871L136.616 406.517C136.616 404.978 136.888 403.635 137.432 402.489C137.977 401.336 138.754 400.452 139.763 399.836C140.78 399.213 141.955 398.901 143.287 398.901C145.235 398.901 146.746 399.349 147.82 400.244C148.901 401.132 149.532 402.46 149.711 404.229H146.08C145.951 403.356 145.672 402.733 145.242 402.36C144.812 401.988 144.204 401.802 143.416 401.802C142.47 401.802 141.74 402.203 141.224 403.005C140.709 403.807 140.447 404.953 140.44 406.442V407.388C140.44 408.949 140.705 410.123 141.235 410.911C141.772 411.692 142.614 412.082 143.76 412.082C144.741 412.082 145.471 411.863 145.951 411.427V408.999H143.33V406.41H149.721V412.834ZM158.164 409.246H156.123V414.767H152.353V399.127H158.508C160.363 399.127 161.813 399.539 162.859 400.362C163.904 401.186 164.427 402.349 164.427 403.853C164.427 404.942 164.205 405.844 163.761 406.56C163.324 407.277 162.637 407.857 161.699 408.301L164.964 414.606V414.767H160.925L158.164 409.246ZM156.123 406.335H158.508C159.224 406.335 159.761 406.149 160.119 405.776C160.485 405.397 160.667 404.87 160.667 404.197C160.667 403.524 160.485 402.998 160.119 402.618C159.754 402.231 159.217 402.038 158.508 402.038H156.123V406.335ZM176.845 408.14H170.915V411.867H177.919V414.767H167.144V399.127H177.94V402.038H170.915V405.336H176.845V408.14ZM188.779 411.846H183.612L182.709 414.767H178.681L184.417 399.127H187.962L193.742 414.767H189.692L188.779 411.846ZM184.514 408.934H187.876L186.19 403.51L184.514 408.934ZM206.32 402.038H201.626V414.767H197.855V402.038H193.247V399.127H206.32V402.038ZM225.269 402.038H220.574V414.767H216.804V402.038H212.195V399.127H225.269V402.038ZM234.904 411.846H229.737L228.835 414.767H224.806L230.543 399.127H234.088L239.867 414.767H235.817L234.904 411.846ZM230.639 408.934H234.002L232.315 403.51L230.639 408.934ZM249.524 410.61C249.524 410.059 249.327 409.629 248.933 409.321C248.546 409.013 247.862 408.695 246.881 408.365C245.9 408.036 245.098 407.717 244.475 407.409C242.448 406.414 241.435 405.046 241.435 403.306C241.435 402.439 241.685 401.676 242.187 401.017C242.695 400.351 243.411 399.836 244.335 399.471C245.259 399.098 246.297 398.912 247.45 398.912C248.575 398.912 249.581 399.113 250.469 399.514C251.364 399.915 252.059 400.488 252.553 401.232C253.047 401.97 253.294 402.815 253.294 403.767H249.534C249.534 403.13 249.337 402.636 248.944 402.285C248.557 401.934 248.031 401.759 247.365 401.759C246.691 401.759 246.158 401.909 245.764 402.21C245.377 402.503 245.184 402.879 245.184 403.338C245.184 403.739 245.399 404.104 245.828 404.433C246.258 404.756 247.014 405.092 248.095 405.443C249.176 405.787 250.064 406.159 250.759 406.56C252.449 407.534 253.294 408.877 253.294 410.589C253.294 411.957 252.779 413.031 251.747 413.811C250.716 414.592 249.302 414.982 247.504 414.982C246.237 414.982 245.087 414.757 244.056 414.306C243.032 413.847 242.258 413.224 241.736 412.436C241.22 411.641 240.962 410.728 240.962 409.697H244.743C244.743 410.535 244.958 411.155 245.388 411.556C245.825 411.949 246.53 412.146 247.504 412.146C248.127 412.146 248.618 412.014 248.976 411.749C249.341 411.477 249.524 411.097 249.524 410.61ZM267.946 402.038H263.252V414.767H259.481V402.038H254.873V399.127H267.946V402.038ZM279.687 408.14H273.757V411.867H280.761V414.767H269.987V399.127H280.783V402.038H273.757V405.336H279.687V408.14ZM286.164 409.815H283.231L282.769 399.127H286.626L286.164 409.815ZM282.662 413.145C282.662 412.615 282.852 412.182 283.231 411.846C283.618 411.502 284.098 411.33 284.671 411.33C285.244 411.33 285.72 411.502 286.1 411.846C286.486 412.182 286.68 412.615 286.68 413.145C286.68 413.675 286.486 414.112 286.1 414.456C285.72 414.793 285.244 414.961 284.671 414.961C284.098 414.961 283.618 414.793 283.231 414.456C282.852 414.112 282.662 413.675 282.662 413.145Z" fill="white"/>
</g>
<defs>
<filter id="filter0_d" x="79.7642" y="351.912" width="215.461" height="64.0703" filterUnits="userSpaceOnUse" color-interpolation-filters="sRGB">
<feFlood flood-opacity="0" result="BackgroundImageFix"/>
<feColorMatrix in="SourceAlpha" type="matrix" values="0 0 0 0 0 0 0 0 0 0 0 0 0 0 0 0 0 0 127 0"/>
<feOffset dy="0.5"/>
<feGaussianBlur stdDeviation="0.25"/>
<feColorMatrix type="matrix" values="0 0 0 0 0 0 0 0 0 0 0 0 0 0 0 0 0 0 0.2 0"/>
<feBlend mode="normal" in2="BackgroundImageFix" result="effect1_dropShadow"/>
<feBlend mode="normal" in="SourceGraphic" in2="effect1_dropShadow" result="shape"/>
</filter>
<clipPath id="clip0">
<rect width="273" height="215.86" fill="white" transform="translate(51)"/>
</clipPath>
</defs>
</svg>
