<svg width="720" height="455" viewBox="0 0 720 455" fill="none" xmlns="http://www.w3.org/2000/svg">
<path d="M40.2979 361.069H29.6289V390H21.0596V361.069H10.5859V354.453H40.2979V361.069ZM73.6475 390H65.127V375.156H52.5049V390H43.9355V354.453H52.5049V368.564H65.127V354.453H73.6475V390ZM101.138 374.937H87.6611V383.408H103.579V390H79.0918V354.453H103.628V361.069H87.6611V368.564H101.138V374.937ZM119.521 390V354.453H132.29C136.864 354.453 140.339 355.291 142.715 356.968C145.107 358.644 146.304 361.077 146.304 364.268C146.304 366.107 145.881 367.677 145.034 368.979C144.188 370.282 142.943 371.242 141.299 371.86C143.154 372.349 144.578 373.26 145.571 374.595C146.564 375.929 147.061 377.557 147.061 379.478C147.061 382.961 145.954 385.581 143.74 387.339C141.543 389.08 138.28 389.967 133.95 390H119.521ZM128.091 374.888V383.408H133.706C135.252 383.408 136.44 383.058 137.271 382.358C138.101 381.642 138.516 380.641 138.516 379.355C138.516 376.393 137.043 374.904 134.097 374.888H128.091ZM128.091 369.272H132.559C134.43 369.256 135.765 368.914 136.562 368.247C137.36 367.58 137.759 366.595 137.759 365.293C137.759 363.796 137.327 362.721 136.465 362.07C135.602 361.403 134.211 361.069 132.29 361.069H128.091V369.272ZM173.843 374.937H160.366V383.408H176.284V390H151.797V354.453H176.333V361.069H160.366V368.564H173.843V374.937ZM208.169 361.069H197.5V390H188.931V361.069H178.457V354.453H208.169V361.069ZM240.103 361.069H229.434V390H220.864V361.069H210.391V354.453H240.103V361.069ZM265.786 374.937H252.31V383.408H268.228V390H243.74V354.453H268.276V361.069H252.31V368.564H265.786V374.937ZM284.927 377.451H280.288V390H271.719V354.453H285.708C289.924 354.453 293.219 355.389 295.596 357.261C297.972 359.132 299.16 361.777 299.16 365.195C299.16 367.669 298.656 369.72 297.646 371.348C296.654 372.975 295.091 374.294 292.959 375.303L300.381 389.634V390H291.201L284.927 377.451ZM280.288 370.835H285.708C287.336 370.835 288.556 370.412 289.37 369.565C290.2 368.703 290.615 367.507 290.615 365.977C290.615 364.447 290.2 363.25 289.37 362.388C288.54 361.509 287.319 361.069 285.708 361.069H280.288V370.835ZM345.547 377.964C345.433 380.438 344.766 382.627 343.545 384.531C342.324 386.419 340.607 387.884 338.394 388.926C336.196 389.967 333.682 390.488 330.85 390.488C326.178 390.488 322.5 388.966 319.814 385.923C317.129 382.879 315.786 378.582 315.786 373.032V371.274C315.786 367.791 316.388 364.748 317.593 362.144C318.813 359.523 320.563 357.505 322.842 356.089C325.12 354.657 327.757 353.94 330.752 353.94C335.065 353.94 338.532 355.08 341.152 357.358C343.773 359.621 345.262 362.746 345.62 366.733H337.075C337.01 364.569 336.465 363.014 335.439 362.07C334.414 361.126 332.852 360.654 330.752 360.654C328.62 360.654 327.057 361.452 326.064 363.047C325.072 364.642 324.551 367.189 324.502 370.688V373.203C324.502 376.995 324.974 379.705 325.918 381.333C326.878 382.961 328.522 383.774 330.85 383.774C332.819 383.774 334.325 383.311 335.366 382.383C336.408 381.455 336.961 379.982 337.026 377.964H345.547ZM379.312 390H370.791V375.156H358.169V390H349.6V354.453H358.169V368.564H370.791V354.453H379.312V390ZM414.858 372.959C414.858 376.426 414.215 379.494 412.93 382.163C411.644 384.832 409.813 386.891 407.437 388.34C405.076 389.772 402.383 390.488 399.355 390.488C396.328 390.488 393.643 389.797 391.299 388.413C388.955 387.013 387.124 385.02 385.806 382.432C384.504 379.844 383.82 376.873 383.755 373.521V371.519C383.755 368.035 384.39 364.967 385.659 362.314C386.945 359.645 388.776 357.586 391.152 356.138C393.545 354.689 396.263 353.965 399.307 353.965C402.318 353.965 405.003 354.681 407.363 356.113C409.723 357.546 411.554 359.588 412.856 362.241C414.175 364.878 414.842 367.905 414.858 371.323V372.959ZM406.143 371.47C406.143 367.938 405.549 365.26 404.36 363.438C403.188 361.598 401.504 360.679 399.307 360.679C395.01 360.679 392.739 363.901 392.495 370.347L392.471 372.959C392.471 376.442 393.049 379.119 394.204 380.991C395.36 382.863 397.077 383.799 399.355 383.799C401.52 383.799 403.188 382.879 404.36 381.04C405.532 379.201 406.126 376.556 406.143 373.105V371.47ZM428.408 390H419.863V354.453H428.408V390ZM463.125 377.964C463.011 380.438 462.344 382.627 461.123 384.531C459.902 386.419 458.185 387.884 455.972 388.926C453.774 389.967 451.26 390.488 448.428 390.488C443.757 390.488 440.078 388.966 437.393 385.923C434.707 382.879 433.364 378.582 433.364 373.032V371.274C433.364 367.791 433.966 364.748 435.171 362.144C436.392 359.523 438.141 357.505 440.42 356.089C442.699 354.657 445.335 353.94 448.33 353.94C452.643 353.94 456.11 355.08 458.73 357.358C461.351 359.621 462.84 362.746 463.198 366.733H454.653C454.588 364.569 454.043 363.014 453.018 362.07C451.992 361.126 450.43 360.654 448.33 360.654C446.198 360.654 444.635 361.452 443.643 363.047C442.65 364.642 442.129 367.189 442.08 370.688V373.203C442.08 376.995 442.552 379.705 443.496 381.333C444.456 382.961 446.1 383.774 448.428 383.774C450.397 383.774 451.903 383.311 452.944 382.383C453.986 381.455 454.539 379.982 454.604 377.964H463.125ZM489.224 374.937H475.747V383.408H491.665V390H467.178V354.453H491.714V361.069H475.747V368.564H489.224V374.937ZM529.995 375.84H516.177V390H507.607V354.453H531.387V361.069H516.177V369.248H529.995V375.84ZM565.054 372.959C565.054 376.426 564.411 379.494 563.125 382.163C561.839 384.832 560.008 386.891 557.632 388.34C555.272 389.772 552.578 390.488 549.551 390.488C546.523 390.488 543.838 389.797 541.494 388.413C539.15 387.013 537.319 385.02 536.001 382.432C534.699 379.844 534.015 376.873 533.95 373.521V371.519C533.95 368.035 534.585 364.967 535.854 362.314C537.14 359.645 538.971 357.586 541.348 356.138C543.74 354.689 546.458 353.965 549.502 353.965C552.513 353.965 555.199 354.681 557.559 356.113C559.919 357.546 561.75 359.588 563.052 362.241C564.37 364.878 565.037 367.905 565.054 371.323V372.959ZM556.338 371.47C556.338 367.938 555.744 365.26 554.556 363.438C553.384 361.598 551.699 360.679 549.502 360.679C545.205 360.679 542.935 363.901 542.69 370.347L542.666 372.959C542.666 376.442 543.244 379.119 544.399 380.991C545.555 382.863 547.272 383.799 549.551 383.799C551.715 383.799 553.384 382.879 554.556 381.04C555.728 379.201 556.322 376.556 556.338 373.105V371.47ZM582.681 377.451H578.042V390H569.473V354.453H583.462C587.677 354.453 590.973 355.389 593.35 357.261C595.726 359.132 596.914 361.777 596.914 365.195C596.914 367.669 596.41 369.72 595.4 371.348C594.408 372.975 592.845 374.294 590.713 375.303L598.135 389.634V390H588.955L582.681 377.451ZM578.042 370.835H583.462C585.09 370.835 586.31 370.412 587.124 369.565C587.954 368.703 588.369 367.507 588.369 365.977C588.369 364.447 587.954 363.25 587.124 362.388C586.294 361.509 585.073 361.069 583.462 361.069H578.042V370.835ZM627.554 369.883L634.097 354.453H643.35L631.899 377.231V390H623.208V377.231L611.782 354.453H620.986L627.554 369.883ZM675.308 372.959C675.308 376.426 674.665 379.494 673.379 382.163C672.093 384.832 670.262 386.891 667.886 388.34C665.526 389.772 662.832 390.488 659.805 390.488C656.777 390.488 654.092 389.797 651.748 388.413C649.404 387.013 647.573 385.02 646.255 382.432C644.953 379.844 644.269 376.873 644.204 373.521V371.519C644.204 368.035 644.839 364.967 646.108 362.314C647.394 359.645 649.225 357.586 651.602 356.138C653.994 354.689 656.712 353.965 659.756 353.965C662.767 353.965 665.452 354.681 667.812 356.113C670.173 357.546 672.004 359.588 673.306 362.241C674.624 364.878 675.291 367.905 675.308 371.323V372.959ZM666.592 371.47C666.592 367.938 665.998 365.26 664.81 363.438C663.638 361.598 661.953 360.679 659.756 360.679C655.459 360.679 653.188 363.901 652.944 370.347L652.92 372.959C652.92 376.442 653.498 379.119 654.653 380.991C655.809 382.863 657.526 383.799 659.805 383.799C661.969 383.799 663.638 382.879 664.81 381.04C665.981 379.201 666.576 376.556 666.592 373.105V371.47ZM707.607 354.453V377.72C707.607 380.356 707.046 382.643 705.923 384.58C704.8 386.501 703.188 387.965 701.089 388.975C698.989 389.984 696.507 390.488 693.643 390.488C689.313 390.488 685.903 389.365 683.413 387.119C680.923 384.873 679.653 381.797 679.604 377.891V354.453H688.223V378.062C688.32 381.951 690.127 383.896 693.643 383.896C695.417 383.896 696.759 383.408 697.671 382.432C698.582 381.455 699.038 379.868 699.038 377.671V354.453H707.607Z" fill="#333333"/>
<rect x="45" y="409" width="627" height="46" rx="2" fill="#8C7A5F" fill-opacity="0.5"/>
<g filter="url(#filter0_d)">
<path d="M78.46 427.271H73.7656V440H69.9951V427.271H65.3867V424.359H78.46V427.271ZM88.0953 437.078H82.9283L82.0259 440H77.9976L83.7339 424.359H87.2789L93.0582 440H89.0084L88.0953 437.078ZM83.8306 434.167H87.1929L85.5064 428.742L83.8306 434.167ZM102.715 435.843C102.715 435.291 102.518 434.862 102.124 434.554C101.737 434.246 101.054 433.927 100.072 433.598C99.0913 433.268 98.2892 432.95 97.6661 432.642C95.6394 431.646 94.6261 430.278 94.6261 428.538C94.6261 427.672 94.8767 426.909 95.378 426.25C95.8865 425.584 96.6027 425.068 97.5265 424.703C98.4503 424.331 99.4887 424.145 100.642 424.145C101.766 424.145 102.772 424.345 103.66 424.746C104.555 425.147 105.25 425.72 105.744 426.465C106.238 427.202 106.485 428.048 106.485 429H102.726C102.726 428.363 102.529 427.868 102.135 427.518C101.748 427.167 101.222 426.991 100.556 426.991C99.8826 426.991 99.3491 427.142 98.9552 427.442C98.5685 427.736 98.3751 428.112 98.3751 428.57C98.3751 428.971 98.59 429.337 99.0196 429.666C99.4493 429.988 100.205 430.325 101.286 430.676C102.368 431.02 103.256 431.392 103.95 431.793C105.64 432.767 106.485 434.11 106.485 435.821C106.485 437.189 105.97 438.263 104.939 439.044C103.907 439.825 102.493 440.215 100.695 440.215C99.4279 440.215 98.2784 439.989 97.2472 439.538C96.2231 439.08 95.4497 438.457 94.9269 437.669C94.4112 436.874 94.1534 435.961 94.1534 434.93H97.9347C97.9347 435.768 98.1495 436.387 98.5792 436.788C99.0161 437.182 99.7215 437.379 100.695 437.379C101.318 437.379 101.809 437.246 102.167 436.981C102.532 436.709 102.715 436.33 102.715 435.843ZM121.137 427.271H116.443V440H112.673V427.271H108.064V424.359H121.137V427.271ZM132.878 433.372H126.948V437.1H133.952V440H123.178V424.359H133.974V427.271H126.948V430.568H132.878V433.372ZM153.481 427.271H148.786V440H145.016V427.271H140.408V424.359H153.481V427.271ZM165.222 433.372H159.292V437.1H166.296V440H155.521V424.359H166.317V427.271H159.292V430.568H165.222V433.372ZM176.339 435.843C176.339 435.291 176.142 434.862 175.749 434.554C175.362 434.246 174.678 433.927 173.697 433.598C172.716 433.268 171.914 432.95 171.291 432.642C169.264 431.646 168.25 430.278 168.25 428.538C168.25 427.672 168.501 426.909 169.002 426.25C169.511 425.584 170.227 425.068 171.151 424.703C172.075 424.331 173.113 424.145 174.266 424.145C175.39 424.145 176.397 424.345 177.285 424.746C178.18 425.147 178.874 425.72 179.369 426.465C179.863 427.202 180.11 428.048 180.11 429H176.35C176.35 428.363 176.153 427.868 175.759 427.518C175.373 427.167 174.846 426.991 174.18 426.991C173.507 426.991 172.973 427.142 172.58 427.442C172.193 427.736 171.999 428.112 171.999 428.57C171.999 428.971 172.214 429.337 172.644 429.666C173.074 429.988 173.829 430.325 174.911 430.676C175.992 431.02 176.88 431.392 177.575 431.793C179.265 432.767 180.11 434.11 180.11 435.821C180.11 437.189 179.594 438.263 178.563 439.044C177.532 439.825 176.117 440.215 174.32 440.215C173.052 440.215 171.903 439.989 170.872 439.538C169.847 439.08 169.074 438.457 168.551 437.669C168.036 436.874 167.778 435.961 167.778 434.93H171.559C171.559 435.768 171.774 436.387 172.204 436.788C172.64 437.182 173.346 437.379 174.32 437.379C174.943 437.379 175.433 437.246 175.791 436.981C176.157 436.709 176.339 436.33 176.339 435.843ZM194.762 427.271H190.067V440H186.297V427.271H181.689V424.359H194.762V427.271ZM206.503 433.372H200.573V437.1H207.577V440H196.802V424.359H207.598V427.271H200.573V430.568H206.503V433.372ZM209.553 440V424.359H214.591C215.973 424.359 217.216 424.674 218.319 425.305C219.421 425.928 220.281 426.812 220.897 427.958C221.52 429.097 221.835 430.375 221.842 431.793V432.513C221.842 433.945 221.538 435.23 220.929 436.369C220.327 437.501 219.475 438.389 218.372 439.033C217.277 439.671 216.052 439.993 214.698 440H209.553ZM213.323 427.271V437.1H214.634C215.715 437.1 216.546 436.716 217.126 435.95C217.706 435.177 217.996 434.031 217.996 432.513V431.836C217.996 430.325 217.706 429.186 217.126 428.42C216.546 427.654 215.701 427.271 214.591 427.271H213.323ZM230.134 440V424.359H235.752C237.765 424.359 239.294 424.728 240.339 425.466C241.392 426.203 241.918 427.274 241.918 428.678C241.918 429.487 241.732 430.178 241.36 430.751C240.987 431.324 240.439 431.746 239.716 432.019C240.533 432.233 241.159 432.634 241.596 433.222C242.033 433.809 242.251 434.525 242.251 435.37C242.251 436.903 241.764 438.056 240.79 438.829C239.824 439.595 238.388 439.986 236.483 440H230.134ZM233.905 433.351V437.1H236.375C237.056 437.1 237.578 436.946 237.944 436.638C238.309 436.323 238.491 435.882 238.491 435.316C238.491 434.013 237.843 433.358 236.547 433.351H233.905ZM233.905 430.88H235.87C236.694 430.873 237.281 430.722 237.632 430.429C237.983 430.135 238.158 429.702 238.158 429.129C238.158 428.47 237.969 427.997 237.589 427.711C237.21 427.417 236.597 427.271 235.752 427.271H233.905V430.88ZM249.899 431.148L252.778 424.359H256.849L251.811 434.382V440H247.987V434.382L242.96 424.359H247.01L249.899 431.148ZM275.035 440H264.121V437.637L269.148 432.352C270.387 430.941 271.007 429.82 271.007 428.989C271.007 428.316 270.86 427.804 270.566 427.453C270.273 427.102 269.847 426.927 269.288 426.927C268.737 426.927 268.289 427.163 267.945 427.636C267.602 428.101 267.43 428.685 267.43 429.387H263.799C263.799 428.427 264.039 427.543 264.519 426.733C264.998 425.917 265.664 425.28 266.517 424.821C267.369 424.363 268.321 424.134 269.374 424.134C271.064 424.134 272.364 424.524 273.273 425.305C274.19 426.085 274.648 427.206 274.648 428.667C274.648 429.283 274.534 429.884 274.305 430.472C274.075 431.052 273.717 431.664 273.23 432.309C272.751 432.946 271.974 433.802 270.899 434.876L268.88 437.207H275.035V440ZM288.162 433.608C288.162 435.721 287.685 437.35 286.733 438.496C285.788 439.642 284.452 440.215 282.726 440.215C280.986 440.215 279.64 439.638 278.687 438.485C277.735 437.332 277.258 435.707 277.258 433.608V430.751C277.258 428.638 277.731 427.009 278.676 425.863C279.629 424.717 280.972 424.145 282.705 424.145C284.438 424.145 285.78 424.721 286.733 425.874C287.685 427.027 288.162 428.656 288.162 430.762V433.608ZM284.542 430.289C284.542 429.165 284.395 428.327 284.101 427.775C283.807 427.217 283.342 426.938 282.705 426.938C282.082 426.938 281.627 427.195 281.34 427.711C281.061 428.227 280.911 429.007 280.889 430.053V434.049C280.889 435.216 281.036 436.072 281.33 436.616C281.623 437.153 282.089 437.422 282.726 437.422C283.342 437.422 283.797 437.16 284.09 436.638C284.384 436.108 284.534 435.281 284.542 434.156V430.289ZM301.342 433.608C301.342 435.721 300.866 437.35 299.913 438.496C298.968 439.642 297.632 440.215 295.906 440.215C294.166 440.215 292.82 439.638 291.867 438.485C290.915 437.332 290.439 435.707 290.439 433.608V430.751C290.439 428.638 290.911 427.009 291.857 425.863C292.809 424.717 294.152 424.145 295.885 424.145C297.618 424.145 298.961 424.721 299.913 425.874C300.866 427.027 301.342 428.656 301.342 430.762V433.608ZM297.722 430.289C297.722 429.165 297.575 428.327 297.281 427.775C296.988 427.217 296.522 426.938 295.885 426.938C295.262 426.938 294.807 427.195 294.521 427.711C294.241 428.227 294.091 429.007 294.069 430.053V434.049C294.069 435.216 294.216 436.072 294.51 436.616C294.803 437.153 295.269 437.422 295.906 437.422C296.522 437.422 296.977 437.16 297.271 436.638C297.564 436.108 297.715 435.281 297.722 434.156V430.289ZM322.46 434.704C322.41 435.793 322.116 436.756 321.579 437.594C321.042 438.424 320.287 439.069 319.313 439.527C318.346 439.986 317.239 440.215 315.993 440.215C313.938 440.215 312.32 439.545 311.138 438.206C309.956 436.867 309.365 434.976 309.365 432.534V431.761C309.365 430.228 309.63 428.889 310.16 427.743C310.697 426.59 311.467 425.702 312.47 425.079C313.473 424.449 314.633 424.134 315.95 424.134C317.848 424.134 319.374 424.635 320.527 425.638C321.68 426.633 322.335 428.008 322.492 429.763H318.733C318.704 428.81 318.464 428.126 318.013 427.711C317.562 427.296 316.874 427.088 315.95 427.088C315.012 427.088 314.325 427.439 313.888 428.141C313.451 428.842 313.222 429.963 313.2 431.503V432.609C313.2 434.278 313.408 435.47 313.823 436.187C314.246 436.903 314.969 437.261 315.993 437.261C316.86 437.261 317.522 437.057 317.981 436.648C318.439 436.24 318.682 435.592 318.711 434.704H322.46ZM337.928 432.502C337.928 434.027 337.646 435.377 337.08 436.552C336.514 437.726 335.708 438.632 334.663 439.27C333.624 439.9 332.439 440.215 331.107 440.215C329.775 440.215 328.594 439.91 327.562 439.302C326.531 438.686 325.725 437.809 325.145 436.67C324.572 435.531 324.272 434.224 324.243 432.749V431.868C324.243 430.336 324.522 428.986 325.081 427.818C325.647 426.644 326.452 425.738 327.498 425.101C328.551 424.463 329.747 424.145 331.086 424.145C332.411 424.145 333.592 424.46 334.631 425.09C335.669 425.72 336.475 426.619 337.048 427.786C337.628 428.946 337.921 430.278 337.928 431.782V432.502ZM334.094 431.847C334.094 430.293 333.832 429.115 333.309 428.312C332.794 427.503 332.052 427.099 331.086 427.099C329.195 427.099 328.196 428.517 328.089 431.353L328.078 432.502C328.078 434.035 328.332 435.213 328.841 436.036C329.349 436.86 330.105 437.271 331.107 437.271C332.06 437.271 332.794 436.867 333.309 436.058C333.825 435.248 334.086 434.085 334.094 432.566V431.847ZM353.375 440H349.626L344.083 430.268V440H340.313V424.359H344.083L349.616 434.092V424.359H353.375V440ZM364.267 435.843C364.267 435.291 364.071 434.862 363.677 434.554C363.29 434.246 362.606 433.927 361.625 433.598C360.644 433.268 359.842 432.95 359.219 432.642C357.192 431.646 356.179 430.278 356.179 428.538C356.179 427.672 356.429 426.909 356.931 426.25C357.439 425.584 358.155 425.068 359.079 424.703C360.003 424.331 361.041 424.145 362.194 424.145C363.319 424.145 364.325 424.345 365.213 424.746C366.108 425.147 366.803 425.72 367.297 426.465C367.791 427.202 368.038 428.048 368.038 429H364.278C364.278 428.363 364.081 427.868 363.687 427.518C363.301 427.167 362.774 426.991 362.108 426.991C361.435 426.991 360.902 427.142 360.508 427.442C360.121 427.736 359.928 428.112 359.928 428.57C359.928 428.971 360.142 429.337 360.572 429.666C361.002 429.988 361.757 430.325 362.839 430.676C363.92 431.02 364.808 431.392 365.503 431.793C367.193 432.767 368.038 434.11 368.038 435.821C368.038 437.189 367.522 438.263 366.491 439.044C365.46 439.825 364.045 440.215 362.248 440.215C360.98 440.215 359.831 439.989 358.8 439.538C357.776 439.08 357.002 438.457 356.479 437.669C355.964 436.874 355.706 435.961 355.706 434.93H359.487C359.487 435.768 359.702 436.387 360.132 436.788C360.569 437.182 361.274 437.379 362.248 437.379C362.871 437.379 363.362 437.246 363.72 436.981C364.085 436.709 364.267 436.33 364.267 435.843ZM382.679 424.359V434.597C382.679 435.757 382.432 436.763 381.938 437.615C381.444 438.46 380.735 439.105 379.811 439.549C378.887 439.993 377.795 440.215 376.535 440.215C374.63 440.215 373.129 439.721 372.034 438.732C370.938 437.744 370.379 436.391 370.358 434.672V424.359H374.15V434.747C374.193 436.459 374.988 437.314 376.535 437.314C377.315 437.314 377.906 437.1 378.307 436.67C378.708 436.24 378.909 435.542 378.909 434.575V424.359H382.679ZM390.435 424.359L393.926 435.241L397.406 424.359H402.369V440H398.588V436.348L398.953 428.871L395.172 440H392.68L388.888 428.86L389.253 436.348V440H385.482V424.359H390.435ZM414.916 433.372H408.986V437.1H415.99V440H405.215V424.359H416.011V427.271H408.986V430.568H414.916V433.372ZM423.777 434.479H421.736V440H417.966V424.359H424.121C425.976 424.359 427.426 424.771 428.472 425.595C429.517 426.418 430.04 427.582 430.04 429.086C430.04 430.174 429.818 431.077 429.374 431.793C428.937 432.509 428.25 433.089 427.312 433.533L430.577 439.839V440H426.538L423.777 434.479ZM421.736 431.567H424.121C424.837 431.567 425.374 431.381 425.733 431.009C426.098 430.629 426.28 430.103 426.28 429.43C426.28 428.757 426.098 428.23 425.733 427.851C425.367 427.464 424.83 427.271 424.121 427.271H421.736V431.567ZM440.825 435.843C440.825 435.291 440.628 434.862 440.234 434.554C439.847 434.246 439.163 433.927 438.182 433.598C437.201 433.268 436.399 432.95 435.776 432.642C433.749 431.646 432.736 430.278 432.736 428.538C432.736 427.672 432.987 426.909 433.488 426.25C433.996 425.584 434.713 425.068 435.636 424.703C436.56 424.331 437.599 424.145 438.752 424.145C439.876 424.145 440.882 424.345 441.77 424.746C442.665 425.147 443.36 425.72 443.854 426.465C444.348 427.202 444.595 428.048 444.595 429H440.836C440.836 428.363 440.639 427.868 440.245 427.518C439.858 427.167 439.332 426.991 438.666 426.991C437.993 426.991 437.459 427.142 437.065 427.442C436.678 427.736 436.485 428.112 436.485 428.57C436.485 428.971 436.7 429.337 437.13 429.666C437.559 429.988 438.315 430.325 439.396 430.676C440.478 431.02 441.366 431.392 442.06 431.793C443.75 432.767 444.595 434.11 444.595 435.821C444.595 437.189 444.08 438.263 443.048 439.044C442.017 439.825 440.603 440.215 438.805 440.215C437.538 440.215 436.388 439.989 435.357 439.538C434.333 439.08 433.56 438.457 433.037 437.669C432.521 436.874 432.263 435.961 432.263 434.93H436.045C436.045 435.768 436.259 436.387 436.689 436.788C437.126 437.182 437.831 437.379 438.805 437.379C439.428 437.379 439.919 437.246 440.277 436.981C440.642 436.709 440.825 436.33 440.825 435.843ZM462.738 433.77H456.658V440H452.887V424.359H463.35V427.271H456.658V430.869H462.738V433.77ZM478.604 432.502C478.604 434.027 478.321 435.377 477.755 436.552C477.189 437.726 476.384 438.632 475.338 439.27C474.3 439.9 473.115 440.215 471.783 440.215C470.451 440.215 469.269 439.91 468.238 439.302C467.206 438.686 466.401 437.809 465.821 436.67C465.248 435.531 464.947 434.224 464.918 432.749V431.868C464.918 430.336 465.198 428.986 465.756 427.818C466.322 426.644 467.128 425.738 468.173 425.101C469.226 424.463 470.422 424.145 471.761 424.145C473.086 424.145 474.268 424.46 475.306 425.09C476.344 425.72 477.15 426.619 477.723 427.786C478.303 428.946 478.597 430.278 478.604 431.782V432.502ZM474.769 431.847C474.769 430.293 474.507 429.115 473.985 428.312C473.469 427.503 472.728 427.099 471.761 427.099C469.87 427.099 468.871 428.517 468.764 431.353L468.753 432.502C468.753 434.035 469.007 435.213 469.516 436.036C470.024 436.86 470.78 437.271 471.783 437.271C472.735 437.271 473.469 436.867 473.985 436.058C474.5 435.248 474.762 434.085 474.769 432.566V431.847ZM486.8 434.479H484.759V440H480.988V424.359H487.143C488.998 424.359 490.448 424.771 491.494 425.595C492.54 426.418 493.062 427.582 493.062 429.086C493.062 430.174 492.84 431.077 492.396 431.793C491.96 432.509 491.272 433.089 490.334 433.533L493.6 439.839V440H489.56L486.8 434.479ZM484.759 431.567H487.143C487.86 431.567 488.397 431.381 488.755 431.009C489.12 430.629 489.303 430.103 489.303 429.43C489.303 428.757 489.12 428.23 488.755 427.851C488.39 427.464 487.852 427.271 487.143 427.271H484.759V431.567ZM514.503 438.066C513.923 438.711 513.074 439.23 511.957 439.624C510.84 440.018 509.615 440.215 508.283 440.215C506.235 440.215 504.599 439.588 503.374 438.335C502.149 437.082 501.494 435.338 501.408 433.104L501.397 431.75C501.397 430.21 501.67 428.868 502.214 427.722C502.758 426.569 503.535 425.684 504.545 425.068C505.562 424.445 506.736 424.134 508.068 424.134C510.016 424.134 511.527 424.581 512.602 425.477C513.683 426.365 514.313 427.693 514.492 429.462H510.861C510.732 428.588 510.453 427.965 510.023 427.593C509.594 427.22 508.985 427.034 508.197 427.034C507.252 427.034 506.522 427.435 506.006 428.237C505.49 429.039 505.229 430.185 505.222 431.675V432.62C505.222 434.181 505.487 435.356 506.017 436.144C506.554 436.924 507.395 437.314 508.541 437.314C509.522 437.314 510.253 437.096 510.732 436.659V434.231H508.111V431.643H514.503V438.066ZM522.946 434.479H520.905V440H517.134V424.359H523.29C525.144 424.359 526.595 424.771 527.64 425.595C528.686 426.418 529.209 427.582 529.209 429.086C529.209 430.174 528.987 431.077 528.543 431.793C528.106 432.509 527.418 433.089 526.48 433.533L529.746 439.839V440H525.707L522.946 434.479ZM520.905 431.567H523.29C524.006 431.567 524.543 431.381 524.901 431.009C525.266 430.629 525.449 430.103 525.449 429.43C525.449 428.757 525.266 428.23 524.901 427.851C524.536 427.464 523.999 427.271 523.29 427.271H520.905V431.567ZM541.626 433.372H535.696V437.1H542.7V440H531.926V424.359H542.722V427.271H535.696V430.568H541.626V433.372ZM553.56 437.078H548.393L547.491 440H543.463L549.199 424.359H552.744L558.523 440H554.473L553.56 437.078ZM549.296 434.167H552.658L550.971 428.742L549.296 434.167ZM571.102 427.271H566.408V440H562.637V427.271H558.029V424.359H571.102V427.271ZM590.05 427.271H585.356V440H581.585V427.271H576.977V424.359H590.05V427.271ZM599.685 437.078H594.518L593.616 440H589.588L595.324 424.359H598.869L604.648 440H600.599L599.685 437.078ZM595.421 434.167H598.783L597.097 428.742L595.421 434.167ZM614.305 435.843C614.305 435.291 614.108 434.862 613.714 434.554C613.328 434.246 612.644 433.927 611.663 433.598C610.681 433.268 609.879 432.95 609.256 432.642C607.23 431.646 606.216 430.278 606.216 428.538C606.216 427.672 606.467 426.909 606.968 426.25C607.477 425.584 608.193 425.068 609.117 424.703C610.041 424.331 611.079 424.145 612.232 424.145C613.356 424.145 614.362 424.345 615.25 424.746C616.146 425.147 616.84 425.72 617.334 426.465C617.829 427.202 618.076 428.048 618.076 429H614.316C614.316 428.363 614.119 427.868 613.725 427.518C613.338 427.167 612.812 426.991 612.146 426.991C611.473 426.991 610.939 427.142 610.545 427.442C610.159 427.736 609.965 428.112 609.965 428.57C609.965 428.971 610.18 429.337 610.61 429.666C611.04 429.988 611.795 430.325 612.876 430.676C613.958 431.02 614.846 431.392 615.541 431.793C617.231 432.767 618.076 434.11 618.076 435.821C618.076 437.189 617.56 438.263 616.529 439.044C615.498 439.825 614.083 440.215 612.286 440.215C611.018 440.215 609.869 439.989 608.837 439.538C607.813 439.08 607.04 438.457 606.517 437.669C606.001 436.874 605.744 435.961 605.744 434.93H609.525C609.525 435.768 609.74 436.387 610.169 436.788C610.606 437.182 611.312 437.379 612.286 437.379C612.909 437.379 613.399 437.246 613.757 436.981C614.123 436.709 614.305 436.33 614.305 435.843ZM632.728 427.271H628.033V440H624.263V427.271H619.654V424.359H632.728V427.271ZM644.468 433.372H638.539V437.1H645.543V440H634.768V424.359H645.564V427.271H638.539V430.568H644.468V433.372ZM650.945 435.048H648.013L647.551 424.359H651.407L650.945 435.048ZM647.444 438.378C647.444 437.848 647.633 437.415 648.013 437.078C648.4 436.734 648.879 436.562 649.452 436.562C650.025 436.562 650.501 436.734 650.881 437.078C651.268 437.415 651.461 437.848 651.461 438.378C651.461 438.908 651.268 439.345 650.881 439.688C650.501 440.025 650.025 440.193 649.452 440.193C648.879 440.193 648.4 440.025 648.013 439.688C647.633 439.345 647.444 438.908 647.444 438.378Z" fill="white"/>
</g>
<g clip-path="url(#clip0)">
<path d="M505.064 218.084L504.628 217.561L504.802 217.039C504.89 216.604 504.977 216.081 505.587 215.733L506.111 215.994L506.198 216.255L506.721 216.429L506.983 217.039L506.459 217.561L506.372 217.648L506.023 218.084C505.936 218.084 505.762 218.171 505.675 218.171C505.587 218.171 505.5 218.171 505.413 218.171L505.064 218.084ZM528.873 203.545L528.35 203.283C528.262 203.022 528.262 202.5 529.135 202.239L529.658 202.674C529.483 203.196 528.96 203.458 528.873 203.545ZM467.563 200.323L467.389 199.975C467.214 199.54 467.214 199.018 467.476 198.582C467.737 198.147 468.086 197.799 468.522 197.625L468.958 197.886L469.394 199.018L469.22 199.54L468.958 199.801C468.871 200.062 468.697 200.411 468.086 200.498L467.737 200.236H467.999L468.173 200.062H468.086L467.999 199.975L467.737 200.149L467.563 200.323ZM526.518 193.359L526.867 193.01C527.303 193.098 527.652 193.446 527.914 193.707L528.175 193.968L528.001 194.665H527.914C527.826 194.926 527.739 195.187 527.303 195.361L526.867 195.187L526.605 194.926C526.431 194.752 526.169 194.578 525.995 194.142L525.908 193.707L526.344 193.272L526.518 193.359ZM491.982 188.57L492.244 188.048C492.244 188.048 492.331 188.048 492.418 188.048C492.593 188.048 492.854 188.135 492.942 188.396L493.029 188.658V188.919L492.942 189.528C492.767 189.702 492.593 189.702 492.506 189.702C492.331 189.702 492.157 189.615 492.07 189.528L491.633 189.354L491.546 189.267C491.372 188.832 491.721 188.57 491.808 188.483L491.982 188.57ZM503.756 187.961L503.407 187.874L503.233 187.787C502.884 187.526 502.448 187.178 502.273 186.742L502.186 186.394C502.099 186.133 502.273 185.959 502.448 185.872L502.535 185.698L502.448 185.61L502.884 185.001L503.494 184.827L503.756 184.74L504.279 185.088L504.454 185.436C504.715 185.785 504.977 186.307 504.89 187.09V187.178C504.715 187.613 504.192 187.787 503.756 187.961ZM540.647 178.21L540.385 178.123L540.123 177.862C539.949 177.514 540.21 177.253 540.21 177.166L540.472 176.73C540.559 176.73 540.559 176.73 540.647 176.73C540.908 176.73 541.083 176.817 541.17 177.079C541.257 177.34 541.257 177.688 541.083 177.949L540.647 178.21ZM475.15 164.02L475.238 163.672L475.412 163.149L475.325 163.062C475.238 162.801 475.412 162.627 475.412 162.54C475.499 162.453 475.586 162.453 475.761 162.453C475.935 162.453 476.11 162.54 476.371 162.627L476.546 162.714L476.807 162.975C476.895 163.236 476.895 163.41 476.807 163.584L476.895 163.672L476.982 164.194L476.807 164.455C476.546 164.89 476.284 165.326 475.848 165.326C475.412 165.326 475.15 164.977 474.889 164.716L475.238 164.107L475.15 164.02ZM515.617 160.015L515.093 159.667L514.919 159.58L514.483 159.144V159.057C514.396 158.622 514.483 158.274 514.657 158.013L514.832 157.49L515.181 157.055C515.791 157.055 516.489 157.055 516.838 157.839C517.012 158.274 516.838 158.622 516.75 158.883L516.663 159.231L516.227 159.754H516.14C515.966 159.841 515.791 159.928 515.617 160.015ZM501.227 157.926L500.703 157.664L500.442 157.577H500.093L499.831 157.316C499.657 156.968 499.919 156.533 500.267 156.359H500.355C500.616 156.01 501.14 155.836 501.401 155.749L501.924 156.01H501.75L502.186 156.62L502.099 156.968C501.924 157.142 501.75 157.664 501.227 157.926ZM536.722 155.662C536.809 155.662 536.984 155.662 537.158 155.575L537.594 155.749L537.769 155.923L537.943 156.184C538.03 156.097 538.205 156.01 538.379 156.01C538.466 156.01 538.553 156.01 538.641 156.097L538.815 156.271L538.902 156.446V156.881L538.815 157.316C538.641 157.49 538.466 157.49 538.379 157.49C538.205 157.49 538.03 157.403 537.943 157.403L537.681 157.664C537.332 157.926 537.071 158.187 536.635 158.187C536.46 158.187 536.199 158.1 536.024 158.013L535.85 157.751C535.588 156.968 535.588 156.881 535.675 156.184L535.763 156.01L536.024 155.749C536.199 155.662 536.373 155.662 536.46 155.662C536.548 155.662 536.548 155.662 536.635 155.662H536.722ZM505.064 153.921H505.238L505.5 153.66C505.762 153.747 505.936 154.008 506.023 154.182L506.198 154.53L506.111 155.053L506.198 155.314L506.111 155.836C505.849 156.01 505.587 156.097 505.413 156.097C505.239 156.097 505.151 156.097 504.977 156.01H504.802L504.454 155.488V155.14L504.628 154.356L504.802 154.182L504.89 154.008L505.326 153.834L505.064 153.921ZM510.994 156.01C510.471 156.01 509.948 155.749 509.599 155.14V154.704L509.686 154.53C509.948 154.095 510.21 153.834 510.384 153.399L510.82 153.224C511.431 153.399 511.954 153.834 512.128 154.269L512.215 154.356C512.39 154.966 512.128 155.662 511.431 155.923C511.431 156.01 511.169 156.01 510.994 156.01ZM508.204 150.787L507.68 150.351C507.768 149.829 507.942 149.481 508.117 149.046L508.291 148.61L508.465 148.436L509.076 148.349L509.425 148.262L510.035 148.436L510.122 148.61H509.948L510.384 149.22C510.21 149.481 510.122 149.742 510.035 149.916L509.861 150.351L509.25 150.439L508.465 150.7L508.204 150.787ZM551.461 146.869L551.548 146.695C551.635 146.695 551.722 146.608 551.81 146.608C552.071 146.608 552.158 146.782 552.246 146.956L552.42 147.043C552.595 147.13 552.769 147.391 552.943 147.74C553.031 148.088 553.292 148.784 553.118 149.22L552.769 149.046L552.507 149.133L552.595 149.307L552.769 149.394L552.856 149.133L552.943 149.22L552.769 149.829C552.595 149.916 552.42 149.916 552.246 149.916C551.548 149.916 551.025 149.394 550.676 149.046L550.589 148.871C550.501 148.61 550.676 148.349 550.85 148.262L550.938 148.088L550.763 148.001L550.85 147.653C550.763 147.391 550.85 147.217 550.938 147.043C551.112 146.869 551.286 146.782 551.548 146.782C551.374 146.869 551.461 146.869 551.461 146.869ZM508.291 147.914C508.116 147.914 507.942 147.914 507.768 147.827L507.593 147.653C507.244 146.695 507.942 146.173 508.465 145.824L508.727 145.65L509.163 145.563C509.425 145.65 509.599 145.824 509.686 146.086C509.861 146.434 509.861 146.869 509.773 147.304L509.599 147.566C509.076 147.74 508.64 147.914 508.291 147.914ZM523.727 146.173L523.291 145.737L523.204 145.476C523.117 145.302 523.117 145.041 523.204 144.693L523.291 144.518C523.466 144.344 523.727 144.257 523.902 144.257C524.076 144.257 524.251 144.344 524.338 144.344H524.425L524.861 144.693C524.948 145.041 524.861 145.389 524.6 145.65C524.512 145.998 524.163 146.173 523.727 146.173ZM537.071 144.344L536.548 144.083C536.46 143.474 536.46 142.864 536.809 142.255L536.984 142.081C537.158 141.994 537.332 141.907 537.507 141.907C537.594 141.907 537.769 141.907 537.856 141.994V141.907L538.553 142.255V142.429L538.641 142.603C538.728 142.777 538.902 143.038 538.902 143.387L538.553 143.735C538.205 143.822 538.117 143.822 537.856 143.996C537.681 143.996 537.507 144.17 537.071 144.344ZM533.844 140.775C533.495 140.688 533.321 140.427 533.146 140.166L533.059 139.904L532.885 139.643C532.797 139.208 533.146 139.121 533.233 139.121H533.495C533.582 138.947 533.757 138.686 534.106 138.511L534.542 138.686L534.803 138.773C535.065 138.86 535.501 139.034 535.588 139.643V139.817C535.414 140.253 534.978 140.427 534.542 140.601L534.193 140.775H533.844ZM529.222 136.248L529.658 135.725C529.919 135.725 530.268 135.9 530.53 136.509L530.617 136.683L530.443 137.118L530.181 137.206L530.007 137.293L530.094 137.118L529.832 137.641H529.745C529.396 137.641 529.222 137.38 529.222 137.293H529.396L528.96 137.118L528.873 137.031C528.611 136.509 529.135 136.335 529.222 136.161L529.309 136.074L529.222 136.248ZM542.652 137.554C542.391 137.467 542.216 137.206 542.129 136.944V136.857L542.042 136.77L541.606 136.422L541.693 135.987C541.606 135.551 541.519 135.116 541.519 134.507L541.78 134.158L542.391 134.071L542.74 133.984L543.35 134.158C543.437 134.42 543.525 134.594 543.612 134.768L544.135 135.029L544.222 135.464C544.397 135.9 544.571 136.422 544.135 137.206L543.961 137.38C543.699 137.554 543.525 137.554 543.35 137.554C543.263 137.554 543.263 137.554 543.176 137.554H543.088H542.652ZM495.732 134.855L495.209 134.681L494.86 134.42C494.773 134.071 494.686 133.81 494.86 133.549C495.035 133.114 495.558 132.94 495.907 132.765L496.343 133.027L496.43 133.201H496.256L496.692 133.462C496.953 134.158 496.343 134.507 495.994 134.594L495.732 134.855ZM518.756 132.765L518.844 132.591C519.541 132.678 519.89 133.114 520.065 133.81L519.89 134.158C519.89 134.42 519.89 134.594 519.803 134.681C519.541 134.942 519.28 135.029 519.018 135.029C518.582 135.029 518.233 134.768 517.884 134.594L517.623 134.42L517.448 133.984C517.535 133.462 517.797 133.027 518.233 132.678L518.756 132.765ZM534.454 133.81C534.367 133.81 534.28 133.81 534.106 133.723L533.844 133.375L533.931 132.765L534.367 132.591H534.629L535.152 132.853C535.239 133.114 535.152 133.462 534.978 133.636C534.803 133.723 534.629 133.81 534.454 133.81ZM518.407 132.33C518.059 132.33 517.71 132.156 517.448 131.721L517.623 131.198L517.535 131.111L517.361 130.937L517.448 130.502L517.884 130.415C518.146 130.067 518.407 130.067 518.756 130.067H519.105L519.454 130.241L519.541 130.328C519.803 131.024 519.367 131.808 518.844 132.069C518.756 132.33 518.582 132.33 518.407 132.33ZM535.588 132.069L534.978 131.808C534.891 131.373 534.891 131.111 534.891 130.676V130.415L535.327 130.067H535.414L535.501 129.98C535.675 129.805 535.85 129.544 536.373 129.544H536.46L536.809 129.718L536.896 129.805C537.071 130.154 537.071 130.415 537.071 130.676L537.158 131.198L536.984 131.634C536.635 131.808 536.373 131.895 536.111 131.895L535.588 132.069ZM190.055 120.142C190.142 119.707 190.578 119.358 191.101 119.358C191.189 119.358 191.363 119.358 191.45 119.445C191.886 119.62 192.148 119.881 192.322 120.316L192.061 120.925C191.886 121.012 191.712 121.1 191.538 121.1C191.363 121.1 191.189 121.012 191.014 121.012H190.84L190.142 120.664C190.055 121.361 189.444 121.796 189.27 122.057L188.921 122.318L188.049 121.796C188.049 121.709 188.049 121.535 187.787 121.274V120.49C188.311 119.881 188.834 119.707 189.27 119.707C189.532 119.707 189.706 119.794 189.881 119.794L190.055 120.142ZM549.28 120.142L548.757 119.881L548.67 119.707C548.583 119.358 548.583 119.358 548.408 119.097L548.321 118.923V118.488C548.757 117.791 549.193 117.704 549.629 117.617C549.978 117.53 550.153 117.53 550.327 117.182L550.85 117.095C551.548 117.53 551.897 118.314 551.548 118.923L551.286 119.097C550.85 119.184 550.589 119.358 550.327 119.62C550.065 119.707 549.804 119.968 549.28 120.142ZM216.742 118.052C216.742 118.052 216.655 118.052 216.567 118.052C216.044 117.965 215.695 117.53 215.434 117.269L215.346 116.747C215.608 115.876 216.218 115.267 217.003 115.267C217.091 115.267 217.178 115.267 217.178 115.267C217.527 115.354 218.05 115.528 218.573 116.311L218.224 117.182L217.614 117.53L217.439 117.617C217.439 117.791 217.178 118.052 216.742 118.052ZM193.107 110.304H192.846C192.497 110.304 192.148 110.304 191.974 110.043L191.886 109.869L191.799 109.782L191.625 109.695L191.363 109.521C191.276 109.347 191.101 108.911 191.625 108.476L192.148 108.128L192.584 108.215L193.02 108.824C193.282 109.172 193.543 109.521 193.543 110.043L193.107 110.304ZM401.02 100.902L400.846 100.815L400.672 100.466L400.933 100.292L401.282 100.118C401.544 100.292 401.456 100.554 401.369 100.728V100.815L401.02 100.902ZM386.02 96.2877C385.758 96.2006 385.322 96.0265 385.497 95.5041L385.584 95.33C385.671 95.33 385.758 95.2429 385.845 95.2429C386.107 95.2429 386.282 95.4171 386.369 95.5912L386.282 96.1135L386.02 96.2877ZM194.677 97.1582C194.416 97.1582 194.241 97.0712 193.979 96.8971L193.892 96.4618L194.067 95.8524L194.154 95.33L194.067 94.8947L194.154 94.8076L194.677 94.3724L194.939 94.2853C195.375 94.4594 195.462 94.5465 195.636 94.8947L195.724 94.9818V95.2429C195.637 95.4171 195.636 95.5912 195.636 95.9394C195.636 96.2006 195.724 96.4618 195.636 96.7229L195.375 96.8971L195.113 96.9841C195.026 97.0712 194.852 97.1582 194.677 97.1582ZM412.794 95.0688L412.62 94.9818L412.532 94.7206L412.707 94.3724L412.794 94.1112L413.056 93.85C413.753 93.9371 413.579 94.5465 413.492 94.8076L413.317 94.9818L412.794 95.0688ZM384.625 94.9818C384.363 94.7206 384.276 94.4594 384.363 94.1982L384.799 93.7629H384.886C385.148 93.7629 385.235 93.85 385.322 93.9371L385.409 94.0241L385.497 94.2853C385.409 94.5465 385.322 94.7206 385.148 94.8076L385.061 94.8947L384.625 94.9818ZM190.753 94.2853H190.578C190.229 94.1982 190.142 93.937 189.968 93.7629L189.881 93.6759L189.532 93.3276L189.619 92.9794L189.444 92.37L189.532 92.1959C190.055 91.6735 190.491 91.5864 190.927 91.5864C191.101 91.5864 191.189 91.5864 191.363 91.5864L191.45 92.1088L191.712 92.457L191.974 92.7182L191.886 92.9794L192.061 93.1535L191.974 93.5888L191.538 93.85C191.363 94.0241 191.189 94.1982 190.753 94.2853ZM185.171 92.8053L184.735 92.7182L184.299 91.8476L184.386 91.6735L184.561 91.4994C184.648 91.4123 184.997 91.1512 185.346 91.1512C185.433 91.1512 185.607 91.1512 185.694 91.2382L185.782 91.3253L185.956 91.8476L186.043 91.9347V92.37L185.956 92.457V92.37L185.869 92.8053L185.346 92.7182H185.258L185.171 92.8053ZM378.781 91.7606L379.043 91.6735L379.13 91.4994L379.043 91.3253C379.217 91.0641 379.479 90.977 379.828 90.977C379.915 90.977 380.002 90.977 380.09 90.977H380.177L380.438 91.1512V91.2382L380.526 91.5864L380.613 91.9347L380.438 92.1088L380.526 92.37L380.002 92.5441H379.915L379.741 92.7182H379.479L379.392 92.8923L379.305 93.0665L378.869 93.1535H378.781V92.9794L378.607 93.0665V93.3276H378.258L377.996 93.1535L377.56 92.8923L377.473 92.5441V92.2829C377.473 92.1959 377.473 92.0218 377.56 91.7606L377.648 91.6735C377.735 91.5865 377.909 91.4994 378.084 91.4994C378.345 91.6735 378.52 91.6735 378.781 91.7606ZM377.56 90.3676C377.473 90.3676 377.386 90.3676 377.299 90.3676L376.688 90.0194L376.601 89.7582C376.688 89.3229 376.95 89.1488 377.212 89.0617L377.386 88.9747L377.473 88.8876H377.56C377.735 88.8876 377.822 88.9747 377.909 89.1488L378.171 89.3229L378.258 89.5841H378.171L378.258 90.0194C377.996 90.2806 377.822 90.3676 377.56 90.3676ZM319.041 86.1017L318.518 85.9276L318.344 85.6664L318.605 85.3182L319.216 85.5794L319.303 85.6664L319.39 85.9276V86.0147L319.041 86.1017ZM359.159 84.0994L358.897 83.4899C358.984 83.3158 359.159 83.1417 359.42 83.1417C359.508 83.1417 359.682 83.1417 359.769 83.2288L359.856 83.577L359.682 83.8382L359.595 83.9252L359.159 84.0994ZM426.05 83.9252H425.876L425.614 83.577L425.352 83.2288C425.44 82.7935 425.614 82.6193 425.789 82.4452C425.876 82.3582 426.05 82.3582 426.137 82.3582C426.225 82.3582 426.399 82.3582 426.486 82.4452L426.661 82.5323C426.922 82.6194 426.922 82.9676 426.922 83.0546L426.835 82.9676L426.922 83.4029L426.835 83.4899L426.748 83.577L426.835 83.7511L426.399 84.0123L426.225 83.8382L426.05 83.9252ZM307.965 82.4452L307.529 82.1841L307.442 82.0099C307.442 81.7488 307.529 81.4876 307.616 81.0523L308.053 80.8782L308.314 80.9652L308.925 81.1393L309.012 81.4876L308.925 81.5746L308.837 81.7488L308.925 81.8358L309.012 82.0099L308.663 82.5323L307.965 82.4452ZM208.893 82.2711L208.631 82.0099L208.544 81.7488C208.457 81.3135 208.282 80.704 209.154 80.2688L209.329 80.1817C210.026 80.2688 210.114 80.4429 210.463 81.0523L210.375 81.4876L209.939 81.8358L209.59 82.1841L209.154 82.097L209.067 82.0099L208.98 82.097L208.893 82.2711ZM405.904 80.0076L405.643 79.9205L405.294 79.6593L405.381 79.224L405.643 79.137C405.904 79.224 406.079 79.3111 406.166 79.4852L406.079 79.9205L405.904 80.0076ZM427.62 80.3558L427.271 80.2688C426.922 80.1817 426.661 80.0076 426.573 79.7464C426.486 79.4852 426.486 79.137 426.661 78.7887L426.835 78.6146C427.009 78.5276 427.358 78.4405 427.62 78.4405C427.707 78.4405 427.707 78.4405 427.794 78.4405C427.882 78.4405 428.056 78.5276 428.143 78.7887L428.492 79.0499C428.667 79.3982 428.318 79.6593 428.056 79.8335L427.707 80.0946L427.62 80.3558ZM201.916 80.0946C201.48 80.0076 201.131 79.7464 200.782 79.224L200.695 78.7887C200.782 78.2664 201.131 77.8311 201.741 77.4829L202.526 77.744C202.788 78.2664 203.137 79.224 202.439 79.9205L201.916 80.0946ZM394.654 75.0452H394.479L394.131 74.784L394.218 74.2617L394.479 74.0875C394.916 74.2617 395.003 74.5228 394.916 74.9581L394.654 75.0452ZM415.585 73.6523C415.498 73.6523 415.41 73.6522 415.323 73.5652H415.236L415.149 73.0428V72.9558L415.061 72.8687L415.149 72.6075L415.41 72.5205L415.934 72.4334V72.6946L416.021 72.4334H416.108L416.282 72.5205C416.457 72.7817 416.37 73.1299 416.195 73.3911C416.108 73.5652 415.846 73.6523 415.585 73.6523ZM299.593 72.2593H299.419L298.983 71.9981V71.824L299.07 71.6499V71.3017L299.331 71.1275C300.116 71.3016 300.029 71.7369 299.942 71.9981V72.1722L299.593 72.2593ZM276.743 71.6499L276.482 71.3887L276.743 71.0405L277.092 70.6922L277.616 70.8663L277.703 71.3017L277.616 71.5628L277.267 71.7369H277.18L276.743 71.6499ZM298.372 69.3863L298.198 69.2993L298.023 69.1252L298.285 68.6899L298.895 68.5158C299.157 68.6028 299.244 68.864 299.157 69.1252L298.808 69.2993L298.721 69.2122L298.372 69.3863ZM295.843 68.3416L295.756 68.2546C295.668 68.1675 295.32 67.9934 295.581 67.5581L295.756 67.384L296.192 67.5581L296.279 67.471L296.541 67.7322L296.279 68.2546H295.843V68.3416ZM249.359 66.1652C249.359 65.904 249.621 65.7299 249.882 65.7299C249.969 65.7299 249.969 65.7299 250.057 65.7299L250.493 66.1652L250.406 66.5134H249.882H249.795L249.446 66.3393C249.446 66.6875 249.097 66.9487 249.01 67.0357L248.836 67.1228L248.4 66.8616L248.225 66.6004V66.2522C248.487 65.904 248.749 65.8169 248.923 65.8169C249.01 65.8169 249.097 65.8169 249.185 65.904L249.359 66.1652ZM425.614 64.7722L425.701 64.511L426.05 64.7722V65.1204C425.963 65.2946 425.876 65.4687 425.614 65.4687C425.527 65.4687 425.527 65.4687 425.44 65.4687L425.527 65.2075H425.44L425.614 64.7722ZM228.777 67.2969L228.428 67.0357H228.341L227.992 66.7746C227.905 66.5134 227.905 66.3393 227.905 66.0781V65.5557L227.992 65.2946L228.079 65.2075L228.515 64.8593C228.777 64.6851 228.951 64.5981 229.126 64.2498L229.562 64.1628L229.736 64.424V64.511H229.824C230.085 64.5981 230.347 64.5981 230.521 64.8593L230.26 65.2075L230.347 65.5557C230.347 65.991 229.824 66.6875 229.387 67.0357L229.039 67.2969H228.864H228.777ZM262.441 65.1204L261.917 64.6852L261.83 64.424C261.917 63.9887 262.266 63.7275 262.615 63.7275H262.702C262.877 63.7275 263.138 63.9016 263.4 64.2498L263.226 64.6852L262.964 64.8593L262.877 64.9463L262.441 65.1204ZM292.79 63.2922V62.8569C292.965 62.7698 293.139 62.6828 293.314 62.6828C293.663 62.6828 293.924 62.8569 294.011 63.2051L293.924 63.4663C293.75 63.6404 293.575 63.7275 293.401 63.7275C293.314 63.7275 293.227 63.7275 293.139 63.6404L292.79 63.5534L292.703 63.1181L292.79 63.031V63.1181V63.2922ZM281.627 65.1204L281.017 65.0334C280.581 64.6851 280.581 64.3369 280.581 64.1628L280.406 63.1181L281.366 62.3345L282.238 62.7698C282.238 62.8569 282.238 63.031 282.499 63.2922L282.325 64.1628L282.151 64.3369C282.151 64.511 282.063 64.7722 281.715 65.0334L281.627 65.1204ZM223.195 62.6828H223.283L222.847 62.4216L223.021 62.0734L223.195 61.6381C223.457 61.551 223.719 61.464 224.068 61.464C224.416 61.464 224.678 61.551 225.027 61.8993V62.3345L224.94 62.4216L224.765 62.5957V62.8569L224.678 63.031C224.591 63.1181 224.416 63.2051 224.329 63.2051C224.155 63.2051 224.068 63.2051 223.98 63.1181H223.893H223.544L223.195 62.6828ZM331.861 63.2051L331.425 62.6828V62.5957H331.513H331.338C331.251 62.3345 331.425 61.8992 331.774 61.551H332.123C332.385 61.8122 332.646 62.1604 332.733 62.5957V62.6828L332.297 62.8569V62.944L331.861 63.2051ZM304.564 62.0734L304.302 61.8993L304.39 61.551L304.477 61.464C304.564 61.3769 304.651 61.2028 304.913 61.2028C305 61.2028 305.087 61.2028 305.175 61.2898L305.262 61.3769L305.175 61.9863L304.564 62.0734ZM242.12 61.6381L241.859 61.551H241.772L241.335 61.2898V60.6804L241.51 60.5063C241.597 60.5063 241.772 60.4192 241.859 60.4192C242.12 60.4192 242.382 60.5063 242.469 60.7675C242.556 60.9416 242.556 61.2028 242.469 61.551L242.12 61.6381ZM296.279 58.0686L296.105 57.9816V57.5463L296.192 57.4592V57.111L296.541 56.8498H296.628H296.977H297.064L297.151 57.111L297.064 57.2851V57.3722L296.977 57.7204H296.715L296.279 58.0686ZM367.531 55.8922H367.793L367.967 56.2404L368.054 56.5886L367.793 57.0239V56.9369L367.618 57.2851H367.357C367.095 57.1981 366.921 57.0239 366.833 56.7628V56.0663L367.182 55.9792L367.531 55.8922ZM385.409 55.3698C385.148 55.1086 385.061 54.8475 385.148 54.6733L385.497 54.4992C385.671 54.4992 385.758 54.6733 385.758 55.1957L385.409 55.3698ZM279.709 53.6286L280.058 53.5416L280.319 53.8027L280.232 54.3251L280.145 54.4122L279.709 54.4992L279.273 54.238L279.185 54.151V53.8027L279.709 53.6286ZM233.574 52.4098C233.399 52.4098 233.225 52.4098 233.225 52.3227L233.05 52.2357V51.8004L233.138 51.5392L233.399 51.3651C234.01 51.4521 234.097 51.7133 234.184 51.9745L234.097 52.1486C234.184 52.1486 234.184 52.1486 234.271 52.1486C234.446 52.1486 234.707 52.3227 234.795 52.4969L234.62 53.0192L234.271 53.1063L234.01 52.758V52.671L233.922 52.3227C233.835 52.4098 233.661 52.4098 233.574 52.4098ZM410.439 50.1463C410.178 49.9721 410.265 49.711 410.352 49.5368V49.4498L410.701 49.2757L411.05 49.3627L411.224 49.5368C411.224 49.9721 410.963 50.0592 410.875 50.0592L410.439 50.1463ZM284.331 49.8851L284.157 49.4498V49.1886L284.505 48.9274C284.767 49.0145 284.854 49.1886 284.854 49.2757C284.854 49.5368 284.593 49.711 284.505 49.798L284.331 49.8851ZM424.48 49.1015C424.393 49.1015 424.219 49.1015 424.132 49.1015L423.957 48.9274V48.8404L423.87 48.5792L424.132 48.1439L424.306 47.7957L424.393 47.6215L424.655 47.5345L424.916 47.7957H425.004L425.178 48.1439V48.2309L425.352 48.5792C425.265 48.8404 425.004 49.1015 424.48 49.1015ZM419.16 48.4051L418.724 48.1439L418.463 47.9698L418.288 47.7086C418.288 47.3604 418.376 47.0121 418.637 46.838C418.724 46.7509 418.899 46.6639 419.073 46.6639C419.16 46.6639 419.335 46.6639 419.509 46.7509L419.684 46.9251C419.771 47.4474 419.858 47.7086 419.422 48.2309L419.16 48.4051ZM394.567 48.0568L394.131 47.7957L394.043 47.7086L393.956 47.5345C393.869 47.2733 394.131 47.0992 394.218 47.0121V46.838C394.305 46.7509 394.392 46.7509 394.479 46.7509C394.654 46.7509 394.916 46.838 395.09 47.0121L395.177 47.3604L394.916 47.6215L394.741 47.8827L394.567 48.0568ZM251.801 46.6639H251.714L251.539 46.4898C251.452 46.3156 251.452 46.1415 251.539 45.8803L251.714 45.7062C251.801 45.7062 251.888 45.6192 251.975 45.6192C252.15 45.6192 252.237 45.6192 252.411 45.7062L252.499 46.0545C252.411 46.3156 252.15 46.6639 251.801 46.6639ZM291.046 46.5768L290.61 46.4898L290.436 46.2286C290.436 45.7933 290.697 45.6192 290.872 45.6192L290.959 45.5321L291.221 45.6192L291.308 46.2286V46.4027L291.046 46.5768ZM298.459 47.3604C298.372 47.3604 298.285 47.3604 298.198 47.3604C297.936 47.2733 297.674 47.0992 297.587 46.838V46.1415L298.023 45.7933L298.285 45.6192L298.459 45.5321H298.546L298.721 45.7933L298.895 45.8803L299.157 46.0545L299.244 46.3156V46.4898L299.331 46.838C299.157 47.1862 298.808 47.3604 298.459 47.3604ZM255.202 46.4898L254.592 46.0545V45.7933C254.679 45.5321 254.766 45.358 255.115 45.1839L255.551 45.2709C255.638 45.5321 255.813 45.9674 255.464 46.3156L255.202 46.4898ZM391.165 46.4027L390.729 46.1415L390.555 45.9674L390.468 45.7062C390.468 45.358 390.555 45.2709 390.729 45.0968L390.904 44.9227L391.165 44.8356L391.514 45.0098L391.776 45.0968L392.038 45.358L391.95 45.7062L391.863 45.8803L391.776 45.7933L391.863 46.2286L391.165 46.4027ZM373.461 42.5721C373.549 42.485 373.636 42.485 373.723 42.485C373.897 42.485 374.072 42.6592 374.159 42.8333V43.0074H374.246L374.421 43.0945L374.595 43.3556L374.682 43.6168C374.77 43.7909 374.944 43.965 374.77 44.3133L374.508 44.4874H374.421L373.985 44.5745L373.81 45.0098L373.549 45.0968L373.374 45.0098C372.938 44.9227 372.764 44.6615 372.502 44.4874L372.328 44.4003L372.24 44.1392L372.328 43.965L372.502 43.6168L372.415 43.2686L372.938 42.9203L373.025 42.6592L373.461 42.5721ZM395.264 42.3109L395.09 41.9627V41.7886C395.09 41.6144 395.09 41.4403 395.352 41.3533L395.7 41.4403L395.875 41.5274L396.137 41.7886L395.962 42.2239L395.264 42.3109ZM294.273 39.1768H294.011L293.75 38.7415L293.663 38.2191L294.099 37.8709L294.535 38.1321L294.796 38.3062L294.709 38.7415L294.622 38.8285L294.448 39.1768H294.273ZM304.826 37.0874L304.651 37.0003L304.302 36.7391C304.302 36.2168 304.651 36.1297 304.826 36.1297L304.913 36.0427L305.262 35.8685C305.698 36.0427 305.698 36.4779 305.698 36.7391L305.523 36.9132H305.262L304.826 37.0874ZM251.801 36.1297L251.975 35.3462C252.237 35.1721 252.411 35.1721 252.586 35.1721C252.673 35.1721 252.76 35.1721 252.847 35.1721C253.196 35.2591 253.458 35.5203 253.72 35.9556L253.807 36.3038C253.807 36.6521 253.632 37.0003 253.371 37.1744C253.022 37.4356 252.586 37.5227 252.237 37.6097L251.975 37.6968L251.365 37.3485C251.103 36.8262 251.539 36.3909 251.714 36.1297L251.888 35.9556L251.801 36.1297ZM424.829 34.8238L424.306 34.5626H424.219L424.132 34.3015L424.306 33.7791L424.568 33.605L424.829 33.6921C425.004 33.7791 425.352 33.8662 425.44 34.1273V34.7368L425.352 34.8238H424.829ZM285.203 33.9532C285.029 33.9532 284.854 33.8662 284.68 33.8662L284.418 33.7791L284.331 33.4309L284.767 33.0826L285.029 32.9085L285.29 32.8215L285.552 33.1697L285.726 33.5179C285.726 33.8662 285.465 33.9532 285.203 33.9532ZM262.79 32.9085L262.964 32.7344L263.051 32.8215L263.487 33.0826V33.1697L263.575 33.0826C263.749 33.3438 263.749 33.5179 263.575 33.9532L263.138 34.0403H263.051L262.528 34.1273L262.354 33.8662L262.005 33.5179V33.4309L262.441 32.9085L262.528 32.8215L262.79 32.9085ZM403.113 32.9085L402.939 32.7344V32.4732L402.765 32.212V32.125C402.852 31.6026 403.113 31.3415 403.288 31.1673L403.55 31.0803L403.811 31.1673L404.247 31.4285C404.683 31.4285 405.032 32.0379 404.945 32.4732L404.77 32.6473L404.422 32.8215C404.247 32.9956 404.16 33.0826 403.898 33.0826C403.811 33.0826 403.724 33.0826 403.55 33.0826H403.462V32.9085H403.375H403.113ZM317.733 31.8638C317.471 31.6897 317.471 31.3415 317.646 30.9062L317.733 30.8191H318.431L318.692 30.9062L318.867 31.1673C318.867 31.7767 318.431 31.8638 318.256 31.8638L318.082 31.9509H317.733V31.8638ZM401.631 31.9509L401.456 31.5156V31.3415V31.2544C401.369 31.0803 401.195 30.732 401.544 30.5579L401.718 30.4709L402.329 30.645L402.503 30.9062V31.1673C402.503 31.3415 402.503 31.6026 402.241 31.8638H401.892L401.805 31.7768L401.631 31.9509ZM343.809 30.645L343.548 30.3838V30.2967C343.548 29.9485 343.722 29.8614 343.809 29.7744L343.897 29.6003L344.158 29.4261C344.769 29.6003 344.682 30.1226 344.682 30.4709L344.245 30.5579L344.158 30.645H343.809ZM342.065 28.6426L341.804 28.3814C341.716 28.1203 341.891 27.8591 342.065 27.685L342.152 27.5979L342.327 27.5108L342.763 27.685H342.85L342.937 27.8591H343.024L343.112 28.2944L342.588 28.6426L342.414 28.7297L342.065 28.6426ZM402.852 26.9014L402.677 26.8144L402.765 26.1179L403.201 25.8567L403.375 25.9438L403.288 26.6403L402.852 26.9014ZM279.621 24.9861L279.709 24.6379L280.145 24.5508L280.581 24.9861L280.668 25.1602L280.406 25.5955L279.883 25.8567H279.709L279.36 25.6826C279.273 25.4214 279.447 25.1602 279.534 25.0732L279.621 24.9861ZM420.73 25.0732L420.556 24.7249L420.73 24.5508L420.992 24.3767L421.166 24.4638L421.341 24.7249L421.166 25.0732H420.73ZM299.506 24.9861C299.157 24.9861 298.808 24.8991 298.546 24.3767V23.8544C298.721 23.4191 299.157 23.332 299.419 23.332L299.506 23.0708C299.68 22.8967 299.855 22.8967 300.029 22.8967C300.116 22.8967 300.203 22.8967 300.291 22.9838C300.814 23.2449 300.901 23.8544 300.988 24.1155L300.465 24.8991L300.203 24.9861C300.029 24.8991 299.767 24.9861 299.506 24.9861ZM286.686 24.1155H286.947L286.162 23.5932C286.162 22.4614 286.86 21.6779 287.732 21.6779C287.907 21.6779 288.168 21.7649 288.43 21.852L288.779 22.2873C288.953 23.2449 288.692 23.5932 288.168 24.0285L287.558 24.5508L286.598 24.1155V23.9414L286.686 24.1155ZM361.688 23.5061L361.426 23.0708L361.513 22.8967C361.513 22.8967 361.513 22.8096 361.077 22.6355L360.554 22.5485L360.38 22.2873C360.38 22.0261 360.554 21.852 360.728 21.7649L360.816 21.6779V21.4167L361.513 21.5908L361.688 21.7649H361.949H362.037L362.298 22.0261V22.1132L362.822 22.2873L362.996 22.5485C362.909 22.8096 363.083 22.9838 363.258 23.0708V23.5061L363.17 23.5932C362.996 23.7673 362.734 24.0285 362.386 24.0285C362.386 24.0285 362.386 24.0285 362.298 24.0285H362.211L361.949 23.6802L361.862 23.5932L361.688 23.5061ZM311.279 23.5932L310.843 23.5061L310.582 23.0708C310.233 22.9838 309.971 22.8096 309.884 22.6355V21.7649C310.407 21.2426 310.843 21.0685 311.192 21.0685C311.715 21.0685 312.064 21.4167 312.326 21.7649L312.588 22.0261L312.675 22.8096L312.413 23.0708C312.064 23.4191 311.715 23.5932 311.279 23.5932ZM305.349 21.5908H304.738C304.477 21.4167 304.302 21.0685 304.215 20.6332C304.215 20.1108 304.39 19.5885 304.738 19.2402C304.913 19.0661 305.175 18.979 305.349 18.979C305.611 18.979 305.959 19.1532 306.221 19.4143L306.047 20.2849L305.872 20.372C306.047 20.8943 305.785 21.2426 305.523 21.4167L305.349 21.5908ZM363.083 19.9367L362.734 19.6755L362.647 19.4143C362.56 19.2402 362.56 18.979 362.56 18.7179L362.909 18.5437L363.258 18.6308L363.432 18.979V19.2402C363.432 19.4143 363.519 19.7626 363.083 19.9367ZM303.081 19.5014C302.907 19.5014 302.733 19.4143 302.558 19.2402V18.979L302.994 18.7179V18.5437L303.43 18.4567L303.779 19.0661L303.518 19.4143H303.43C303.343 19.4143 303.169 19.5014 303.081 19.5014ZM344.245 19.9367C343.984 19.5014 343.548 18.7179 344.333 18.1084H344.682L344.769 18.1955C344.856 18.1955 344.943 18.1084 345.03 18.1084C345.118 18.1084 345.205 18.1084 345.292 18.1955L345.466 18.3696L345.554 18.5437L345.641 18.7179L345.902 18.979L345.99 19.2402C345.902 19.5014 345.815 19.6755 345.641 19.7626L345.554 19.8496H345.292L345.205 19.9367L344.943 20.1108H344.769L344.594 20.0238L344.507 19.9367H344.682H344.245ZM296.802 19.0661H296.889L296.453 18.8049C296.453 18.2826 296.802 17.9343 297.238 17.9343C297.326 17.9343 297.413 17.9343 297.587 18.0214L297.762 18.1955C297.849 18.7179 297.674 18.892 297.5 19.0661L297.238 19.3273L296.802 19.0661ZM308.837 18.8049L308.663 18.7179L308.489 18.5437L308.14 18.3696V17.9343C308.401 17.6732 308.663 17.5861 308.837 17.5861C309.099 17.5861 309.274 17.7602 309.448 17.9343L309.535 18.0214V18.4567L309.361 18.6308L308.837 18.8049ZM279.098 18.2826L278.662 18.1955L278.488 18.0214L278.401 17.5861C278.575 17.499 278.662 17.412 278.749 17.412C278.837 17.412 278.924 17.412 279.011 17.499C279.273 17.6731 279.273 18.0214 279.273 18.1955L279.098 18.2826ZM381.834 17.0637L382.095 16.8026L382.444 16.9767V17.0637L382.706 17.1508L382.88 17.3249V17.5861L383.142 17.8473L383.055 18.1084L382.88 18.1955L382.706 18.2826L382.531 18.3696L382.444 18.4567L382.183 18.5437L381.834 18.6308L381.659 18.3696V18.1084L381.485 17.5861V17.2379L381.834 17.0637ZM341.542 20.8073L341.193 20.7202C340.67 20.2849 340.321 19.9367 339.536 19.0661L339.798 18.1955C340.234 18.1084 340.234 17.9343 340.321 17.7602C340.583 17.499 340.844 17.1508 341.367 16.8896L342.152 17.1508L342.24 17.3249L342.327 17.6731H342.501L342.937 17.8473C343.286 18.1955 343.373 18.6308 343.373 19.0661C343.373 19.5885 343.024 20.1108 342.588 20.459C342.327 20.5461 341.978 20.7202 341.542 20.8073ZM305.611 17.7602L305.349 17.3249C305.349 17.0637 305.436 16.8026 305.611 16.6284L306.308 16.7155L306.221 17.1508L306.134 17.2379L305.959 17.6731L305.872 17.7602H305.611ZM346.251 16.6284C346.251 16.6284 346.164 16.6284 346.077 16.6284L345.99 16.1931L346.077 16.1061C346.164 16.019 346.251 15.8449 346.513 15.8449C346.6 15.8449 346.687 15.8449 346.775 15.932V16.3673L346.687 16.4543C346.6 16.4543 346.513 16.6284 346.251 16.6284ZM323.751 17.412L323.576 17.3249C323.315 17.1508 323.14 16.9767 322.791 16.5414L322.966 16.1061L323.227 15.932C323.315 15.8449 323.489 15.6708 323.751 15.4967L324.187 15.6708V15.7578L324.274 15.932H324.361L324.623 16.019L324.884 16.6284C324.884 16.8896 324.71 17.1508 324.536 17.3249L323.751 17.412ZM449.249 15.6708L449.074 15.1484L449.336 14.7131H449.51H449.597L449.772 14.9743L449.597 15.4967L449.249 15.6708ZM370.235 13.8425L369.973 13.5814V13.4072C369.886 13.2331 369.886 13.059 370.06 12.7978L370.322 12.6237L370.583 12.7108C370.845 12.7108 371.02 12.7978 371.194 12.972L371.281 13.3202V13.4072L371.194 13.3202L371.368 13.7555L371.281 14.0167L371.019 14.1908H370.845L370.409 13.9296L370.322 13.8425H370.235ZM391.776 13.4072C391.078 13.2331 390.468 12.7108 390.555 11.8402L390.642 11.6661C390.817 11.579 391.078 11.4919 391.34 11.4919C391.514 11.4919 391.601 11.4919 391.776 11.579L392.125 11.7531L392.299 12.0143L392.474 12.1884L392.386 12.6237L392.299 12.7108L392.212 12.5367H392.125L392.299 12.7978V12.7108L392.386 12.8849L392.038 13.059L391.776 13.4072ZM311.715 11.4919L312.064 11.2308L312.239 11.4049L312.326 11.6661L312.239 11.9272L311.977 12.1014H311.89L311.715 12.0143H311.628L311.454 11.6661L311.715 11.4049H311.803L311.715 11.4919ZM294.011 12.6237L293.663 12.2755V12.1884L293.314 11.9272V11.4919L293.401 11.4049L293.575 11.1437L293.663 11.0566L294.011 11.1437L294.099 11.4049H294.186L294.448 11.7531L294.36 12.0143C294.447 12.2755 294.36 12.4496 294.273 12.5367L294.011 12.6237ZM443.667 11.8402H443.58L443.318 11.6661L443.231 11.4049L443.58 11.1437L443.929 10.9696L444.103 11.579C444.016 11.6661 443.841 11.8402 443.667 11.8402ZM391.863 11.3178L391.514 11.2308H391.253L390.904 11.0566L390.817 10.7084L390.642 10.3602C390.729 10.0119 390.904 9.83782 390.991 9.75076L391.078 9.6637H391.427L391.863 9.92488L391.689 10.099H392.125C392.212 10.5343 392.038 10.9696 391.863 11.2308V11.3178ZM423.172 9.92488H422.911L422.823 9.83782V9.31546V9.2284C422.911 9.05428 422.998 8.88017 423.259 8.88017C423.347 8.88017 423.434 8.88017 423.521 8.88017L424.044 9.2284V9.48958L423.87 9.6637L423.695 9.83782H423.172V9.92488ZM334.216 9.6637H333.867L333.693 9.2284C333.693 8.96723 334.042 8.79311 334.303 8.79311H334.391L334.652 8.88017L334.739 8.96723L334.652 9.40252L334.216 9.6637ZM337.181 3.30837L337.443 3.13426H337.705L337.879 3.39543L338.053 3.56955L337.879 3.83073L337.792 4.00485L337.443 4.35308H337.356L337.094 4.09191H336.92C336.658 4.00485 336.658 3.83073 336.745 3.48249L337.094 3.30837H337.181ZM362.996 4.9625L362.211 4.87544C362.037 4.61426 361.775 4.26603 361.775 3.91779C361.862 3.39543 362.473 3.13426 362.996 3.0472H363.258L363.781 3.22131L363.955 3.39543L363.868 4.17897L362.996 4.9625ZM367.967 0.00012207C334.303 0.00012207 289.912 5.65898 252.847 29.8614C252.847 29.8614 168.862 76.3511 160.839 142.69C160.839 142.69 157.089 163.759 157.089 186.046C157.089 200.411 158.659 215.298 163.804 225.484C176.973 251.427 238.37 309.322 275.174 314.458C289.128 316.373 303.692 317.157 317.471 317.157C355.757 317.157 388.811 311.672 388.811 311.672C388.811 311.672 502.099 296.176 550.065 163.41C552.595 156.359 554.513 149.655 555.821 143.213C555.647 143.126 555.473 142.951 555.385 142.777L555.298 142.69L555.211 142.255C555.385 141.994 555.647 141.733 555.909 141.733C555.909 141.733 555.909 141.733 555.996 141.733H556.083C557.478 134.594 558.089 127.803 558.089 121.448C558.089 26.0308 419.073 4.44014 419.073 4.44014C419.073 4.44014 397.794 0.00012207 367.967 0.00012207Z" fill="#7AB629"/>
<path fill-rule="evenodd" clip-rule="evenodd" d="M436.244 63.3586L436.244 63.3591L436.244 63.3595L436.244 63.3599L436.244 63.3603L436.243 63.3608L436.243 63.3612C436.166 63.65 436.092 63.9299 436.007 64.1818C432.137 75.4327 430.117 87.1035 428.771 99.0261C434.745 88.3629 439.121 77.196 440.215 64.9375C440.229 64.6754 440.262 64.3906 440.295 64.0966C440.454 62.6954 440.636 61.0864 439.037 60.7393C437.074 60.2499 436.63 61.9152 436.244 63.3586ZM467.646 88.5309C466.047 87.5233 463.775 86.8516 462.765 89.2865C462.617 89.6629 462.46 90.037 462.303 90.4129C461.477 92.3848 460.632 94.4018 460.914 97.0111C463.523 95.4158 465.542 93.8205 466.973 91.7214C467.123 91.4861 467.382 91.2508 467.649 91.0085C468.43 90.3 469.276 89.532 467.646 88.5309ZM484.535 111.986C485.103 111.053 485.672 110.119 486.242 109.186C487.571 107.022 489.54 105.67 491.52 104.311C491.921 104.035 492.324 103.759 492.721 103.476C492.146 104.795 491.575 106.116 491.005 107.435L491.003 107.44L491.003 107.441C486.822 117.119 482.667 126.738 476.818 135.382C471.937 142.687 459.568 141.679 454.603 134.374C452.416 131.184 450.144 124.803 449.555 120.185C448.75 121.272 447.953 122.328 447.17 123.367L447.168 123.369C445.412 125.697 443.721 127.938 442.15 130.26C440.551 132.695 438.448 134.626 436.344 136.557C430.875 141.679 426.583 140.923 421.198 134.458C417.916 130.596 416.906 125.558 416.654 120.688C415.728 100.957 417.664 81.7299 426.667 63.762C427.256 62.5865 427.845 61.495 428.603 60.4875C431.211 57.129 434.829 55.2818 438.952 56.4573C443.412 57.6327 444.169 61.6629 443.833 65.6092C442.907 78.6233 438.448 90.7139 432.053 101.797C427.004 110.529 426.078 119.177 427.677 128.665C427.715 128.921 427.746 129.184 427.777 129.449C427.949 130.927 428.127 132.461 429.697 133.031C431.442 133.712 432.708 132.414 433.804 131.29L433.805 131.288C433.924 131.167 434.041 131.047 434.156 130.932C443.076 122.032 450.396 112.376 451.069 99.1101C451.322 95.4997 453.005 92.1412 454.856 88.9507C458.474 82.8214 465.879 81.3941 471.432 85.8441C474.714 88.4469 475.219 92.0573 472.61 95.4158C470.002 98.7743 466.468 100.873 462.597 102.301C460.073 103.224 459.568 104.568 459.568 106.919C459.736 114.895 461.84 122.536 464.448 130.008C466.131 134.626 469.834 134.962 472.61 130.848C476.794 124.696 480.657 118.353 484.535 111.986ZM394.608 140C392.925 136.053 393.851 133.535 398.647 128.413C397.974 132.947 396.543 136.389 394.608 140ZM373.017 155.953C372.932 151.477 372.841 146.595 371.889 138.74L370.038 127.237C369.449 128.917 369.196 129.672 368.944 130.512C368.207 133.697 366.844 136.569 365.474 139.454L365.474 139.454L365.474 139.454L365.474 139.454L365.474 139.454L365.474 139.454L365.474 139.455C364.966 140.524 364.457 141.596 363.979 142.686C362.044 146.969 358.342 148.648 354.05 148.06C350.179 147.472 348.328 144.366 347.403 140.671C346.023 135.456 345.834 130.116 345.646 124.813C345.616 123.968 345.586 123.125 345.552 122.284C345.48 120.992 345.454 119.7 345.428 118.415C345.394 116.693 345.359 114.983 345.215 113.3C345.183 113 345.175 112.674 345.167 112.34C345.132 110.893 345.094 109.29 343.111 109.018C341.092 108.766 339.998 110.529 339.157 112.04C335.665 118.361 334.21 125.307 332.752 132.275L332.752 132.275L332.752 132.275L332.752 132.275L332.752 132.275L332.752 132.275L332.752 132.275L332.593 133.031C332.319 134.449 332.059 135.874 331.799 137.303L331.799 137.303C331.182 140.695 330.561 144.105 329.732 147.472C329.663 147.762 329.612 148.08 329.56 148.405C329.294 150.056 328.997 151.91 326.114 151.419C323.421 150.915 321.823 149.823 321.402 146.801C320.14 137.733 318.541 128.665 316.942 119.597L316.942 119.597C316.877 119.165 316.868 118.661 316.859 118.147C316.831 116.665 316.803 115.104 315.428 114.979C313.119 114.814 312.426 117.47 311.925 119.394L311.894 119.513C309.636 128.007 308.516 136.649 307.396 145.287C307.055 147.92 306.713 150.553 306.34 153.182C306.274 153.665 306.294 154.252 306.315 154.852V154.852V154.852V154.852V154.853V154.853V154.853C306.374 156.546 306.437 158.343 304.573 158.22C304.245 158.202 303.901 158.192 303.547 158.182H303.547C300.455 158.09 296.637 157.978 296.411 152.93C296.356 151.355 296.126 149.78 295.879 148.091C295.744 147.169 295.604 146.214 295.485 145.205C294.274 146.469 293.639 147.805 293.015 149.119C292.685 149.812 292.358 150.499 291.951 151.167C287.996 157.632 280.339 158.22 276.553 151.67C270.494 141.343 269.316 129.756 269.569 118.002C269.653 114.727 271.925 113.887 274.533 114.055L274.565 114.057C277.333 114.225 280.34 114.406 280.592 118.421C281.181 126.566 282.359 134.626 284.378 142.519C284.477 142.892 284.538 143.301 284.601 143.717C284.805 145.077 285.019 146.499 286.566 146.885C288.146 147.345 288.954 145.799 289.674 144.422C289.874 144.039 290.067 143.669 290.268 143.358C295.233 135.466 295.149 127.237 294.391 118.589C294.139 115.986 293.887 113.3 294.055 110.697C294.093 110.244 294.058 109.741 294.023 109.228C293.902 107.456 293.773 105.565 296.579 105.239C300.029 104.903 302.553 106.499 303.563 109.689C304.825 113.636 305.33 117.75 304.489 122.452C306.577 121.44 306.931 119.794 307.26 118.264C307.395 117.636 307.526 117.028 307.77 116.49C307.993 116.006 308.207 115.514 308.421 115.023C309.985 111.429 311.531 107.876 316.269 107.506C320.308 107.254 323.842 111.62 325.273 117.75C325.927 120.725 326.644 123.637 327.533 127.245L327.533 127.245L327.534 127.248L327.534 127.25C327.674 127.815 327.817 128.398 327.965 129.001C328.688 126.769 329.213 124.664 329.715 122.656L329.715 122.656L329.715 122.656L329.715 122.656C330.439 119.754 331.113 117.056 332.257 114.475C333.94 110.697 335.959 107.17 338.988 104.484C345.215 98.9421 353.377 101.545 355.144 109.773C356.406 115.651 357.248 121.612 356.995 127.657C356.871 130.333 357.162 133.055 357.458 135.823L357.458 135.823L357.458 135.824L357.458 135.824L357.458 135.824L357.458 135.825L357.458 135.825C357.561 136.791 357.665 137.763 357.753 138.74C359.865 138.543 360.424 137.208 360.932 135.993C361.072 135.66 361.208 135.335 361.371 135.046C366.504 125.558 369.533 115.735 367.261 104.819C367.208 104.53 367.123 104.207 367.032 103.863C366.542 102.009 365.9 99.5796 369.449 98.9421C372.983 98.3544 376.264 98.0186 378.116 101.881C378.552 102.8 379.016 103.691 379.524 104.666C379.898 105.384 380.296 106.148 380.724 107.003C384.763 101.377 389.812 98.0186 396.964 98.9421C402.349 99.6138 406.052 102.301 407.903 107.506C410.764 115.819 412.363 124.215 409.754 132.779C408.24 137.733 406.472 142.603 400.077 143.946C393.346 145.373 388.465 141.091 390.064 134.374C390.99 130.512 393.262 127.405 396.459 124.97C398.058 123.795 399.741 122.536 399.32 120.353C399.239 119.885 399.159 119.418 399.079 118.951C398.411 115.054 397.746 111.171 396.543 107.422C395.029 102.72 392.084 102.469 388.97 106.499C384.174 112.712 382.996 121.864 383.333 129.504C383.796 138.756 383.753 143.585 383.711 148.315V148.316C383.669 153.03 383.628 157.647 384.09 166.448C384.847 180.386 379.546 179.798 379.546 179.798C377.358 179.882 375.423 178.454 375.171 176.943C373.222 166.888 373.126 161.763 373.017 155.953ZM248.364 201.04C255.685 199.865 262.08 196.59 264.352 188.698C266.539 181.057 267.802 173.417 264.772 165.44C261.639 157.129 256.565 150.108 251.452 143.033L251.141 142.602C244.662 133.786 239.108 124.467 235.574 114.055C234.228 110.025 233.386 105.911 237.173 102.469C241.128 98.9421 245.756 97.5987 250.973 98.6902C253.665 99.278 254.927 101.041 254.927 103.812C254.927 107.002 255.096 110.193 255.348 113.384C255.432 114.643 256.442 115.483 257.62 115.902C258.798 116.238 259.387 115.315 259.892 114.475C264.604 106.667 257.873 92.9808 248.617 92.3931C239.613 91.8053 231.451 94.3242 226.15 102.133C221.269 109.269 221.101 117.162 224.972 124.802C228.254 131.352 231.703 137.733 235.911 143.778C236.349 144.402 236.79 145.026 237.23 145.649L237.23 145.65L237.231 145.65L237.231 145.65L237.231 145.65L237.233 145.653C241.948 152.328 246.681 159.029 249.374 166.784C249.523 167.199 249.673 167.615 249.824 168.03C252.561 175.593 255.307 183.178 249.963 191.217C247.186 195.415 244.325 196.506 240.202 193.568C232.629 188.194 229.263 180.721 230.105 169.806C230.075 169.42 230.056 168.812 230.032 168.064C229.989 166.702 229.931 164.878 229.768 163.089C229.6 161.242 228.254 160.319 226.486 160.151C224.467 159.983 223.962 161.242 223.541 163.089C221.269 173.836 223.457 183.66 230.357 192.14C234.985 197.682 240.539 202.3 248.364 201.04ZM427.34 172.325C426.415 178.706 425.658 185.171 426.836 191.888C428.098 191.637 428.434 190.881 428.603 190.125C429.138 188.048 429.747 185.992 430.355 183.939L430.355 183.938L430.355 183.937C431.468 180.18 432.578 176.431 433.231 172.577C433.572 170.874 433.193 169.391 432.813 167.906C432.725 167.561 432.637 167.216 432.557 166.868C432.389 166.112 431.884 165.356 430.959 165.188C429.745 164.946 429.465 165.791 429.146 166.751L429.107 166.868C428.905 167.502 428.663 168.126 428.423 168.747L428.423 168.747L428.423 168.747L428.423 168.748L428.422 168.748C427.962 169.936 427.506 171.112 427.34 172.325ZM464.878 211.738C467.112 207.632 469.346 203.524 472.947 200.285H472.947C473.452 200.285 473.873 200.285 474.125 200.201C471.432 208.597 467.646 216.405 462.513 223.626C460.662 226.313 458.053 228.076 454.519 227.488C450.985 226.901 449.723 224.046 448.882 221.191C446.441 213.047 447.03 204.651 447.703 196.338C447.72 196.162 447.748 195.983 447.777 195.796L447.777 195.796C447.902 195.005 448.048 194.086 447.367 192.728C446.936 193.349 446.503 193.966 446.073 194.58L446.073 194.581L446.072 194.581L446.072 194.582C440.625 202.357 435.462 209.726 436.007 219.764C436.045 220.502 436.19 221.284 436.338 222.08C436.845 224.813 437.385 227.721 433.735 229.671C429.949 231.771 427.509 230.847 426.583 226.733C426.457 226.145 426.289 225.578 426.12 225.012C425.952 224.445 425.784 223.878 425.658 223.29C425.501 222.615 425.41 221.972 425.303 221.222C425.237 220.76 425.165 220.256 425.069 219.68C423.731 221.756 422.558 223.848 421.404 225.906L421.403 225.906L421.403 225.906L421.403 225.907C419.943 228.51 418.514 231.059 416.822 233.45C410.511 242.35 401.929 238.32 398.815 231.687C397.637 229.252 396.628 226.817 396.543 224.13C396.88 222.535 396.543 221.107 396.123 219.512L395.702 219.764L395.618 219.596C395.702 219.092 395.029 219.68 395.618 219.764C395.029 220.1 394.692 220.688 394.692 221.443C394.284 222.141 393.906 222.869 393.528 223.6L393.527 223.6L393.527 223.6L393.527 223.6L393.527 223.6C392.812 224.979 392.093 226.365 391.158 227.572C386.53 233.618 380.303 233.366 376.096 227.069C375.447 226.067 374.839 225.024 374.156 223.853L374.156 223.853L374.156 223.853L374.155 223.851C373.865 223.354 373.561 222.833 373.235 222.283C372.81 223.211 372.418 224.107 372.038 224.973L372.038 224.974C371.217 226.85 370.454 228.594 369.533 230.259C365.662 237.228 358.005 237.648 353.125 231.267C350.516 227.824 349.338 223.794 348.749 219.68C347.739 211.704 347.908 203.643 349.591 195.667C350.095 193.064 351.105 191.133 353.545 191.049C355.986 190.965 358.51 191.721 359.772 194.491C360.613 196.338 360.698 198.186 360.698 200.117V224.298C360.698 224.509 360.693 224.73 360.689 224.958L360.689 224.96C360.654 226.73 360.611 228.88 362.549 229.252C364.319 229.675 365.255 227.901 366.058 226.377C366.21 226.089 366.357 225.81 366.504 225.557C371.216 216.993 372.31 207.589 373.404 198.102C373.467 197.565 373.48 196.975 373.493 196.372C373.549 193.763 373.611 190.897 377.779 190.965C381.818 191.049 384.174 194.071 384.342 198.857C384.438 201.685 384.365 204.512 384.292 207.34C384.171 211.985 384.051 216.63 384.679 221.275C384.722 221.557 384.721 221.866 384.72 222.179C384.716 223.079 384.711 224.008 385.773 224.382C387.093 224.769 387.84 223.726 388.477 222.837C388.53 222.763 388.582 222.69 388.634 222.619L388.938 222.163C392.204 217.281 395.449 212.43 395.449 206.078C395.449 202.426 395.65 198.733 395.857 194.918C395.95 193.207 396.045 191.473 396.123 189.705C392.168 191.553 388.886 191.217 386.362 187.942C386.488 187.69 386.551 187.501 386.593 187.375C386.635 187.25 386.656 187.187 386.698 187.187C392.097 185.882 394.79 185.231 396.313 183.532C397.828 181.841 398.186 179.113 398.899 173.669V173.669C399.152 171.905 399.404 170.142 399.741 168.379C400.246 166.28 401.003 164.517 403.864 164.769C406.472 165.021 408.24 166.196 408.576 168.715C408.844 170.693 408.941 172.671 409.042 174.714C409.099 175.88 409.158 177.066 409.249 178.287L409.879 178.061L409.88 178.061L409.881 178.061L409.881 178.06C412.901 176.98 415.577 176.022 418.253 174.844C418.457 174.771 418.66 174.686 418.862 174.602C419.826 174.199 420.74 173.817 421.366 174.928C422.292 176.607 420.777 177.447 419.515 177.783C417.431 178.263 415.687 179.419 413.959 180.565C412.965 181.224 411.977 181.88 410.932 182.401C408.408 183.66 407.398 185.423 407.314 187.942C407.274 188.846 407.233 189.749 407.192 190.651C406.627 203.087 406.066 215.45 408.576 227.74C408.649 228.068 408.694 228.422 408.74 228.782C408.906 230.082 409.079 231.442 410.596 231.771C411.982 231.989 412.862 230.818 413.675 229.737C413.8 229.571 413.923 229.408 414.046 229.252C416.947 225.633 418.979 221.538 421.017 217.433L421.018 217.432C421.817 215.823 422.617 214.212 423.47 212.627C424.126 211.437 423.852 210.331 423.577 209.22C423.464 208.764 423.35 208.306 423.301 207.841C421.45 192.812 420.945 177.867 426.499 163.341C427.593 160.571 428.939 157.968 431.632 156.204C436.849 152.762 441.897 154.861 443.496 160.99C444.825 166.129 443.448 171.023 442.117 175.752L442.066 175.936C440.046 183.24 437.522 190.377 434.998 197.514C434.156 199.697 434.072 201.712 434.661 204.483C435.874 202.754 436.802 200.953 437.702 199.205C438.988 196.708 440.22 194.318 442.15 192.392C444.674 189.789 447.283 187.606 451.153 188.95C455.024 190.293 456.623 193.4 456.707 197.262C456.749 200.327 456.728 203.391 456.707 206.456C456.686 209.521 456.665 212.585 456.707 215.65C456.725 216.05 456.708 216.494 456.69 216.949V216.949C456.626 218.592 456.556 220.377 458.137 220.771C459.672 221.154 460.478 219.597 461.22 218.165C461.454 217.712 461.682 217.272 461.924 216.909C462.979 215.23 463.928 213.484 464.878 211.738ZM310.631 176.02C312.92 175.471 315.059 175.395 317.225 175.318C319.041 175.254 320.875 175.189 322.832 174.844C323.312 174.761 323.766 174.719 324.175 174.681C325.416 174.566 326.241 174.49 326.114 173.417C325.916 171.902 324.217 171.885 322.439 171.868C321.949 171.863 321.453 171.858 320.981 171.821C308.696 170.814 297.084 170.73 286.061 173.753C283.944 174.324 282.255 174.545 280.411 174.787L280.411 174.787C279.544 174.901 278.643 175.019 277.647 175.18C276.048 175.432 273.944 176.355 273.608 178.035C273.335 179.532 274.278 179.815 275.496 180.182L275.496 180.182L275.496 180.182C275.781 180.268 276.081 180.358 276.384 180.47C278.482 181.307 280.579 181.079 282.706 180.849C283.566 180.755 284.432 180.662 285.304 180.637C293.466 180.302 294.307 181.729 294.391 189.621C294.56 202.384 295.485 215.146 297.673 227.74C298.106 230.174 298.459 232.626 298.812 235.078C299.761 241.679 300.711 248.28 303.227 254.524C304.236 257.127 305.751 260.318 309.285 259.394C312.483 258.554 312.735 255.616 312.735 252.425C312.677 241.006 311.576 229.626 310.402 217.485L310.402 217.485L310.402 217.485L310.401 217.484C309.875 212.04 309.333 206.443 308.864 200.62C308.529 198.881 308.541 196.276 308.555 193.357C308.575 188.948 308.598 183.822 307.434 179.882C306.677 177.279 309.117 176.355 310.631 176.02ZM334.949 197.682C337.894 193.568 342.522 193.316 345.383 196.926C346.225 198.102 346.645 199.193 345.72 200.117C344.71 201.124 343.364 201.292 342.354 200.285C338.847 196.785 337.494 199.57 336.158 202.32L336.127 202.384C331.584 211.452 331.499 221.191 331.583 231.015C331.583 231.312 331.589 231.613 331.595 231.915C331.647 234.685 331.701 237.521 327.376 237.9C324.263 238.152 322.748 237.144 322.159 234.205L322.159 234.204L322.159 234.203C320.728 226.899 319.298 219.595 317.7 212.291C317.026 209.185 316.269 206.078 315.091 203.139C313.745 199.781 315.175 198.857 318.204 198.773C321.991 198.689 326.03 201.544 327.292 205.406C327.718 206.751 328.084 208.096 328.49 209.592L328.491 209.593L328.586 209.943L328.723 210.444C330.237 205.658 332.257 201.46 334.949 197.682ZM270.158 94.3243C295.822 94.5762 292.709 68.0441 292.709 68.0441C292.709 68.0441 265.95 69.1356 270.158 94.3243ZM271.672 99.1941C271.672 99.1941 271.252 100.705 272.177 100.705C287.655 100.305 294.496 87.6265 295.177 86.3645C295.188 86.3445 295.197 86.3273 295.205 86.3131C295.214 86.2967 295.223 86.2803 295.233 86.2639C295.23 86.2666 295.221 86.2833 295.205 86.3131C286.283 101.791 271.672 99.1941 271.672 99.1941Z" fill="white"/>
</g>
<defs>
<filter id="filter0_d" x="64.8867" y="424.134" width="587.074" height="17.0811" filterUnits="userSpaceOnUse" color-interpolation-filters="sRGB">
<feFlood flood-opacity="0" result="BackgroundImageFix"/>
<feColorMatrix in="SourceAlpha" type="matrix" values="0 0 0 0 0 0 0 0 0 0 0 0 0 0 0 0 0 0 127 0"/>
<feOffset dy="0.5"/>
<feGaussianBlur stdDeviation="0.25"/>
<feColorMatrix type="matrix" values="0 0 0 0 0 0 0 0 0 0 0 0 0 0 0 0 0 0 0.2 0"/>
<feBlend mode="normal" in2="BackgroundImageFix" result="effect1_dropShadow"/>
<feBlend mode="normal" in="SourceGraphic" in2="effect1_dropShadow" result="shape"/>
</filter>
<clipPath id="clip0">
<rect width="401" height="317.07" fill="white" transform="translate(157)"/>
</clipPath>
</defs>
</svg>
