<svg width="825" height="220" viewBox="0 0 825 220" fill="none" xmlns="http://www.w3.org/2000/svg">
<g filter="url(#filter0_d)">
<path d="M122.688 70.9932C122.688 68.7373 121.882 66.9795 120.271 65.7197C118.688 64.46 115.891 63.1562 111.877 61.8086C107.863 60.4609 104.582 59.1572 102.033 57.8975C93.7422 53.8252 89.5967 48.2295 89.5967 41.1104C89.5967 37.5654 90.6221 34.4453 92.6729 31.75C94.7529 29.0254 97.6826 26.916 101.462 25.4219C105.241 23.8984 109.489 23.1367 114.206 23.1367C118.806 23.1367 122.922 23.957 126.555 25.5977C130.217 27.2383 133.059 29.582 135.08 32.6289C137.102 35.6465 138.112 39.1035 138.112 43H122.731C122.731 40.3926 121.926 38.3711 120.314 36.9355C118.732 35.5 116.579 34.7822 113.854 34.7822C111.101 34.7822 108.918 35.3975 107.307 36.6279C105.725 37.8291 104.934 39.3672 104.934 41.2422C104.934 42.8828 105.812 44.377 107.57 45.7246C109.328 47.043 112.419 48.4199 116.843 49.8555C121.267 51.2617 124.899 52.7852 127.741 54.4258C134.655 58.4102 138.112 63.9033 138.112 70.9053C138.112 76.501 136.003 80.8955 131.784 84.0889C127.565 87.2822 121.779 88.8789 114.426 88.8789C109.24 88.8789 104.538 87.9561 100.319 86.1104C96.1299 84.2354 92.9658 81.6865 90.8271 78.4639C88.7178 75.2119 87.6631 71.4766 87.6631 67.2578H103.132C103.132 70.6855 104.011 73.2197 105.769 74.8604C107.556 76.4717 110.441 77.2773 114.426 77.2773C116.975 77.2773 118.981 76.7354 120.446 75.6514C121.94 74.5381 122.688 72.9854 122.688 70.9932ZM196.252 35.9248H177.048V88H161.623V35.9248H142.771V24.0156H196.252V35.9248ZM233.869 76.0469H212.731L209.04 88H192.561L216.027 24.0156H230.529L254.172 88H237.604L233.869 76.0469ZM216.423 64.1377H230.178L223.278 41.9453L216.423 64.1377ZM312.312 88H296.975L274.299 48.1855V88H258.874V24.0156H274.299L296.931 63.8301V24.0156H312.312V88ZM322.067 88V24.0156H342.678C348.332 24.0156 353.415 25.3047 357.927 27.8828C362.438 30.4316 365.954 34.0498 368.474 38.7373C371.022 43.3955 372.312 48.625 372.341 54.4258V57.3701C372.341 63.2295 371.096 68.4883 368.605 73.1465C366.145 77.7754 362.658 81.4082 358.146 84.0449C353.664 86.6523 348.654 87.9707 343.117 88H322.067ZM337.492 35.9248V76.1348H342.854C347.277 76.1348 350.676 74.5674 353.049 71.4326C355.422 68.2686 356.608 63.5811 356.608 57.3701V54.6016C356.608 48.4199 355.422 43.7617 353.049 40.627C350.676 37.4922 347.219 35.9248 342.678 35.9248H337.492ZM450.256 35.9248H431.052V88H415.627V35.9248H396.774V24.0156H450.256V35.9248ZM509.758 57.3262C509.758 63.5664 508.601 69.0889 506.286 73.8936C503.972 78.6982 500.676 82.4043 496.398 85.0117C492.15 87.5898 487.302 88.8789 481.853 88.8789C476.403 88.8789 471.569 87.6338 467.351 85.1436C463.132 82.624 459.836 79.0352 457.463 74.377C455.119 69.7188 453.889 64.3721 453.771 58.3369V54.7334C453.771 48.4639 454.914 42.9414 457.199 38.166C459.514 33.3613 462.81 29.6553 467.087 27.0479C471.394 24.4404 476.286 23.1367 481.765 23.1367C487.185 23.1367 492.019 24.4258 496.267 27.0039C500.515 29.582 503.811 33.2588 506.154 38.0342C508.527 42.7803 509.729 48.2295 509.758 54.3818V57.3262ZM494.069 54.6455C494.069 48.2881 493 43.4688 490.861 40.1875C488.752 36.877 485.72 35.2217 481.765 35.2217C474.03 35.2217 469.943 41.0225 469.504 52.624L469.46 57.3262C469.46 63.5957 470.5 68.415 472.58 71.7842C474.66 75.1533 477.751 76.8379 481.853 76.8379C485.749 76.8379 488.752 75.1826 490.861 71.8721C492.971 68.5615 494.04 63.8008 494.069 57.5898V54.6455ZM589.694 64.1377L597.033 24.0156H612.326L598.747 88H582.751L574.182 51.5254L565.788 88H549.836L536.213 24.0156H551.55L558.889 64.1377L567.678 24.0156H580.773L589.694 64.1377ZM634.782 88H619.401V24.0156H634.782V88ZM698.942 88H683.605L660.93 48.1855V88H645.505V24.0156H660.93L683.562 63.8301V24.0156H698.942V88ZM722.717 67.7412H710.72L708.83 24.0156H724.606L722.717 67.7412ZM708.391 81.3643C708.391 79.1963 709.167 77.4238 710.72 76.0469C712.302 74.6406 714.265 73.9375 716.608 73.9375C718.952 73.9375 720.9 74.6406 722.453 76.0469C724.035 77.4238 724.826 79.1963 724.826 81.3643C724.826 83.5322 724.035 85.3193 722.453 86.7256C720.9 88.1025 718.952 88.791 716.608 88.791C714.265 88.791 712.302 88.1025 710.72 86.7256C709.167 85.3193 708.391 83.5322 708.391 81.3643Z" fill="#333333"/>
</g>
<g filter="url(#filter1_d)">
<path d="M42.3164 134.215C42.3164 133.09 41.918 132.223 41.1211 131.614C40.3359 131.004 38.9121 130.389 36.8496 129.768C34.7871 129.147 33.1465 128.456 31.9277 127.694C29.5957 126.229 28.4297 124.319 28.4297 121.963C28.4297 119.901 29.2676 118.202 30.9434 116.866C32.6309 115.53 34.8164 114.862 37.5 114.862C39.2812 114.862 40.8691 115.19 42.2637 115.846C43.6582 116.502 44.7539 117.44 45.5508 118.659C46.3477 119.866 46.7461 121.208 46.7461 122.684H42.3164C42.3164 121.348 41.8945 120.305 41.0508 119.555C40.2188 118.793 39.0234 118.413 37.4648 118.413C36.0117 118.413 34.8809 118.723 34.0723 119.344C33.2754 119.965 32.877 120.833 32.877 121.946C32.877 122.883 33.3105 123.668 34.1777 124.301C35.0449 124.922 36.4746 125.532 38.4668 126.129C40.459 126.715 42.0586 127.389 43.2656 128.151C44.4727 128.901 45.3574 129.768 45.9199 130.752C46.4824 131.725 46.7637 132.868 46.7637 134.18C46.7637 136.313 45.9434 138.012 44.3027 139.278C42.6738 140.532 40.459 141.159 37.6582 141.159C35.8066 141.159 34.1016 140.819 32.543 140.139C30.9961 139.448 29.7891 138.499 28.9219 137.292C28.0664 136.084 27.6387 134.678 27.6387 133.073H32.0859C32.0859 134.526 32.5664 135.651 33.5273 136.448C34.4883 137.245 35.8652 137.643 37.6582 137.643C39.2051 137.643 40.3652 137.333 41.1387 136.711C41.9238 136.079 42.3164 135.247 42.3164 134.215ZM54.4629 123.862C55.8574 122.245 57.6211 121.436 59.7539 121.436C63.8086 121.436 65.8652 123.75 65.9238 128.379V140.807H61.6523V128.538C61.6523 127.225 61.3652 126.299 60.791 125.76C60.2285 125.209 59.3965 124.934 58.2949 124.934C56.584 124.934 55.3066 125.696 54.4629 127.219V140.807H50.1914V113.807H54.4629V123.862ZM81.6211 140.807C81.4336 140.444 81.2695 139.852 81.1289 139.032C79.7695 140.45 78.1055 141.159 76.1367 141.159C74.2266 141.159 72.668 140.614 71.4609 139.524C70.2539 138.434 69.6504 137.086 69.6504 135.481C69.6504 133.454 70.4004 131.901 71.9004 130.823C73.4121 129.733 75.5684 129.188 78.3691 129.188H80.9883V127.94C80.9883 126.956 80.7129 126.17 80.1621 125.584C79.6113 124.987 78.7734 124.688 77.6484 124.688C76.6758 124.688 75.8789 124.934 75.2578 125.426C74.6367 125.907 74.3262 126.522 74.3262 127.272H70.0547C70.0547 126.229 70.4004 125.256 71.0918 124.354C71.7832 123.44 72.7207 122.725 73.9043 122.209C75.0996 121.694 76.4297 121.436 77.8945 121.436C80.1211 121.436 81.8965 121.999 83.2207 123.124C84.5449 124.237 85.2246 125.807 85.2598 127.834V136.413C85.2598 138.124 85.5 139.489 85.9805 140.508V140.807H81.6211ZM76.9277 137.731C77.7715 137.731 78.5625 137.526 79.3008 137.116C80.0508 136.706 80.6133 136.155 80.9883 135.463V131.877H78.6855C77.1035 131.877 75.9141 132.153 75.1172 132.704C74.3203 133.254 73.9219 134.034 73.9219 135.042C73.9219 135.862 74.1914 136.518 74.7305 137.01C75.2812 137.491 76.0137 137.731 76.9277 137.731ZM99.6914 125.69C99.1289 125.596 98.5488 125.549 97.9512 125.549C95.9941 125.549 94.6758 126.299 93.9961 127.799V140.807H89.7246V121.788H93.8027L93.9082 123.915C94.9395 122.262 96.3691 121.436 98.1973 121.436C98.8066 121.436 99.3105 121.518 99.709 121.682L99.6914 125.69ZM110.414 141.159C107.707 141.159 105.51 140.309 103.822 138.61C102.146 136.899 101.309 134.625 101.309 131.79V131.262C101.309 129.364 101.672 127.67 102.398 126.182C103.137 124.682 104.168 123.516 105.492 122.684C106.816 121.852 108.293 121.436 109.922 121.436C112.512 121.436 114.51 122.262 115.916 123.915C117.334 125.567 118.043 127.905 118.043 130.928V132.651H105.615C105.744 134.221 106.266 135.463 107.18 136.377C108.105 137.292 109.266 137.749 110.66 137.749C112.617 137.749 114.211 136.958 115.441 135.375L117.744 137.573C116.982 138.709 115.963 139.594 114.686 140.227C113.42 140.848 111.996 141.159 110.414 141.159ZM109.904 124.864C108.732 124.864 107.783 125.274 107.057 126.094C106.342 126.915 105.885 128.057 105.686 129.522H113.824V129.206C113.73 127.776 113.35 126.698 112.682 125.971C112.014 125.233 111.088 124.864 109.904 124.864ZM141.703 140.807C141.516 140.444 141.352 139.852 141.211 139.032C139.852 140.45 138.188 141.159 136.219 141.159C134.309 141.159 132.75 140.614 131.543 139.524C130.336 138.434 129.732 137.086 129.732 135.481C129.732 133.454 130.482 131.901 131.982 130.823C133.494 129.733 135.65 129.188 138.451 129.188H141.07V127.94C141.07 126.956 140.795 126.17 140.244 125.584C139.693 124.987 138.855 124.688 137.73 124.688C136.758 124.688 135.961 124.934 135.34 125.426C134.719 125.907 134.408 126.522 134.408 127.272H130.137C130.137 126.229 130.482 125.256 131.174 124.354C131.865 123.44 132.803 122.725 133.986 122.209C135.182 121.694 136.512 121.436 137.977 121.436C140.203 121.436 141.979 121.999 143.303 123.124C144.627 124.237 145.307 125.807 145.342 127.834V136.413C145.342 138.124 145.582 139.489 146.062 140.508V140.807H141.703ZM137.01 137.731C137.854 137.731 138.645 137.526 139.383 137.116C140.133 136.706 140.695 136.155 141.07 135.463V131.877H138.768C137.186 131.877 135.996 132.153 135.199 132.704C134.402 133.254 134.004 134.034 134.004 135.042C134.004 135.862 134.273 136.518 134.812 137.01C135.363 137.491 136.096 137.731 137.01 137.731ZM175.436 131.491C175.436 134.432 174.768 136.782 173.432 138.54C172.096 140.286 170.303 141.159 168.053 141.159C165.967 141.159 164.297 140.473 163.043 139.102V148.12H158.771V121.788H162.709L162.885 123.721C164.139 122.198 165.844 121.436 168 121.436C170.32 121.436 172.137 122.303 173.449 124.038C174.773 125.76 175.436 128.157 175.436 131.227V131.491ZM171.182 131.122C171.182 129.223 170.801 127.717 170.039 126.604C169.289 125.491 168.211 124.934 166.805 124.934C165.059 124.934 163.805 125.655 163.043 127.096V135.534C163.816 137.01 165.082 137.749 166.84 137.749C168.199 137.749 169.26 137.204 170.021 136.114C170.795 135.012 171.182 133.348 171.182 131.122ZM183.275 123.862C184.67 122.245 186.434 121.436 188.566 121.436C192.621 121.436 194.678 123.75 194.736 128.379V140.807H190.465V128.538C190.465 127.225 190.178 126.299 189.604 125.76C189.041 125.209 188.209 124.934 187.107 124.934C185.396 124.934 184.119 125.696 183.275 127.219V140.807H179.004V113.807H183.275V123.862ZM198.27 131.122C198.27 129.258 198.639 127.583 199.377 126.094C200.115 124.594 201.152 123.446 202.488 122.649C203.824 121.84 205.359 121.436 207.094 121.436C209.66 121.436 211.74 122.262 213.334 123.915C214.939 125.567 215.807 127.758 215.936 130.489L215.953 131.491C215.953 133.366 215.59 135.042 214.863 136.518C214.148 137.995 213.117 139.137 211.77 139.946C210.434 140.754 208.887 141.159 207.129 141.159C204.445 141.159 202.295 140.268 200.678 138.487C199.072 136.694 198.27 134.309 198.27 131.333V131.122ZM202.541 131.491C202.541 133.448 202.945 134.983 203.754 136.096C204.562 137.198 205.688 137.749 207.129 137.749C208.57 137.749 209.689 137.186 210.486 136.061C211.295 134.936 211.699 133.29 211.699 131.122C211.699 129.2 211.283 127.676 210.451 126.551C209.631 125.426 208.512 124.864 207.094 124.864C205.699 124.864 204.592 125.42 203.771 126.534C202.951 127.635 202.541 129.288 202.541 131.491ZM224.918 117.165V121.788H228.275V124.952H224.918V135.569C224.918 136.295 225.059 136.823 225.34 137.151C225.633 137.467 226.148 137.625 226.887 137.625C227.379 137.625 227.877 137.567 228.381 137.45V140.754C227.408 141.024 226.471 141.159 225.568 141.159C222.287 141.159 220.646 139.348 220.646 135.727V124.952H217.518V121.788H220.646V117.165H224.918ZM230.227 131.122C230.227 129.258 230.596 127.583 231.334 126.094C232.072 124.594 233.109 123.446 234.445 122.649C235.781 121.84 237.316 121.436 239.051 121.436C241.617 121.436 243.697 122.262 245.291 123.915C246.896 125.567 247.764 127.758 247.893 130.489L247.91 131.491C247.91 133.366 247.547 135.042 246.82 136.518C246.105 137.995 245.074 139.137 243.727 139.946C242.391 140.754 240.844 141.159 239.086 141.159C236.402 141.159 234.252 140.268 232.635 138.487C231.029 136.694 230.227 134.309 230.227 131.333V131.122ZM234.498 131.491C234.498 133.448 234.902 134.983 235.711 136.096C236.52 137.198 237.645 137.749 239.086 137.749C240.527 137.749 241.646 137.186 242.443 136.061C243.252 134.936 243.656 133.29 243.656 131.122C243.656 129.2 243.24 127.676 242.408 126.551C241.588 125.426 240.469 124.864 239.051 124.864C237.656 124.864 236.549 125.42 235.729 126.534C234.908 127.635 234.498 129.288 234.498 131.491ZM272.01 138.944C270.756 140.42 268.975 141.159 266.666 141.159C264.604 141.159 263.039 140.555 261.973 139.348C260.918 138.141 260.391 136.395 260.391 134.11V121.788H264.662V134.057C264.662 136.471 265.664 137.678 267.668 137.678C269.742 137.678 271.143 136.934 271.869 135.446V121.788H276.141V140.807H272.115L272.01 138.944ZM291.152 135.639C291.152 134.877 290.836 134.297 290.203 133.899C289.582 133.5 288.545 133.149 287.092 132.844C285.639 132.54 284.426 132.153 283.453 131.684C281.32 130.653 280.254 129.159 280.254 127.202C280.254 125.561 280.945 124.19 282.328 123.088C283.711 121.987 285.469 121.436 287.602 121.436C289.875 121.436 291.709 121.999 293.104 123.124C294.51 124.249 295.213 125.708 295.213 127.5H290.941C290.941 126.68 290.637 126 290.027 125.461C289.418 124.911 288.609 124.635 287.602 124.635C286.664 124.635 285.896 124.852 285.299 125.286C284.713 125.719 284.42 126.299 284.42 127.026C284.42 127.682 284.695 128.192 285.246 128.555C285.797 128.918 286.91 129.288 288.586 129.663C290.262 130.026 291.574 130.465 292.523 130.981C293.484 131.485 294.193 132.094 294.65 132.809C295.119 133.524 295.354 134.391 295.354 135.411C295.354 137.122 294.645 138.51 293.227 139.577C291.809 140.631 289.951 141.159 287.654 141.159C286.096 141.159 284.707 140.877 283.488 140.315C282.27 139.752 281.32 138.979 280.641 137.995C279.961 137.01 279.621 135.95 279.621 134.813H283.77C283.828 135.821 284.209 136.6 284.912 137.151C285.615 137.69 286.547 137.959 287.707 137.959C288.832 137.959 289.688 137.749 290.273 137.327C290.859 136.893 291.152 136.331 291.152 135.639ZM303.633 140.807H299.361V121.788H303.633V140.807ZM299.098 116.848C299.098 116.192 299.303 115.647 299.713 115.213C300.135 114.78 300.732 114.563 301.506 114.563C302.279 114.563 302.877 114.78 303.299 115.213C303.721 115.647 303.932 116.192 303.932 116.848C303.932 117.493 303.721 118.032 303.299 118.465C302.877 118.887 302.279 119.098 301.506 119.098C300.732 119.098 300.135 118.887 299.713 118.465C299.303 118.032 299.098 117.493 299.098 116.848ZM312.264 121.788L312.387 123.985C313.793 122.286 315.639 121.436 317.924 121.436C321.885 121.436 323.9 123.704 323.971 128.239V140.807H319.699V128.485C319.699 127.278 319.436 126.387 318.908 125.813C318.393 125.227 317.543 124.934 316.359 124.934C314.637 124.934 313.354 125.713 312.51 127.272V140.807H308.238V121.788H312.264ZM327.592 131.157C327.592 128.204 328.283 125.848 329.666 124.09C331.061 122.321 332.906 121.436 335.203 121.436C337.371 121.436 339.076 122.192 340.318 123.704L340.512 121.788H344.361V140.227C344.361 142.723 343.582 144.692 342.023 146.133C340.477 147.575 338.385 148.295 335.748 148.295C334.354 148.295 332.988 148.002 331.652 147.417C330.328 146.842 329.32 146.086 328.629 145.149L330.65 142.583C331.963 144.141 333.58 144.92 335.502 144.92C336.92 144.92 338.039 144.534 338.859 143.76C339.68 142.999 340.09 141.874 340.09 140.385V139.102C338.859 140.473 337.219 141.159 335.168 141.159C332.941 141.159 331.119 140.274 329.701 138.504C328.295 136.735 327.592 134.286 327.592 131.157ZM331.846 131.526C331.846 133.436 332.232 134.942 333.006 136.043C333.791 137.133 334.875 137.678 336.258 137.678C337.98 137.678 339.258 136.94 340.09 135.463V127.096C339.281 125.655 338.016 124.934 336.293 124.934C334.887 124.934 333.791 125.491 333.006 126.604C332.232 127.717 331.846 129.358 331.846 131.526ZM366.299 133.6H363.469L362.291 140.807H358.793L359.971 133.6H356.068V130.383H360.498L361.271 125.743H357.387V122.526H361.799L363.012 115.213H366.492L365.297 122.526H368.127L369.34 115.213H372.838L371.625 122.526H375.686V125.743H371.098L370.324 130.383H374.35V133.6H369.797L368.619 140.807H365.121L366.299 133.6ZM363.996 130.383H366.826L367.6 125.743H364.77L363.996 130.383ZM399.1 132.141C399.018 133.922 398.537 135.499 397.658 136.87C396.779 138.229 395.543 139.284 393.949 140.034C392.367 140.784 390.557 141.159 388.518 141.159C385.154 141.159 382.506 140.063 380.572 137.872C378.639 135.68 377.672 132.586 377.672 128.59V127.325C377.672 124.817 378.105 122.625 378.973 120.75C379.852 118.864 381.111 117.411 382.752 116.391C384.393 115.36 386.291 114.844 388.447 114.844C391.553 114.844 394.049 115.665 395.936 117.305C397.822 118.934 398.895 121.184 399.152 124.055H393C392.953 122.497 392.561 121.377 391.822 120.698C391.084 120.018 389.959 119.678 388.447 119.678C386.912 119.678 385.787 120.252 385.072 121.401C384.357 122.549 383.982 124.383 383.947 126.903V128.713C383.947 131.444 384.287 133.395 384.967 134.567C385.658 135.739 386.842 136.325 388.518 136.325C389.936 136.325 391.02 135.991 391.77 135.323C392.52 134.655 392.918 133.594 392.965 132.141H399.1ZM407.537 123.827C408.803 122.233 410.42 121.436 412.389 121.436C414.486 121.436 416.068 122.057 417.135 123.299C418.201 124.542 418.746 126.375 418.77 128.801V140.807H412.828V128.942C412.828 127.934 412.623 127.196 412.213 126.727C411.803 126.247 411.105 126.006 410.121 126.006C408.902 126.006 408.041 126.393 407.537 127.167V140.807H401.613V113.807H407.537V123.827ZM431.268 141.159C428.35 141.159 425.988 140.292 424.184 138.557C422.379 136.811 421.477 134.543 421.477 131.754V131.262C421.477 129.317 421.834 127.6 422.549 126.112C423.275 124.624 424.33 123.475 425.713 122.667C427.096 121.846 428.736 121.436 430.635 121.436C433.307 121.436 435.416 122.268 436.963 123.932C438.51 125.584 439.283 127.893 439.283 130.858V133.161H427.506C427.717 134.227 428.18 135.065 428.895 135.674C429.609 136.284 430.535 136.588 431.672 136.588C433.547 136.588 435.012 135.932 436.066 134.62L438.773 137.819C438.035 138.838 436.986 139.653 435.627 140.262C434.279 140.86 432.826 141.159 431.268 141.159ZM430.6 126.006C428.865 126.006 427.834 127.155 427.506 129.452H433.482V128.995C433.506 128.045 433.266 127.313 432.762 126.797C432.258 126.27 431.537 126.006 430.6 126.006ZM449.725 136.588C450.557 136.588 451.201 136.366 451.658 135.92C452.115 135.463 452.338 134.831 452.326 134.022H457.881C457.881 136.108 457.131 137.819 455.631 139.155C454.143 140.491 452.221 141.159 449.865 141.159C447.1 141.159 444.92 140.292 443.326 138.557C441.732 136.823 440.936 134.42 440.936 131.35V131.104C440.936 129.182 441.287 127.489 441.99 126.024C442.705 124.547 443.73 123.417 445.066 122.631C446.402 121.834 447.984 121.436 449.812 121.436C452.285 121.436 454.248 122.122 455.701 123.493C457.154 124.864 457.881 126.721 457.881 129.065H452.326C452.326 128.081 452.086 127.325 451.605 126.797C451.125 126.27 450.48 126.006 449.672 126.006C448.137 126.006 447.24 126.985 446.982 128.942C446.9 129.563 446.859 130.418 446.859 131.508C446.859 133.418 447.088 134.743 447.545 135.481C448.002 136.219 448.729 136.588 449.725 136.588ZM468.023 133.723L466.354 135.393V140.807H460.43V113.79H466.354V128.133L466.951 127.342L471.416 121.788H478.518L471.855 129.61L478.957 140.807H472.172L468.023 133.723ZM488.924 141.159C486.006 141.159 483.645 140.292 481.84 138.557C480.035 136.811 479.133 134.543 479.133 131.754V131.262C479.133 129.317 479.49 127.6 480.205 126.112C480.932 124.624 481.986 123.475 483.369 122.667C484.752 121.846 486.393 121.436 488.291 121.436C490.963 121.436 493.072 122.268 494.619 123.932C496.166 125.584 496.939 127.893 496.939 130.858V133.161H485.162C485.373 134.227 485.836 135.065 486.551 135.674C487.266 136.284 488.191 136.588 489.328 136.588C491.203 136.588 492.668 135.932 493.723 134.62L496.43 137.819C495.691 138.838 494.643 139.653 493.283 140.262C491.936 140.86 490.482 141.159 488.924 141.159ZM488.256 126.006C486.521 126.006 485.49 127.155 485.162 129.452H491.139V128.995C491.162 128.045 490.922 127.313 490.418 126.797C489.914 126.27 489.193 126.006 488.256 126.006ZM510.844 127.149L508.893 127.008C507.029 127.008 505.834 127.594 505.307 128.766V140.807H499.383V121.788H504.938L505.131 124.231C506.127 122.368 507.516 121.436 509.297 121.436C509.93 121.436 510.48 121.506 510.949 121.647L510.844 127.149ZM522.938 135.463C522.938 134.959 522.674 134.555 522.146 134.25C521.619 133.946 520.617 133.629 519.141 133.301C517.664 132.973 516.445 132.545 515.484 132.018C514.523 131.479 513.791 130.829 513.287 130.067C512.783 129.305 512.531 128.432 512.531 127.448C512.531 125.702 513.252 124.266 514.693 123.141C516.135 122.004 518.021 121.436 520.354 121.436C522.861 121.436 524.877 122.004 526.4 123.141C527.924 124.278 528.686 125.772 528.686 127.624H522.744C522.744 126.1 521.941 125.338 520.336 125.338C519.715 125.338 519.193 125.514 518.771 125.866C518.35 126.206 518.139 126.633 518.139 127.149C518.139 127.676 518.396 128.104 518.912 128.432C519.428 128.76 520.248 129.03 521.373 129.241C522.51 129.452 523.506 129.704 524.361 129.997C527.221 130.981 528.65 132.745 528.65 135.288C528.65 137.022 527.877 138.434 526.33 139.524C524.795 140.614 522.803 141.159 520.354 141.159C518.725 141.159 517.271 140.866 515.994 140.28C514.717 139.694 513.721 138.897 513.006 137.889C512.291 136.881 511.934 135.821 511.934 134.708H517.471C517.494 135.586 517.787 136.231 518.35 136.641C518.912 137.04 519.633 137.239 520.512 137.239C521.32 137.239 521.924 137.075 522.322 136.747C522.732 136.418 522.938 135.991 522.938 135.463ZM544.91 134.004C544.91 133.102 544.588 132.399 543.943 131.895C543.311 131.391 542.191 130.87 540.586 130.331C538.98 129.792 537.668 129.27 536.648 128.766C533.332 127.137 531.674 124.899 531.674 122.051C531.674 120.633 532.084 119.385 532.904 118.307C533.736 117.217 534.908 116.374 536.42 115.776C537.932 115.167 539.631 114.862 541.518 114.862C543.357 114.862 545.004 115.19 546.457 115.846C547.922 116.502 549.059 117.44 549.867 118.659C550.676 119.866 551.08 121.249 551.08 122.807H544.928C544.928 121.764 544.605 120.956 543.961 120.381C543.328 119.807 542.467 119.52 541.377 119.52C540.275 119.52 539.402 119.766 538.758 120.258C538.125 120.739 537.809 121.354 537.809 122.104C537.809 122.76 538.16 123.358 538.863 123.897C539.566 124.424 540.803 124.975 542.572 125.549C544.342 126.112 545.795 126.721 546.932 127.377C549.697 128.971 551.08 131.168 551.08 133.969C551.08 136.208 550.236 137.965 548.549 139.243C546.861 140.52 544.547 141.159 541.605 141.159C539.531 141.159 537.65 140.79 535.963 140.051C534.287 139.301 533.021 138.282 532.166 136.993C531.322 135.692 530.9 134.198 530.9 132.51H537.088C537.088 133.881 537.439 134.895 538.143 135.551C538.857 136.196 540.012 136.518 541.605 136.518C542.625 136.518 543.428 136.301 544.014 135.868C544.611 135.422 544.91 134.801 544.91 134.004ZM560.221 140.807H554.279V121.788H560.221V140.807ZM553.928 116.883C553.928 116.04 554.232 115.348 554.842 114.809C555.451 114.27 556.242 114 557.215 114C558.188 114 558.979 114.27 559.588 114.809C560.197 115.348 560.502 116.04 560.502 116.883C560.502 117.727 560.197 118.418 559.588 118.958C558.979 119.497 558.188 119.766 557.215 119.766C556.242 119.766 555.451 119.497 554.842 118.958C554.232 118.418 553.928 117.727 553.928 116.883ZM569.484 121.788L569.678 124.02C571.025 122.297 572.836 121.436 575.109 121.436C577.512 121.436 579.135 122.391 579.979 124.301C581.268 122.391 583.131 121.436 585.568 121.436C589.424 121.436 591.404 123.768 591.51 128.432V140.807H585.568V128.801C585.568 127.829 585.404 127.12 585.076 126.674C584.748 126.229 584.15 126.006 583.283 126.006C582.111 126.006 581.238 126.528 580.664 127.571L580.682 127.817V140.807H574.74V128.836C574.74 127.84 574.582 127.12 574.266 126.674C573.949 126.229 573.346 126.006 572.455 126.006C571.318 126.006 570.451 126.528 569.854 127.571V140.807H563.93V121.788H569.484ZM612.551 131.438C612.551 134.391 611.883 136.752 610.547 138.522C609.223 140.28 607.43 141.159 605.168 141.159C603.422 141.159 601.986 140.52 600.861 139.243V148.12H594.938V121.788H600.475L600.65 123.545C601.787 122.139 603.281 121.436 605.133 121.436C607.477 121.436 609.299 122.303 610.6 124.038C611.9 125.76 612.551 128.133 612.551 131.157V131.438ZM606.627 131.069C606.627 127.694 605.643 126.006 603.674 126.006C602.268 126.006 601.33 126.51 600.861 127.518V135.006C601.377 136.061 602.326 136.588 603.709 136.588C605.596 136.588 606.568 134.959 606.627 131.702V131.069ZM621.428 140.807H615.486V113.807H621.428V140.807ZM634.295 141.159C631.377 141.159 629.016 140.292 627.211 138.557C625.406 136.811 624.504 134.543 624.504 131.754V131.262C624.504 129.317 624.861 127.6 625.576 126.112C626.303 124.624 627.357 123.475 628.74 122.667C630.123 121.846 631.764 121.436 633.662 121.436C636.334 121.436 638.443 122.268 639.99 123.932C641.537 125.584 642.311 127.893 642.311 130.858V133.161H630.533C630.744 134.227 631.207 135.065 631.922 135.674C632.637 136.284 633.562 136.588 634.699 136.588C636.574 136.588 638.039 135.932 639.094 134.62L641.801 137.819C641.062 138.838 640.014 139.653 638.654 140.262C637.307 140.86 635.854 141.159 634.295 141.159ZM633.627 126.006C631.893 126.006 630.861 127.155 630.533 129.452H636.51V128.995C636.533 128.045 636.293 127.313 635.789 126.797C635.285 126.27 634.564 126.006 633.627 126.006ZM665.074 119.977H657.393V140.807H651.223V119.977H643.682V115.213H665.074V119.977ZM677.766 127.149L675.814 127.008C673.951 127.008 672.756 127.594 672.229 128.766V140.807H666.305V121.788H671.859L672.053 124.231C673.049 122.368 674.438 121.436 676.219 121.436C676.852 121.436 677.402 121.506 677.871 121.647L677.766 127.149ZM691.23 138.75C689.977 140.356 688.283 141.159 686.15 141.159C684.064 141.159 682.482 140.555 681.404 139.348C680.338 138.129 679.805 136.383 679.805 134.11V121.788H685.729V134.145C685.729 135.774 686.52 136.588 688.102 136.588C689.461 136.588 690.428 136.102 691.002 135.129V121.788H696.961V140.807H691.406L691.23 138.75ZM707.121 117.059V121.788H710.25V125.901H707.121V134.602C707.121 135.317 707.25 135.815 707.508 136.096C707.766 136.377 708.275 136.518 709.037 136.518C709.623 136.518 710.115 136.483 710.514 136.413V140.649C709.447 140.989 708.334 141.159 707.174 141.159C705.135 141.159 703.629 140.678 702.656 139.717C701.684 138.756 701.197 137.297 701.197 135.34V125.901H698.771V121.788H701.197V117.059H707.121ZM718.389 123.827C719.654 122.233 721.271 121.436 723.24 121.436C725.338 121.436 726.92 122.057 727.986 123.299C729.053 124.542 729.598 126.375 729.621 128.801V140.807H723.68V128.942C723.68 127.934 723.475 127.196 723.064 126.727C722.654 126.247 721.957 126.006 720.973 126.006C719.754 126.006 718.893 126.393 718.389 127.167V140.807H712.465V113.807H718.389V123.827ZM753.773 140.807C753.586 140.444 753.422 139.852 753.281 139.032C751.922 140.45 750.258 141.159 748.289 141.159C746.379 141.159 744.82 140.614 743.613 139.524C742.406 138.434 741.803 137.086 741.803 135.481C741.803 133.454 742.553 131.901 744.053 130.823C745.564 129.733 747.721 129.188 750.521 129.188H753.141V127.94C753.141 126.956 752.865 126.17 752.314 125.584C751.764 124.987 750.926 124.688 749.801 124.688C748.828 124.688 748.031 124.934 747.41 125.426C746.789 125.907 746.479 126.522 746.479 127.272H742.207C742.207 126.229 742.553 125.256 743.244 124.354C743.936 123.44 744.873 122.725 746.057 122.209C747.252 121.694 748.582 121.436 750.047 121.436C752.273 121.436 754.049 121.999 755.373 123.124C756.697 124.237 757.377 125.807 757.412 127.834V136.413C757.412 138.124 757.652 139.489 758.133 140.508V140.807H753.773ZM749.08 137.731C749.924 137.731 750.715 137.526 751.453 137.116C752.203 136.706 752.766 136.155 753.141 135.463V131.877H750.838C749.256 131.877 748.066 132.153 747.27 132.704C746.473 133.254 746.074 134.034 746.074 135.042C746.074 135.862 746.344 136.518 746.883 137.01C747.434 137.491 748.166 137.731 749.08 137.731ZM765.85 121.788L765.973 123.985C767.379 122.286 769.225 121.436 771.51 121.436C775.471 121.436 777.486 123.704 777.557 128.239V140.807H773.285V128.485C773.285 127.278 773.021 126.387 772.494 125.813C771.979 125.227 771.129 124.934 769.945 124.934C768.223 124.934 766.939 125.713 766.096 127.272V140.807H761.824V121.788H765.85ZM781.125 131.157C781.125 128.227 781.805 125.877 783.164 124.108C784.523 122.327 786.346 121.436 788.631 121.436C790.646 121.436 792.275 122.139 793.518 123.545V113.807H797.789V140.807H793.922L793.711 138.838C792.434 140.385 790.729 141.159 788.596 141.159C786.369 141.159 784.564 140.262 783.182 138.469C781.811 136.676 781.125 134.239 781.125 131.157ZM785.396 131.526C785.396 133.459 785.766 134.971 786.504 136.061C787.254 137.139 788.314 137.678 789.686 137.678C791.432 137.678 792.709 136.899 793.518 135.34V127.219C792.732 125.696 791.467 124.934 789.721 124.934C788.338 124.934 787.271 125.485 786.521 126.586C785.771 127.676 785.396 129.323 785.396 131.526ZM47.9414 182.639C47.9414 181.877 47.625 181.297 46.9922 180.899C46.3711 180.5 45.334 180.149 43.8809 179.844C42.4277 179.54 41.2148 179.153 40.2422 178.684C38.1094 177.653 37.043 176.159 37.043 174.202C37.043 172.561 37.7344 171.19 39.1172 170.088C40.5 168.987 42.2578 168.436 44.3906 168.436C46.6641 168.436 48.498 168.999 49.8926 170.124C51.2988 171.249 52.002 172.708 52.002 174.5H47.7305C47.7305 173.68 47.4258 173 46.8164 172.461C46.207 171.911 45.3984 171.635 44.3906 171.635C43.4531 171.635 42.6855 171.852 42.0879 172.286C41.502 172.719 41.209 173.299 41.209 174.026C41.209 174.682 41.4844 175.192 42.0352 175.555C42.5859 175.918 43.6992 176.288 45.375 176.663C47.0508 177.026 48.3633 177.465 49.3125 177.981C50.2734 178.485 50.9824 179.094 51.4395 179.809C51.9082 180.524 52.1426 181.391 52.1426 182.411C52.1426 184.122 51.4336 185.51 50.0156 186.577C48.5977 187.631 46.7402 188.159 44.4434 188.159C42.8848 188.159 41.4961 187.877 40.2773 187.315C39.0586 186.752 38.1094 185.979 37.4297 184.995C36.75 184.01 36.4102 182.95 36.4102 181.813H40.5586C40.6172 182.821 40.998 183.6 41.7012 184.151C42.4043 184.69 43.3359 184.959 44.4961 184.959C45.6211 184.959 46.4766 184.749 47.0625 184.327C47.6484 183.893 47.9414 183.331 47.9414 182.639ZM61.2305 164.165V168.788H64.5879V171.952H61.2305V182.569C61.2305 183.295 61.3711 183.823 61.6523 184.151C61.9453 184.467 62.4609 184.625 63.1992 184.625C63.6914 184.625 64.1895 184.567 64.6934 184.45V187.754C63.7207 188.024 62.7832 188.159 61.8809 188.159C58.5996 188.159 56.959 186.348 56.959 182.727V171.952H53.8301V168.788H56.959V164.165H61.2305ZM79.2305 187.807C79.043 187.444 78.8789 186.852 78.7383 186.032C77.3789 187.45 75.7148 188.159 73.7461 188.159C71.8359 188.159 70.2773 187.614 69.0703 186.524C67.8633 185.434 67.2598 184.086 67.2598 182.481C67.2598 180.454 68.0098 178.901 69.5098 177.823C71.0215 176.733 73.1777 176.188 75.9785 176.188H78.5977V174.94C78.5977 173.956 78.3223 173.17 77.7715 172.584C77.2207 171.987 76.3828 171.688 75.2578 171.688C74.2852 171.688 73.4883 171.934 72.8672 172.426C72.2461 172.907 71.9355 173.522 71.9355 174.272H67.6641C67.6641 173.229 68.0098 172.256 68.7012 171.354C69.3926 170.44 70.3301 169.725 71.5137 169.209C72.709 168.694 74.0391 168.436 75.5039 168.436C77.7305 168.436 79.5059 168.999 80.8301 170.124C82.1543 171.237 82.834 172.807 82.8691 174.834V183.413C82.8691 185.124 83.1094 186.489 83.5898 187.508V187.807H79.2305ZM74.5371 184.731C75.3809 184.731 76.1719 184.526 76.9102 184.116C77.6602 183.706 78.2227 183.155 78.5977 182.463V178.877H76.2949C74.7129 178.877 73.5234 179.153 72.7266 179.704C71.9297 180.254 71.5312 181.034 71.5312 182.042C71.5312 182.862 71.8008 183.518 72.3398 184.01C72.8906 184.491 73.623 184.731 74.5371 184.731ZM91.3066 168.788L91.4297 170.985C92.8359 169.286 94.6816 168.436 96.9668 168.436C100.928 168.436 102.943 170.704 103.014 175.239V187.807H98.7422V175.485C98.7422 174.278 98.4785 173.387 97.9512 172.813C97.4355 172.227 96.5859 171.934 95.4023 171.934C93.6797 171.934 92.3965 172.713 91.5527 174.272V187.807H87.2812V168.788H91.3066ZM106.582 178.157C106.582 175.227 107.262 172.877 108.621 171.108C109.98 169.327 111.803 168.436 114.088 168.436C116.104 168.436 117.732 169.139 118.975 170.545V160.807H123.246V187.807H119.379L119.168 185.838C117.891 187.385 116.186 188.159 114.053 188.159C111.826 188.159 110.021 187.262 108.639 185.469C107.268 183.676 106.582 181.239 106.582 178.157ZM110.854 178.526C110.854 180.459 111.223 181.971 111.961 183.061C112.711 184.139 113.771 184.678 115.143 184.678C116.889 184.678 118.166 183.899 118.975 182.34V174.219C118.189 172.696 116.924 171.934 115.178 171.934C113.795 171.934 112.729 172.485 111.979 173.586C111.229 174.676 110.854 176.323 110.854 178.526ZM142.02 164.165V168.788H145.377V171.952H142.02V182.569C142.02 183.295 142.16 183.823 142.441 184.151C142.734 184.467 143.25 184.625 143.988 184.625C144.48 184.625 144.979 184.567 145.482 184.45V187.754C144.51 188.024 143.572 188.159 142.67 188.159C139.389 188.159 137.748 186.348 137.748 182.727V171.952H134.619V168.788H137.748V164.165H142.02ZM147.328 178.122C147.328 176.258 147.697 174.583 148.436 173.094C149.174 171.594 150.211 170.446 151.547 169.649C152.883 168.84 154.418 168.436 156.152 168.436C158.719 168.436 160.799 169.262 162.393 170.915C163.998 172.567 164.865 174.758 164.994 177.489L165.012 178.491C165.012 180.366 164.648 182.042 163.922 183.518C163.207 184.995 162.176 186.137 160.828 186.946C159.492 187.754 157.945 188.159 156.188 188.159C153.504 188.159 151.354 187.268 149.736 185.487C148.131 183.694 147.328 181.309 147.328 178.333V178.122ZM151.6 178.491C151.6 180.448 152.004 181.983 152.812 183.096C153.621 184.198 154.746 184.749 156.188 184.749C157.629 184.749 158.748 184.186 159.545 183.061C160.354 181.936 160.758 180.29 160.758 178.122C160.758 176.2 160.342 174.676 159.51 173.551C158.689 172.426 157.57 171.864 156.152 171.864C154.758 171.864 153.65 172.42 152.83 173.534C152.01 174.635 151.6 176.288 151.6 178.491ZM197.162 178.262L200.098 162.213H206.215L200.783 187.807H194.385L190.957 173.217L187.6 187.807H181.219L175.77 162.213H181.904L184.84 178.262L188.355 162.213H193.594L197.162 178.262ZM215.197 187.807H209.045V162.213H215.197V187.807ZM240.861 187.807H234.727L225.656 171.881V187.807H219.486V162.213H225.656L234.709 178.139V162.213H240.861V187.807ZM266.49 187.807H260.549V168.893L254.713 170.598V166.098L265.945 162.213H266.49V187.807ZM282.521 178.122C282.521 176.223 282.891 174.536 283.629 173.059C284.367 171.571 285.428 170.428 286.811 169.631C288.193 168.834 289.816 168.436 291.68 168.436C294.527 168.436 296.771 169.321 298.412 171.09C300.053 172.848 300.873 175.245 300.873 178.28V178.491C300.873 181.456 300.047 183.811 298.395 185.557C296.754 187.292 294.527 188.159 291.715 188.159C289.008 188.159 286.834 187.35 285.193 185.733C283.553 184.104 282.668 181.901 282.539 179.124L282.521 178.122ZM288.445 178.491C288.445 180.249 288.721 181.538 289.271 182.358C289.822 183.178 290.637 183.588 291.715 183.588C293.824 183.588 294.902 181.965 294.949 178.719V178.122C294.949 174.711 293.859 173.006 291.68 173.006C289.699 173.006 288.627 174.477 288.463 177.418L288.445 178.491ZM304.793 187.807V172.901H302.033V168.788H304.793V167.276C304.793 165.108 305.432 163.426 306.709 162.231C307.986 161.036 309.779 160.438 312.088 160.438C312.932 160.438 313.857 160.561 314.865 160.807L314.883 165.167C314.52 165.061 314.033 165.008 313.424 165.008C311.631 165.008 310.734 165.782 310.734 167.329V168.788H314.443V172.901H310.734V187.807H304.793ZM325.746 175.292L327.311 162.213H342.27V166.819H332.127L331.547 171.899C331.969 171.653 332.52 171.436 333.199 171.249C333.891 171.061 334.564 170.967 335.221 170.967C337.764 170.967 339.715 171.723 341.074 173.235C342.445 174.735 343.131 176.844 343.131 179.563C343.131 181.204 342.762 182.692 342.023 184.028C341.297 185.352 340.271 186.372 338.947 187.086C337.623 187.801 336.059 188.159 334.254 188.159C332.648 188.159 331.143 187.831 329.736 187.174C328.33 186.506 327.229 185.598 326.432 184.45C325.635 183.29 325.242 181.983 325.254 180.53H331.195C331.254 181.467 331.553 182.211 332.092 182.762C332.631 183.313 333.34 183.588 334.219 183.588C336.211 183.588 337.207 182.112 337.207 179.159C337.207 176.428 335.988 175.063 333.551 175.063C332.168 175.063 331.137 175.508 330.457 176.399L325.746 175.292ZM365.086 178.772H361.746V187.807H355.576V162.213H365.648C368.684 162.213 371.057 162.887 372.768 164.235C374.479 165.583 375.334 167.487 375.334 169.948C375.334 171.729 374.971 173.206 374.244 174.377C373.529 175.549 372.404 176.499 370.869 177.225L376.213 187.543V187.807H369.604L365.086 178.772ZM361.746 174.008H365.648C366.82 174.008 367.699 173.704 368.285 173.094C368.883 172.473 369.182 171.612 369.182 170.51C369.182 169.409 368.883 168.547 368.285 167.926C367.688 167.293 366.809 166.977 365.648 166.977H361.746V174.008ZM391.822 187.807H385.881V168.893L380.045 170.598V166.098L391.277 162.213H391.822V187.807ZM417.311 177.348C417.311 180.805 416.531 183.471 414.973 185.346C413.426 187.221 411.24 188.159 408.416 188.159C405.568 188.159 403.365 187.215 401.807 185.329C400.248 183.442 399.469 180.782 399.469 177.348V172.672C399.469 169.215 400.242 166.549 401.789 164.674C403.348 162.799 405.545 161.862 408.381 161.862C411.217 161.862 413.414 162.805 414.973 164.692C416.531 166.579 417.311 169.245 417.311 172.69V177.348ZM411.387 171.917C411.387 170.077 411.146 168.706 410.666 167.803C410.186 166.889 409.424 166.432 408.381 166.432C407.361 166.432 406.617 166.854 406.148 167.698C405.691 168.542 405.445 169.819 405.41 171.53V178.069C405.41 179.979 405.65 181.379 406.131 182.27C406.611 183.149 407.373 183.588 408.416 183.588C409.424 183.588 410.168 183.161 410.648 182.305C411.129 181.438 411.375 180.084 411.387 178.245V171.917ZM438.158 177.348C438.158 180.805 437.379 183.471 435.82 185.346C434.273 187.221 432.088 188.159 429.264 188.159C426.416 188.159 424.213 187.215 422.654 185.329C421.096 183.442 420.316 180.782 420.316 177.348V172.672C420.316 169.215 421.09 166.549 422.637 164.674C424.195 162.799 426.393 161.862 429.229 161.862C432.064 161.862 434.262 162.805 435.82 164.692C437.379 166.579 438.158 169.245 438.158 172.69V177.348ZM432.234 171.917C432.234 170.077 431.994 168.706 431.514 167.803C431.033 166.889 430.271 166.432 429.229 166.432C428.209 166.432 427.465 166.854 426.996 167.698C426.539 168.542 426.293 169.819 426.258 171.53V178.069C426.258 179.979 426.498 181.379 426.979 182.27C427.459 183.149 428.221 183.588 429.264 183.588C430.271 183.588 431.016 183.161 431.496 182.305C431.977 181.438 432.223 180.084 432.234 178.245V171.917ZM459.006 177.348C459.006 180.805 458.227 183.471 456.668 185.346C455.121 187.221 452.936 188.159 450.111 188.159C447.264 188.159 445.061 187.215 443.502 185.329C441.943 183.442 441.164 180.782 441.164 177.348V172.672C441.164 169.215 441.938 166.549 443.484 164.674C445.043 162.799 447.24 161.862 450.076 161.862C452.912 161.862 455.109 162.805 456.668 164.692C458.227 166.579 459.006 169.245 459.006 172.69V177.348ZM453.082 171.917C453.082 170.077 452.842 168.706 452.361 167.803C451.881 166.889 451.119 166.432 450.076 166.432C449.057 166.432 448.312 166.854 447.844 167.698C447.387 168.542 447.141 169.819 447.105 171.53V178.069C447.105 179.979 447.346 181.379 447.826 182.27C448.307 183.149 449.068 183.588 450.111 183.588C451.119 183.588 451.863 183.161 452.344 182.305C452.824 181.438 453.07 180.084 453.082 178.245V171.917ZM492.123 179.141C492.041 180.922 491.561 182.499 490.682 183.87C489.803 185.229 488.566 186.284 486.973 187.034C485.391 187.784 483.58 188.159 481.541 188.159C478.178 188.159 475.529 187.063 473.596 184.872C471.662 182.68 470.695 179.586 470.695 175.59V174.325C470.695 171.817 471.129 169.625 471.996 167.75C472.875 165.864 474.135 164.411 475.775 163.391C477.416 162.36 479.314 161.844 481.471 161.844C484.576 161.844 487.072 162.665 488.959 164.305C490.846 165.934 491.918 168.184 492.176 171.055H486.023C485.977 169.497 485.584 168.377 484.846 167.698C484.107 167.018 482.982 166.678 481.471 166.678C479.936 166.678 478.811 167.252 478.096 168.401C477.381 169.549 477.006 171.383 476.971 173.903V175.713C476.971 178.444 477.311 180.395 477.99 181.567C478.682 182.739 479.865 183.325 481.541 183.325C482.959 183.325 484.043 182.991 484.793 182.323C485.543 181.655 485.941 180.594 485.988 179.141H492.123ZM500.561 170.827C501.826 169.233 503.443 168.436 505.412 168.436C507.51 168.436 509.092 169.057 510.158 170.299C511.225 171.542 511.77 173.375 511.793 175.801V187.807H505.852V175.942C505.852 174.934 505.646 174.196 505.236 173.727C504.826 173.247 504.129 173.006 503.145 173.006C501.926 173.006 501.064 173.393 500.561 174.167V187.807H494.637V160.807H500.561V170.827ZM524.291 188.159C521.373 188.159 519.012 187.292 517.207 185.557C515.402 183.811 514.5 181.543 514.5 178.754V178.262C514.5 176.317 514.857 174.6 515.572 173.112C516.299 171.624 517.354 170.475 518.736 169.667C520.119 168.846 521.76 168.436 523.658 168.436C526.33 168.436 528.439 169.268 529.986 170.932C531.533 172.584 532.307 174.893 532.307 177.858V180.161H520.529C520.74 181.227 521.203 182.065 521.918 182.674C522.633 183.284 523.559 183.588 524.695 183.588C526.57 183.588 528.035 182.932 529.09 181.62L531.797 184.819C531.059 185.838 530.01 186.653 528.65 187.262C527.303 187.86 525.85 188.159 524.291 188.159ZM523.623 173.006C521.889 173.006 520.857 174.155 520.529 176.452H526.506V175.995C526.529 175.045 526.289 174.313 525.785 173.797C525.281 173.27 524.561 173.006 523.623 173.006ZM542.748 183.588C543.58 183.588 544.225 183.366 544.682 182.92C545.139 182.463 545.361 181.831 545.35 181.022H550.904C550.904 183.108 550.154 184.819 548.654 186.155C547.166 187.491 545.244 188.159 542.889 188.159C540.123 188.159 537.943 187.292 536.35 185.557C534.756 183.823 533.959 181.42 533.959 178.35V178.104C533.959 176.182 534.311 174.489 535.014 173.024C535.729 171.547 536.754 170.417 538.09 169.631C539.426 168.834 541.008 168.436 542.836 168.436C545.309 168.436 547.271 169.122 548.725 170.493C550.178 171.864 550.904 173.721 550.904 176.065H545.35C545.35 175.081 545.109 174.325 544.629 173.797C544.148 173.27 543.504 173.006 542.695 173.006C541.16 173.006 540.264 173.985 540.006 175.942C539.924 176.563 539.883 177.418 539.883 178.508C539.883 180.418 540.111 181.743 540.568 182.481C541.025 183.219 541.752 183.588 542.748 183.588ZM561.047 180.723L559.377 182.393V187.807H553.453V160.79H559.377V175.133L559.975 174.342L564.439 168.788H571.541L564.879 176.61L571.98 187.807H565.195L561.047 180.723ZM581.947 188.159C579.029 188.159 576.668 187.292 574.863 185.557C573.059 183.811 572.156 181.543 572.156 178.754V178.262C572.156 176.317 572.514 174.6 573.229 173.112C573.955 171.624 575.01 170.475 576.393 169.667C577.775 168.846 579.416 168.436 581.314 168.436C583.986 168.436 586.096 169.268 587.643 170.932C589.189 172.584 589.963 174.893 589.963 177.858V180.161H578.186C578.396 181.227 578.859 182.065 579.574 182.674C580.289 183.284 581.215 183.588 582.352 183.588C584.227 183.588 585.691 182.932 586.746 181.62L589.453 184.819C588.715 185.838 587.666 186.653 586.307 187.262C584.959 187.86 583.506 188.159 581.947 188.159ZM581.279 173.006C579.545 173.006 578.514 174.155 578.186 176.452H584.162V175.995C584.186 175.045 583.945 174.313 583.441 173.797C582.938 173.27 582.217 173.006 581.279 173.006ZM603.867 174.149L601.916 174.008C600.053 174.008 598.857 174.594 598.33 175.766V187.807H592.406V168.788H597.961L598.154 171.231C599.15 169.368 600.539 168.436 602.32 168.436C602.953 168.436 603.504 168.506 603.973 168.647L603.867 174.149ZM615.961 182.463C615.961 181.959 615.697 181.555 615.17 181.25C614.643 180.946 613.641 180.629 612.164 180.301C610.688 179.973 609.469 179.545 608.508 179.018C607.547 178.479 606.814 177.829 606.311 177.067C605.807 176.305 605.555 175.432 605.555 174.448C605.555 172.702 606.275 171.266 607.717 170.141C609.158 169.004 611.045 168.436 613.377 168.436C615.885 168.436 617.9 169.004 619.424 170.141C620.947 171.278 621.709 172.772 621.709 174.624H615.768C615.768 173.1 614.965 172.338 613.359 172.338C612.738 172.338 612.217 172.514 611.795 172.866C611.373 173.206 611.162 173.633 611.162 174.149C611.162 174.676 611.42 175.104 611.936 175.432C612.451 175.76 613.271 176.03 614.396 176.241C615.533 176.452 616.529 176.704 617.385 176.997C620.244 177.981 621.674 179.745 621.674 182.288C621.674 184.022 620.9 185.434 619.354 186.524C617.818 187.614 615.826 188.159 613.377 188.159C611.748 188.159 610.295 187.866 609.018 187.28C607.74 186.694 606.744 185.897 606.029 184.889C605.314 183.881 604.957 182.821 604.957 181.708H610.494C610.518 182.586 610.811 183.231 611.373 183.641C611.936 184.04 612.656 184.239 613.535 184.239C614.344 184.239 614.947 184.075 615.346 183.747C615.756 183.418 615.961 182.991 615.961 182.463ZM641.01 180.758L644.016 168.788H650.256L644.051 187.807H638.004L631.799 168.788H638.057L641.01 180.758ZM650.994 178.122C650.994 176.223 651.363 174.536 652.102 173.059C652.84 171.571 653.9 170.428 655.283 169.631C656.666 168.834 658.289 168.436 660.152 168.436C663 168.436 665.244 169.321 666.885 171.09C668.525 172.848 669.346 175.245 669.346 178.28V178.491C669.346 181.456 668.52 183.811 666.867 185.557C665.227 187.292 663 188.159 660.188 188.159C657.48 188.159 655.307 187.35 653.666 185.733C652.025 184.104 651.141 181.901 651.012 179.124L650.994 178.122ZM656.918 178.491C656.918 180.249 657.193 181.538 657.744 182.358C658.295 183.178 659.109 183.588 660.188 183.588C662.297 183.588 663.375 181.965 663.422 178.719V178.122C663.422 174.711 662.332 173.006 660.152 173.006C658.172 173.006 657.1 174.477 656.936 177.418L656.918 178.491ZM683.285 185.75C682.031 187.356 680.338 188.159 678.205 188.159C676.119 188.159 674.537 187.555 673.459 186.348C672.393 185.129 671.859 183.383 671.859 181.11V168.788H677.783V181.145C677.783 182.774 678.574 183.588 680.156 183.588C681.516 183.588 682.482 183.102 683.057 182.129V168.788H689.016V187.807H683.461L683.285 185.75ZM700.318 183.588C701.15 183.588 701.795 183.366 702.252 182.92C702.709 182.463 702.932 181.831 702.92 181.022H708.475C708.475 183.108 707.725 184.819 706.225 186.155C704.736 187.491 702.814 188.159 700.459 188.159C697.693 188.159 695.514 187.292 693.92 185.557C692.326 183.823 691.529 181.42 691.529 178.35V178.104C691.529 176.182 691.881 174.489 692.584 173.024C693.299 171.547 694.324 170.417 695.66 169.631C696.996 168.834 698.578 168.436 700.406 168.436C702.879 168.436 704.842 169.122 706.295 170.493C707.748 171.864 708.475 173.721 708.475 176.065H702.92C702.92 175.081 702.68 174.325 702.199 173.797C701.719 173.27 701.074 173.006 700.266 173.006C698.73 173.006 697.834 173.985 697.576 175.942C697.494 176.563 697.453 177.418 697.453 178.508C697.453 180.418 697.682 181.743 698.139 182.481C698.596 183.219 699.322 183.588 700.318 183.588ZM716.771 170.827C718.037 169.233 719.654 168.436 721.623 168.436C723.721 168.436 725.303 169.057 726.369 170.299C727.436 171.542 727.98 173.375 728.004 175.801V187.807H722.062V175.942C722.062 174.934 721.857 174.196 721.447 173.727C721.037 173.247 720.34 173.006 719.355 173.006C718.137 173.006 717.275 173.393 716.771 174.167V187.807H710.848V160.807H716.771V170.827ZM740.502 188.159C737.584 188.159 735.223 187.292 733.418 185.557C731.613 183.811 730.711 181.543 730.711 178.754V178.262C730.711 176.317 731.068 174.6 731.783 173.112C732.51 171.624 733.564 170.475 734.947 169.667C736.33 168.846 737.971 168.436 739.869 168.436C742.541 168.436 744.65 169.268 746.197 170.932C747.744 172.584 748.518 174.893 748.518 177.858V180.161H736.74C736.951 181.227 737.414 182.065 738.129 182.674C738.844 183.284 739.77 183.588 740.906 183.588C742.781 183.588 744.246 182.932 745.301 181.62L748.008 184.819C747.27 185.838 746.221 186.653 744.861 187.262C743.514 187.86 742.061 188.159 740.502 188.159ZM739.834 173.006C738.1 173.006 737.068 174.155 736.74 176.452H742.717V175.995C742.74 175.045 742.5 174.313 741.996 173.797C741.492 173.27 740.771 173.006 739.834 173.006ZM762.422 174.149L760.471 174.008C758.607 174.008 757.412 174.594 756.885 175.766V187.807H750.961V168.788H756.516L756.709 171.231C757.705 169.368 759.094 168.436 760.875 168.436C761.508 168.436 762.059 168.506 762.527 168.647L762.422 174.149ZM774.516 182.463C774.516 181.959 774.252 181.555 773.725 181.25C773.197 180.946 772.195 180.629 770.719 180.301C769.242 179.973 768.023 179.545 767.062 179.018C766.102 178.479 765.369 177.829 764.865 177.067C764.361 176.305 764.109 175.432 764.109 174.448C764.109 172.702 764.83 171.266 766.271 170.141C767.713 169.004 769.6 168.436 771.932 168.436C774.439 168.436 776.455 169.004 777.979 170.141C779.502 171.278 780.264 172.772 780.264 174.624H774.322C774.322 173.1 773.52 172.338 771.914 172.338C771.293 172.338 770.771 172.514 770.35 172.866C769.928 173.206 769.717 173.633 769.717 174.149C769.717 174.676 769.975 175.104 770.49 175.432C771.006 175.76 771.826 176.03 772.951 176.241C774.088 176.452 775.084 176.704 775.939 176.997C778.799 177.981 780.229 179.745 780.229 182.288C780.229 184.022 779.455 185.434 777.908 186.524C776.373 187.614 774.381 188.159 771.932 188.159C770.303 188.159 768.85 187.866 767.572 187.28C766.295 186.694 765.299 185.897 764.584 184.889C763.869 183.881 763.512 182.821 763.512 181.708H769.049C769.072 182.586 769.365 183.231 769.928 183.641C770.49 184.04 771.211 184.239 772.09 184.239C772.898 184.239 773.502 184.075 773.9 183.747C774.311 183.418 774.516 182.991 774.516 182.463ZM788.895 179.704H784.096L783.34 162.213H789.65L788.895 179.704ZM783.164 185.153C783.164 184.286 783.475 183.577 784.096 183.026C784.729 182.463 785.514 182.182 786.451 182.182C787.389 182.182 788.168 182.463 788.789 183.026C789.422 183.577 789.738 184.286 789.738 185.153C789.738 186.02 789.422 186.735 788.789 187.297C788.168 187.848 787.389 188.124 786.451 188.124C785.514 188.124 784.729 187.848 784.096 187.297C783.475 186.735 783.164 186.02 783.164 185.153Z" fill="#333333"/>
<path d="M355.541 144.323H731.256V146.081H355.541V144.323Z" fill="#333333"/>
</g>
<defs>
<filter id="filter0_d" x="60.6496" y="0.625508" width="691.19" height="119.769" filterUnits="userSpaceOnUse" color-interpolation-filters="sRGB">
<feFlood flood-opacity="0" result="BackgroundImageFix"/>
<feColorMatrix in="SourceAlpha" type="matrix" values="0 0 0 0 0 0 0 0 0 0 0 0 0 0 0 0 0 0 127 0"/>
<feOffset dy="4.50224"/>
<feGaussianBlur stdDeviation="13.5067"/>
<feColorMatrix type="matrix" values="0 0 0 0 1 0 0 0 0 1 0 0 0 0 1 0 0 0 0.55 0"/>
<feBlend mode="normal" in2="BackgroundImageFix" result="effect1_dropShadow"/>
<feBlend mode="normal" in="SourceGraphic" in2="effect1_dropShadow" result="shape"/>
</filter>
<filter id="filter1_d" x="0.625219" y="91.2783" width="824.177" height="128.396" filterUnits="userSpaceOnUse" color-interpolation-filters="sRGB">
<feFlood flood-opacity="0" result="BackgroundImageFix"/>
<feColorMatrix in="SourceAlpha" type="matrix" values="0 0 0 0 0 0 0 0 0 0 0 0 0 0 0 0 0 0 127 0"/>
<feOffset dy="4.50224"/>
<feGaussianBlur stdDeviation="13.5067"/>
<feColorMatrix type="matrix" values="0 0 0 0 1 0 0 0 0 1 0 0 0 0 1 0 0 0 0.55 0"/>
<feBlend mode="normal" in2="BackgroundImageFix" result="effect1_dropShadow"/>
<feBlend mode="normal" in="SourceGraphic" in2="effect1_dropShadow" result="shape"/>
</filter>
</defs>
</svg>
