<svg width="15" height="15" viewBox="0 0 15 15" fill="none" xmlns="http://www.w3.org/2000/svg">
<path fill-rule="evenodd" clip-rule="evenodd" d="M7.5 15C11.6421 15 15 11.6421 15 7.5C15 3.35786 11.6421 0 7.5 0C3.35786 0 0 3.35786 0 7.5C0 11.6421 3.35786 15 7.5 15ZM11.1799 6.21374C11.4819 5.93022 11.4969 5.45559 11.2134 5.1536C10.9298 4.85162 10.4552 4.83665 10.1532 5.12016L6.40596 8.63821L4.84658 7.17421C4.5446 6.8907 4.06996 6.90567 3.78645 7.20766C3.50293 7.50964 3.51791 7.98428 3.81989 8.26779L6.40596 10.6957L11.1799 6.21374Z" fill="#333333"/>
</svg>
