<svg width="26" height="26" viewBox="0 0 26 26" fill="none" xmlns="http://www.w3.org/2000/svg">
<rect width="26" height="26" rx="13" fill="#009A98"/>
<path d="M11.4603 18C15.611 18 17.8795 14.5363 17.8795 11.5336C17.8795 11.4342 17.8767 11.3376 17.874 11.241C18.3151 10.9209 18.6986 10.5207 19 10.0653C18.5945 10.2475 18.1616 10.3689 17.7041 10.4241C18.1699 10.1426 18.5288 9.69825 18.6959 9.16559C18.2603 9.42502 17.7781 9.61546 17.263 9.71757C16.8521 9.27599 16.2658 9 15.6164 9C14.3699 9 13.3589 10.0184 13.3589 11.2741C13.3589 11.4535 13.3781 11.6247 13.4164 11.793C11.5425 11.6909 9.87945 10.7856 8.76438 9.41122C8.56986 9.74793 8.45753 10.1371 8.45753 10.5538C8.45753 11.3431 8.85479 12.0386 9.46301 12.4471C9.09315 12.4361 8.74521 12.3339 8.4411 12.1628C8.4411 12.1711 8.4411 12.1822 8.4411 12.1932C8.4411 13.2944 9.21918 14.2134 10.2521 14.4204C10.063 14.4729 9.86301 14.5005 9.65753 14.5005C9.51233 14.5005 9.36986 14.4867 9.23288 14.4591C9.52055 15.3615 10.3534 16.0184 11.3397 16.0377C10.5671 16.6477 9.59452 17.012 8.53699 17.012C8.35616 17.012 8.17534 17.0009 8 16.9816C9 17.6219 10.1836 18 11.4603 18Z" fill="white"/>
</svg>
