<svg width="26" height="26" viewBox="0 0 26 26" fill="none" xmlns="http://www.w3.org/2000/svg">
<path d="M0 13C0 5.8203 5.8203 0 13 0C20.1797 0 26 5.8203 26 13C26 20.1797 20.1797 26 13 26C5.8203 26 0 20.1797 0 13Z" fill="#009A98"/>
<path fill-rule="evenodd" clip-rule="evenodd" d="M17.8196 10.2889C17.7036 9.68148 17.2655 9.22222 16.7371 9.16296C15.5 9 14.2371 9 13 9C11.75 9 10.5 9 9.26289 9.16296C8.73454 9.22222 8.29639 9.68148 8.18041 10.2889C8 11.163 8 12.1111 8 13C8 13.8889 8 14.8519 8.18041 15.7111C8.29639 16.3185 8.73454 16.7778 9.26289 16.837C10.5 17 11.75 17 13 17C14.25 17 15.5 17 16.7371 16.837C17.2655 16.763 17.6907 16.3185 17.8196 15.7111C18 14.837 18 13.8889 18 13C17.9871 12.1111 17.9871 11.163 17.8196 10.2889ZM11.8889 14.7143V11.2857L14.8686 12.8963C14.8686 12.8963 12.9585 14.0921 11.8889 14.7143Z" fill="white"/>
</svg>
